{"glyphs":{" ":{"ha":250,"x_min":0,"x_max":0,"o":""},"\u0000":{"ha":0,"x_min":0,"x_max":0,"o":""},"\r":{"ha":463,"x_min":0,"x_max":0,"o":""},"!":{"ha":278,"x_min":69,"x_max":207,"o":"m 118 222 q 109 229 114 222 q 103 239 104 236 l 103 240 l 101 243 l 100 243 l 100 246 l 100 250 l 100 250 l 99 250 q 97 253 97 250 l 97 256 q 78 389 86 289 l 75 392 l 75 400 l 75 408 l 75 415 l 74 424 q 75 432 74 429 l 75 440 q 74 447 75 443 q 75 458 74 451 l 75 479 q 78 497 78 488 q 75 526 78 514 l 74 550 l 72 599 l 71 611 l 72 629 q 74 657 74 642 l 74 661 q 72 667 72 663 q 74 674 72 671 l 74 678 l 74 685 q 72 692 74 689 l 72 694 l 74 697 l 75 699 l 76 726 l 76 728 l 75 728 l 78 736 q 79 824 79 746 q 81 840 79 833 q 82 853 82 846 l 81 856 q 83 864 81 861 l 88 914 q 89 920 89 917 q 90 926 89 924 q 92 943 92 938 q 94 953 93 949 l 99 975 q 100 978 100 975 l 100 981 l 101 979 l 101 983 q 104 988 101 985 l 106 988 l 108 990 q 111 994 108 992 q 113 996 113 994 l 114 997 q 125 1000 115 1000 q 136 997 135 1000 q 142 994 136 996 q 147 989 142 994 l 150 989 l 150 989 l 151 986 l 153 985 q 163 975 153 985 q 176 958 176 964 q 174 875 176 893 l 171 844 l 171 831 l 171 814 q 168 740 168 794 l 168 738 l 168 733 l 168 728 l 168 725 q 169 665 171 697 q 169 629 168 642 q 169 615 169 617 l 164 560 l 167 549 l 169 546 q 171 521 172 532 q 169 514 171 515 q 167 507 167 511 l 169 504 l 169 492 l 169 475 l 168 467 l 165 467 q 168 443 171 461 q 171 388 167 421 l 171 383 q 172 378 171 379 l 174 369 l 174 364 l 172 356 q 175 331 172 350 q 178 321 178 328 q 185 310 181 315 l 186 296 q 183 264 186 289 l 182 240 q 181 236 181 239 q 181 232 182 233 q 168 228 181 231 l 165 222 q 161 218 164 218 q 149 219 156 219 l 138 218 q 118 222 126 218 m 143 119 q 149 124 147 122 l 150 124 l 150 125 l 150 125 l 150 125 l 151 125 l 154 125 l 154 125 l 154 126 l 156 125 l 156 126 l 157 126 l 158 126 q 185 115 174 128 q 200 86 196 103 l 201 83 l 201 82 l 201 79 l 201 79 q 201 77 201 78 q 201 75 200 76 q 203 68 203 74 l 204 67 l 204 64 l 204 60 l 206 58 q 206 56 207 57 q 206 56 206 56 l 206 51 l 204 49 l 201 33 l 199 31 l 196 28 q 185 5 189 8 q 179 1 181 1 q 165 -1 179 1 l 164 -1 l 163 -1 l 160 -1 l 157 -3 l 156 -3 l 154 -3 l 150 -3 l 150 -4 l 150 -4 l 140 -4 q 133 -13 136 -12 q 129 -14 131 -14 l 126 -15 l 125 -15 l 124 -15 l 124 -17 l 124 -15 l 124 -15 l 124 -17 q 122 -15 122 -17 l 122 -15 q 104 -1 117 -15 l 104 -1 l 103 0 l 101 0 l 101 0 l 101 0 q 88 8 94 1 l 86 7 l 86 7 l 83 14 q 71 75 69 51 l 76 93 l 75 96 l 81 100 l 89 106 l 90 107 l 93 113 l 94 115 q 99 118 97 118 l 99 118 l 99 118 l 100 118 l 100 119 l 101 119 l 104 119 l 108 119 l 108 119 l 110 119 l 122 117 l 122 118 l 124 118 l 124 117 l 124 118 l 125 118 l 126 118 q 128 119 128 119 q 129 117 129 118 l 131 117 l 132 115 q 142 117 140 118 l 143 117 l 143 119 z "},"\"":{"ha":444,"x_min":97,"x_max":349,"o":"m 124 703 q 117 706 121 703 l 113 708 l 111 708 l 113 710 l 111 710 l 111 710 l 111 711 l 111 711 l 110 711 l 110 713 l 110 714 q 100 760 103 721 l 99 761 l 99 764 l 99 767 l 99 769 q 97 771 97 769 l 97 775 l 99 776 q 101 790 99 782 l 101 793 l 101 797 q 100 814 101 813 l 100 821 l 99 831 q 100 840 99 836 l 100 849 l 100 851 q 99 853 99 851 q 100 854 99 854 l 100 857 q 101 858 101 857 q 100 861 101 860 l 99 863 l 100 864 l 101 864 l 101 874 l 100 874 l 101 876 q 103 888 103 879 q 101 906 103 899 l 103 911 l 103 915 l 101 915 l 101 918 l 103 918 l 108 936 l 111 940 l 111 946 l 113 949 q 114 954 113 953 q 117 957 117 957 l 117 958 l 117 960 l 118 960 q 119 959 118 958 q 119 960 119 960 l 119 961 l 121 961 l 121 961 l 126 964 l 129 964 l 129 965 l 139 965 l 149 965 l 154 964 l 160 963 q 161 963 160 961 l 165 961 q 166 960 165 960 q 167 960 167 961 q 175 957 167 957 q 188 950 186 953 q 189 932 189 947 q 188 922 189 926 l 185 911 q 186 907 185 908 l 186 901 l 186 888 l 185 876 l 185 875 l 185 874 l 186 872 l 186 871 q 188 851 188 868 l 186 835 l 186 833 l 183 817 q 185 813 183 815 q 188 811 186 811 q 189 803 189 808 q 189 802 189 803 q 188 801 189 801 q 185 799 185 799 l 186 797 l 186 794 l 186 788 l 185 785 l 182 785 q 185 778 185 783 q 185 758 183 768 l 185 758 l 185 756 l 185 754 l 185 753 l 185 750 l 185 747 q 184 742 183 744 q 185 739 185 740 l 186 738 q 188 736 186 736 q 190 733 188 733 l 193 732 q 190 719 192 726 q 185 708 188 711 q 183 707 183 708 q 182 706 183 706 l 171 704 q 167 703 167 704 q 164 700 167 700 l 124 703 m 293 667 q 290 666 292 665 q 286 667 288 667 l 279 669 l 278 671 l 278 672 l 276 672 l 276 672 l 276 674 l 275 674 q 274 675 274 674 l 274 675 q 246 728 257 689 l 244 728 q 243 732 243 728 l 243 736 q 242 738 242 736 q 240 742 240 739 q 240 744 238 742 l 240 747 l 240 757 l 240 764 q 242 768 240 767 l 242 772 l 239 793 l 238 814 l 239 828 l 239 838 l 239 840 l 239 842 l 239 843 l 240 846 l 240 851 l 239 853 q 240 854 239 854 l 242 854 l 244 865 l 243 865 l 242 865 l 244 869 q 251 904 247 875 l 253 910 l 254 915 l 253 917 q 254 918 253 917 l 256 919 l 265 939 q 267 944 265 942 q 269 949 268 947 q 272 953 271 949 q 278 960 275 960 l 278 961 q 279 963 278 963 l 281 963 l 281 963 q 282 964 281 964 l 283 964 l 285 964 l 289 965 l 290 965 l 292 967 q 301 966 296 967 q 310 964 307 965 q 314 963 311 963 q 317 961 317 963 q 319 960 318 960 q 321 958 319 958 l 322 958 l 322 957 q 323 956 322 956 q 324 956 324 957 l 332 951 l 339 947 q 340 943 340 946 q 336 914 340 924 q 332 897 332 904 l 331 893 q 329 883 331 888 l 326 865 l 326 864 l 326 863 l 326 860 l 326 858 q 328 850 328 857 q 326 838 328 843 l 325 818 q 322 803 325 814 l 322 797 q 322 796 322 797 q 324 794 322 794 q 326 792 326 794 q 329 783 329 789 q 328 782 328 783 q 326 781 328 781 q 325 779 325 781 l 326 778 q 326 776 326 778 q 328 774 326 775 l 328 767 q 326 764 328 764 l 322 764 q 328 756 328 764 l 328 751 q 331 736 328 747 l 332 736 l 332 733 q 332 732 332 733 q 333 731 332 731 l 333 728 q 332 725 332 728 l 336 717 l 339 717 q 342 713 339 714 l 344 711 q 347 697 349 708 l 346 688 q 343 685 343 685 q 333 681 343 685 l 332 678 l 331 675 l 293 667 z "},"#":{"ha":861,"x_min":82,"x_max":778,"o":"m 772 600 q 767 596 771 597 q 761 594 763 594 l 758 594 l 757 594 l 757 593 l 756 593 l 753 593 l 751 593 l 750 593 q 651 588 735 590 l 649 588 q 643 588 647 586 q 636 586 638 588 l 632 586 l 624 553 q 611 514 613 522 l 586 440 q 585 435 585 439 l 585 426 l 585 421 l 576 388 l 572 379 q 568 369 571 378 l 568 365 q 564 353 565 360 l 579 353 l 583 353 l 588 353 q 592 354 590 353 l 594 354 l 600 354 q 604 353 601 353 l 615 351 l 626 353 l 631 353 l 635 353 l 644 356 l 682 353 q 703 349 701 351 q 710 347 704 347 q 711 342 711 347 l 715 340 q 719 339 718 340 l 719 338 l 717 332 q 711 322 714 325 q 701 318 708 319 l 694 317 l 693 317 l 690 317 l 689 317 l 688 317 l 685 317 l 685 315 l 682 317 l 681 317 q 621 315 672 315 l 575 315 l 572 314 l 567 314 l 560 314 l 556 314 l 549 314 l 547 314 l 547 308 q 540 281 547 296 q 518 206 528 247 l 515 200 q 513 186 513 186 q 507 171 513 181 l 504 161 q 494 124 496 136 q 492 108 492 118 q 492 99 490 104 l 492 92 q 469 28 490 79 l 454 -3 q 451 -9 453 -4 q 445 -14 449 -14 q 436 -12 442 -14 q 429 -19 436 -12 l 425 -26 l 413 -19 q 401 -15 410 -18 q 389 -3 393 -11 q 385 14 385 -1 l 385 26 l 386 29 l 388 33 l 386 33 q 388 38 386 36 l 388 40 q 386 42 386 40 l 388 44 l 389 49 q 435 235 393 88 l 435 240 l 438 253 l 442 263 q 446 282 442 269 l 450 294 l 454 306 l 458 317 l 443 317 q 422 315 433 315 l 401 315 l 382 315 l 378 315 l 374 315 l 369 315 l 365 315 l 360 315 l 354 315 l 353 315 l 351 315 l 349 315 q 328 317 336 315 l 328 315 l 321 317 l 292 317 q 290 315 290 317 l 288 317 l 288 313 q 282 286 288 301 q 261 222 271 258 q 260 215 261 218 l 257 208 l 257 203 q 256 199 257 200 l 253 189 l 249 181 q 240 146 243 167 l 240 140 q 239 132 239 138 q 239 125 236 128 q 240 121 240 124 q 221 60 240 107 q 207 28 207 28 l 201 19 q 189 18 199 17 q 185 14 189 18 l 179 7 q 160 15 174 8 q 140 26 147 21 q 136 43 136 33 l 136 57 q 136 60 133 57 q 138 64 138 61 l 136 64 q 138 67 136 67 l 138 71 l 136 71 l 138 74 l 138 78 q 178 251 142 118 l 178 254 q 182 264 179 256 l 185 275 q 186 282 185 279 l 189 292 l 192 301 l 196 311 q 197 315 197 313 q 199 318 197 317 l 169 321 q 144 324 153 321 l 132 324 q 117 325 121 324 q 110 326 111 325 l 107 326 l 104 326 l 104 328 l 101 328 l 99 328 l 96 328 l 96 328 l 88 331 l 86 332 l 85 332 q 83 336 83 333 q 83 340 82 339 q 88 343 85 340 l 92 346 q 93 347 93 346 l 93 347 l 96 349 l 99 349 l 124 358 l 174 358 l 201 356 l 213 356 l 218 365 l 222 378 l 232 411 q 238 435 238 429 l 254 493 l 267 525 l 276 553 q 279 567 276 558 q 285 578 279 572 q 286 583 286 579 l 267 583 l 254 583 l 243 583 l 242 583 l 238 583 l 235 583 q 192 586 225 583 l 181 586 l 169 586 l 149 589 l 143 589 l 140 589 l 139 589 l 139 590 l 138 590 l 135 590 l 135 590 l 133 592 q 126 594 126 593 l 125 594 q 123 599 124 596 q 124 603 122 601 q 126 606 124 603 q 131 608 129 608 l 131 610 l 132 611 l 135 611 l 153 622 l 193 624 l 221 624 q 246 622 232 622 l 260 622 l 272 622 q 300 624 276 624 l 303 632 l 303 633 l 301 633 l 306 642 q 336 739 319 674 l 342 757 q 346 771 346 765 l 346 774 l 349 779 q 350 783 350 781 q 371 839 356 801 l 376 856 q 379 865 378 861 q 382 871 381 868 q 393 901 385 876 q 397 911 396 910 l 399 914 l 399 917 q 400 917 399 918 q 401 919 401 917 q 403 922 401 922 l 407 925 l 410 931 q 414 933 413 933 l 415 935 l 417 936 q 439 933 438 936 q 442 929 439 932 q 447 921 447 925 q 449 919 447 919 q 451 917 451 919 l 451 913 q 465 889 450 914 q 467 876 468 881 q 440 779 457 826 q 428 744 429 749 q 418 711 425 722 q 406 669 414 693 q 392 628 397 644 l 392 625 l 411 625 l 456 626 l 506 625 l 511 626 l 515 626 l 518 626 l 542 626 l 546 626 l 547 626 q 549 632 549 628 q 551 639 549 636 l 553 642 l 563 678 l 561 678 l 567 688 q 594 794 579 728 l 600 813 q 604 828 604 824 l 603 831 q 604 833 604 832 q 606 835 604 835 q 607 839 607 836 q 626 896 613 857 l 632 913 l 636 926 l 640 939 l 650 963 q 651 965 651 963 l 651 968 l 653 968 q 654 971 654 968 q 657 974 654 974 q 658 975 658 974 l 663 979 q 665 982 663 982 l 668 983 l 668 985 l 676 986 q 690 982 690 986 q 694 978 690 981 q 700 972 700 972 q 701 971 700 971 l 704 971 l 704 968 q 706 964 704 964 q 713 953 710 956 q 721 935 721 939 q 714 892 721 921 q 699 838 707 863 q 688 803 689 807 q 683 782 686 792 q 679 767 681 772 q 667 722 676 753 q 654 676 657 693 q 653 670 654 674 q 651 665 653 667 l 651 660 l 650 654 l 643 626 l 656 626 l 660 626 l 664 626 l 668 626 l 671 626 l 676 626 l 682 626 l 703 626 l 706 626 q 710 628 708 626 q 715 629 714 628 l 718 629 l 725 629 q 750 628 739 629 l 765 626 q 769 625 768 626 q 771 621 771 624 l 774 619 l 778 618 l 772 600 m 536 588 l 517 586 l 497 586 q 471 585 485 585 l 446 585 l 419 585 l 414 585 q 410 583 413 583 q 404 585 406 583 l 400 585 l 393 585 l 388 583 l 385 583 l 382 585 l 381 585 q 375 566 378 578 q 365 538 372 554 q 349 485 349 490 q 324 424 347 483 q 322 418 322 422 q 324 411 322 414 q 322 407 324 407 q 315 378 318 385 q 311 371 314 374 l 307 363 l 307 360 q 306 354 307 356 l 315 354 l 318 354 l 321 354 q 326 356 325 354 l 328 356 l 372 356 l 411 356 l 451 354 q 460 356 453 353 l 461 356 q 471 357 464 357 l 476 368 q 486 403 479 376 q 492 426 488 410 q 499 447 496 442 q 506 479 501 460 q 515 515 510 499 q 526 553 517 524 l 536 586 l 536 588 l 536 588 z "},"$":{"ha":629,"x_min":97,"x_max":532,"o":"m 163 231 q 174 213 168 226 q 182 193 181 199 q 183 186 183 192 l 185 182 l 186 182 l 188 182 l 189 178 q 190 172 189 172 l 192 172 l 193 167 l 194 163 q 268 63 236 90 q 325 46 294 44 q 335 47 331 46 l 326 185 l 324 189 l 324 201 l 324 213 q 321 233 321 221 l 321 244 l 321 257 l 321 289 q 319 314 319 300 q 318 328 318 317 l 318 342 q 317 365 318 357 l 314 393 l 308 447 q 307 468 307 456 l 290 482 l 281 490 q 258 513 267 501 q 250 519 251 519 l 231 540 l 218 553 q 208 565 210 561 q 161 632 188 592 l 160 632 l 149 654 q 138 753 138 706 q 147 842 138 800 q 174 910 157 885 q 226 956 183 925 l 231 960 q 249 968 242 967 l 289 981 l 289 994 q 294 1047 293 1047 l 294 1050 l 294 1056 l 296 1056 l 296 1058 l 296 1064 q 297 1065 296 1064 q 299 1067 297 1067 q 303 1079 301 1079 l 303 1081 l 304 1083 q 312 1086 307 1085 q 319 1086 317 1088 q 324 1081 319 1085 l 328 1072 l 329 1072 l 331 1072 l 331 1069 l 332 1064 q 346 1039 336 1058 q 349 1026 349 1031 l 349 989 l 358 989 q 412 978 390 989 q 457 942 433 967 q 481 907 478 918 l 483 900 l 489 893 l 488 893 l 486 893 q 490 886 486 893 l 493 878 l 493 872 q 492 868 492 871 l 496 849 l 494 842 q 494 838 493 842 l 494 833 q 483 824 493 829 q 471 822 474 819 q 468 829 469 829 q 464 831 465 829 q 453 844 456 839 q 451 844 453 846 q 450 844 450 843 q 446 850 447 844 q 442 857 444 854 l 421 876 q 401 894 407 886 q 369 936 381 925 q 350 947 357 946 q 351 928 351 942 q 350 903 351 913 l 350 857 q 351 833 350 843 l 353 813 l 358 703 l 358 697 l 358 692 l 361 679 l 368 592 q 372 517 371 532 l 372 515 q 390 499 385 503 q 472 408 436 461 q 481 397 475 403 q 490 385 485 393 q 496 378 494 378 q 521 317 514 347 q 525 299 525 304 l 525 294 q 526 281 525 286 l 529 274 q 532 224 532 238 l 531 194 q 526 178 531 190 l 525 174 l 522 179 q 522 174 521 179 q 517 143 524 163 q 503 114 511 124 q 404 22 464 58 l 401 -14 q 397 -50 399 -46 q 396 -62 396 -54 q 386 -65 393 -65 l 385 -74 l 382 -78 l 382 -82 l 371 -78 q 350 -68 361 -76 q 344 -53 346 -64 q 342 -37 342 -42 l 342 -33 l 342 -31 l 340 -31 l 340 -28 l 340 -22 l 339 -22 l 339 -19 l 339 -14 q 338 -1 339 -7 q 315 -4 324 -4 q 239 6 268 -7 q 211 18 229 8 q 208 21 210 19 q 201 24 206 22 l 183 31 q 111 129 129 76 q 97 192 97 169 l 97 214 q 106 221 97 221 l 110 221 l 111 235 q 114 247 111 239 l 114 249 l 136 243 q 163 231 154 238 m 397 85 q 408 100 406 93 q 415 121 411 107 q 425 146 425 142 q 433 213 432 178 q 435 235 435 221 q 433 249 435 246 q 404 343 428 294 q 383 382 394 367 l 383 379 l 383 369 q 382 358 382 367 l 383 354 q 386 310 386 340 q 386 297 389 297 l 383 297 q 388 261 388 289 l 392 179 q 393 171 393 178 l 393 163 q 394 158 393 160 l 394 151 l 394 140 l 394 131 q 397 89 394 117 l 397 85 m 286 936 q 232 861 244 911 q 222 779 222 828 q 231 710 222 733 q 244 675 236 688 q 297 601 274 629 l 297 603 q 294 622 297 611 l 294 626 q 296 632 294 631 l 296 635 q 294 656 294 646 q 293 676 294 667 l 292 676 l 293 688 l 286 818 l 286 840 l 286 860 l 285 864 l 285 871 l 285 876 q 286 936 285 914 z "},"%":{"ha":740,"x_min":97,"x_max":643,"o":"m 189 -14 q 174 13 174 -7 l 174 25 q 174 28 174 26 q 176 32 175 31 l 175 32 l 174 32 q 175 36 174 35 q 176 40 176 38 l 175 40 l 175 44 l 176 47 q 225 233 182 94 l 225 238 l 229 249 l 233 260 q 235 264 235 261 q 236 269 235 267 q 244 290 238 276 l 247 300 l 258 326 l 268 351 q 279 376 275 361 q 293 413 282 382 l 303 443 q 326 510 322 501 l 343 550 l 356 582 l 358 590 q 364 606 358 599 l 368 611 l 372 622 l 375 631 l 375 633 q 381 640 376 636 q 396 676 382 643 l 394 676 l 393 676 l 400 688 q 447 803 422 735 l 456 822 l 463 838 l 463 842 q 469 853 464 847 q 500 918 472 860 l 508 935 q 525 969 513 943 l 535 988 q 540 997 538 994 q 542 1000 542 997 q 543 1004 543 1003 l 544 1003 q 547 1007 546 1003 q 549 1011 547 1010 l 550 1011 l 553 1013 q 561 1021 556 1021 l 563 1022 l 564 1024 l 567 1024 q 578 1022 572 1024 q 583 1018 583 1019 l 586 1013 q 589 1003 589 1007 l 590 1003 q 592 1001 592 1003 l 592 997 l 592 993 l 594 979 q 597 953 599 965 q 553 842 589 921 q 535 803 535 804 l 528 782 l 519 763 q 501 717 518 758 q 481 665 485 678 l 478 661 q 475 649 475 650 l 472 643 l 443 567 l 417 499 q 394 447 406 468 l 385 428 q 382 413 382 425 l 382 408 q 371 375 381 399 l 367 367 q 361 358 363 363 l 361 354 l 356 335 q 347 314 350 322 l 342 304 l 339 304 l 339 301 q 329 271 339 296 q 304 199 314 233 q 303 192 304 194 l 300 183 l 299 172 l 290 154 q 281 118 282 129 q 279 111 281 114 l 278 103 l 278 93 l 278 86 q 257 25 275 71 q 243 -6 247 -3 q 240 -12 242 -8 q 235 -16 239 -15 q 225 -15 232 -17 l 219 -22 l 215 -29 q 203 -21 211 -25 q 189 -14 197 -19 m 246 994 l 249 994 l 251 994 l 253 994 l 256 994 l 258 993 l 258 994 l 264 992 q 308 934 292 975 q 328 842 325 893 q 329 838 329 840 l 329 825 l 328 814 l 328 806 l 328 794 q 322 771 328 793 q 308 722 319 754 l 299 701 q 267 658 282 668 q 221 646 251 647 q 161 657 193 644 q 156 659 160 657 q 148 664 151 661 q 140 671 144 667 l 135 676 l 126 683 l 124 689 q 108 717 114 703 l 107 717 l 106 726 q 97 807 97 775 q 99 835 97 826 l 103 856 l 107 868 l 107 872 l 111 878 q 113 882 113 879 q 147 936 125 910 q 178 964 158 950 q 208 982 197 978 l 211 983 l 214 985 l 214 983 q 218 985 217 983 l 221 986 l 222 986 l 224 986 l 226 992 l 246 994 m 514 -12 q 494 -17 514 -14 l 492 -17 l 489 -15 l 489 -17 l 489 -17 l 486 -15 l 482 -15 q 476 -14 478 -15 q 433 44 450 3 q 411 138 415 85 l 410 140 q 411 154 410 149 l 411 164 l 413 174 l 413 183 l 417 207 l 431 256 l 442 278 q 474 322 458 311 q 519 332 489 332 q 579 322 544 333 l 590 317 l 600 308 l 606 303 q 611 297 606 303 q 615 292 615 296 l 617 289 q 632 261 626 275 l 633 261 l 635 251 q 643 167 643 201 q 642 144 643 151 l 636 124 l 633 110 l 633 107 q 632 103 632 106 q 631 100 632 101 l 628 97 q 593 42 615 69 q 561 13 581 26 q 532 -3 542 -1 q 529 -6 532 -3 l 526 -6 l 525 -6 l 522 -7 l 521 -8 l 518 -8 l 517 -8 q 514 -12 515 -12 m 222 958 q 214 947 217 953 q 168 849 181 910 q 167 819 167 842 q 172 753 165 781 l 172 750 l 174 747 l 175 744 l 176 742 q 211 682 199 688 q 225 678 219 678 q 235 683 232 678 l 235 688 q 233 692 233 689 q 236 707 233 696 l 239 711 q 240 715 240 713 l 240 718 l 247 746 l 250 754 l 253 754 l 251 761 l 254 782 q 257 849 260 810 l 257 854 l 257 861 l 257 865 q 254 879 254 874 l 254 886 q 249 913 251 903 l 244 921 q 242 924 244 922 q 239 926 240 926 q 238 947 236 940 l 238 954 q 232 968 238 963 l 229 971 l 222 958 m 511 8 l 519 19 l 526 31 q 555 78 543 51 q 571 129 567 104 q 574 158 574 143 q 568 225 574 204 l 567 228 l 567 231 q 565 235 567 233 l 564 236 q 529 297 543 292 q 513 301 518 301 q 506 294 507 300 l 506 290 l 506 286 q 504 272 506 276 q 501 268 503 268 l 499 263 l 500 260 l 493 232 l 490 224 l 488 224 l 489 217 l 486 196 q 483 129 481 168 l 483 124 l 483 117 l 486 108 l 486 100 q 486 93 485 94 q 492 67 489 74 l 494 57 l 497 53 l 500 51 q 503 42 503 46 l 503 32 l 503 25 q 507 11 503 18 l 511 7 l 511 8 z "},"&":{"ha":822,"x_min":110,"x_max":739,"o":"m 678 593 q 678 590 678 592 q 678 589 679 589 l 675 588 q 674 586 675 586 l 674 586 l 671 586 l 671 586 l 671 585 l 669 585 q 636 575 661 576 l 635 574 l 635 574 l 633 574 l 631 574 l 629 572 q 625 574 626 572 l 625 574 l 621 574 l 615 574 l 613 574 l 610 574 l 603 574 l 597 572 l 593 571 l 592 571 q 600 540 597 561 q 604 519 603 519 l 604 511 l 604 504 l 604 504 l 606 503 l 606 496 l 606 489 l 607 489 l 608 489 l 608 481 q 610 472 608 474 q 617 378 617 426 q 613 289 617 338 q 606 242 611 268 q 615 228 610 236 q 625 218 621 221 q 636 204 628 213 q 644 196 642 200 q 647 190 646 192 l 651 189 q 653 186 651 188 q 656 183 654 185 l 657 179 l 696 129 q 713 104 697 125 l 729 83 q 732 74 732 72 l 735 72 l 735 71 l 735 71 l 735 69 l 735 68 q 736 64 738 65 l 736 63 l 738 56 l 739 53 l 739 51 q 734 44 738 49 q 729 39 731 40 l 725 38 q 720 37 722 36 q 718 38 718 38 l 718 38 l 717 36 l 714 38 l 711 38 l 703 38 q 686 40 690 38 q 658 69 676 49 q 625 110 639 90 q 613 127 618 118 q 601 142 607 136 q 589 156 599 146 l 589 157 q 568 100 581 131 l 564 94 q 503 42 533 60 q 460 24 478 32 q 363 0 394 0 q 315 1 332 0 q 208 36 247 11 q 144 101 169 61 q 115 175 122 131 q 110 229 110 197 q 132 365 110 285 q 147 401 139 386 q 161 426 156 417 q 178 457 171 446 q 186 469 186 468 q 192 475 186 472 l 197 481 q 219 509 204 492 q 243 538 235 526 l 243 539 l 258 553 q 281 578 263 560 q 268 607 274 596 l 264 618 l 267 619 q 252 646 258 626 q 239 690 246 665 l 228 728 q 226 739 228 735 l 222 750 q 221 756 221 751 l 219 776 l 218 814 l 218 822 l 218 829 q 219 833 218 831 q 218 840 219 836 q 218 847 215 844 q 243 904 224 881 q 263 929 257 926 l 272 938 q 276 938 275 940 q 321 979 297 971 q 376 990 354 990 q 450 954 421 990 q 477 888 469 928 q 482 807 485 849 q 467 728 478 763 q 429 658 456 693 q 367 581 394 611 l 382 553 q 422 490 394 531 q 469 419 449 450 q 475 414 471 415 q 486 399 481 404 q 497 382 489 390 l 506 369 l 508 365 l 510 363 q 516 353 513 357 q 521 347 519 350 q 518 424 518 383 q 522 539 518 510 l 526 564 q 528 568 526 567 q 532 569 531 569 l 526 569 l 524 569 l 522 568 l 521 569 q 510 571 514 569 l 506 571 l 503 572 l 500 572 q 493 574 494 572 l 492 574 l 492 574 l 490 574 l 489 574 l 489 575 l 488 576 q 486 588 483 585 l 488 589 l 488 593 l 488 594 l 488 596 l 489 596 q 494 606 492 604 q 501 608 497 608 q 508 608 506 608 q 515 610 510 610 l 524 608 l 529 610 l 532 610 l 540 610 l 550 610 l 551 610 l 553 610 l 553 610 l 553 611 q 568 613 564 611 l 581 613 l 594 611 l 596 613 l 597 613 q 603 614 599 614 l 604 614 q 606 613 604 613 l 607 613 l 610 613 q 615 614 611 614 l 617 613 l 617 611 q 624 613 619 614 q 635 614 632 613 l 636 614 l 638 614 l 640 615 l 642 615 l 643 615 l 650 615 l 651 615 l 651 617 l 653 617 l 654 618 q 665 619 656 619 l 669 618 q 675 614 674 618 l 676 613 l 678 611 l 678 603 q 678 593 681 599 m 532 569 l 536 569 l 538 569 l 532 569 m 529 228 q 504 256 510 251 q 503 258 504 257 q 501 263 501 260 q 497 265 500 263 q 491 270 494 267 q 488 275 488 274 q 381 415 443 329 q 335 492 356 456 q 333 494 333 493 q 331 499 332 496 l 322 506 l 319 508 q 313 521 314 514 l 311 517 l 296 503 q 285 486 296 503 q 230 373 250 443 q 210 243 210 303 q 228 128 210 186 q 244 107 231 114 l 260 93 q 275 81 267 86 q 283 71 279 72 l 308 57 l 313 57 q 372 50 336 47 l 389 50 l 389 50 q 419 58 399 51 q 447 69 440 65 q 515 157 499 110 q 521 178 518 164 l 521 186 q 525 207 521 194 q 528 219 528 218 q 529 228 529 222 m 303 900 l 300 890 l 300 889 q 297 886 297 886 l 297 886 l 299 886 l 297 883 l 297 879 l 299 879 l 297 878 l 297 875 q 306 746 299 800 l 308 743 l 313 725 q 314 718 313 721 q 315 711 314 713 l 318 701 q 319 695 319 699 q 321 690 319 692 q 328 670 324 681 q 336 646 332 660 q 376 715 364 686 q 390 771 389 744 l 390 776 q 392 786 390 782 l 393 792 q 382 901 393 861 q 353 942 374 942 q 314 924 338 942 l 313 919 l 311 917 q 308 913 308 914 l 307 914 l 303 906 l 303 906 l 303 900 z "},"'":{"ha":204,"x_min":57,"x_max":149,"o":"m 82 679 q 78 681 81 681 q 75 683 76 682 q 71 686 74 686 l 71 688 l 71 689 l 71 689 q 69 690 69 689 l 71 690 l 69 690 l 67 690 l 69 692 q 67 693 69 693 q 61 749 61 710 l 58 749 q 60 753 58 751 l 58 756 l 57 757 l 57 760 q 58 764 57 764 q 60 768 60 764 q 61 775 60 772 l 61 782 l 63 790 l 61 801 l 61 810 q 58 818 60 813 q 57 829 57 824 l 58 840 l 58 851 q 58 851 58 851 q 57 853 57 851 l 57 856 l 57 857 q 58 861 58 858 q 58 863 58 861 q 57 865 58 864 l 57 867 l 57 868 l 58 868 l 58 879 l 57 879 l 58 882 l 58 889 q 57 918 58 904 l 57 922 l 57 928 l 57 929 q 57 932 57 932 l 57 933 q 61 953 57 940 q 63 964 61 963 l 63 969 q 64 975 63 972 q 65 979 65 978 l 65 981 l 65 981 l 67 981 q 69 982 69 981 q 69 983 67 983 l 71 983 l 71 985 l 75 988 q 76 989 76 988 q 88 990 79 989 q 97 989 96 990 l 101 989 q 108 986 106 989 l 110 986 l 111 986 l 113 985 l 114 985 l 122 982 q 128 981 125 981 q 132 979 131 981 q 135 976 133 976 q 136 975 136 975 q 139 940 139 968 q 138 928 138 935 l 139 922 l 139 917 l 139 901 q 142 888 139 889 l 142 886 l 142 885 l 142 881 l 142 881 q 144 835 144 861 l 142 815 l 143 811 l 144 808 q 146 799 147 803 q 146 798 146 799 q 144 797 146 797 l 144 794 l 144 793 l 144 788 l 144 781 q 143 778 144 776 l 142 778 q 143 768 144 775 q 142 746 142 760 l 143 744 q 142 742 142 743 q 142 740 142 740 q 143 739 142 739 q 144 738 144 739 l 143 735 l 142 732 q 143 722 142 725 l 144 717 q 147 714 144 715 q 149 711 149 713 q 144 693 149 703 q 142 683 142 683 l 136 681 l 126 681 l 124 678 l 119 676 l 106 676 q 94 678 100 678 q 82 679 88 678 z "},"(":{"ha":397,"x_min":68,"x_max":372,"o":"m 325 -153 q 304 -140 317 -151 l 293 -129 l 288 -119 l 288 -119 l 286 -121 l 283 -117 l 281 -112 l 279 -114 l 279 -114 l 274 -104 q 149 106 217 -35 l 144 110 l 140 124 l 135 138 l 124 160 l 117 186 q 100 251 103 244 l 97 268 q 96 283 96 275 q 88 318 93 288 q 69 449 69 393 q 74 540 68 481 l 74 550 l 72 557 q 76 569 72 564 l 78 576 l 81 596 l 81 606 q 82 610 81 608 q 83 614 83 611 l 94 660 l 93 660 l 97 672 q 149 817 128 763 l 171 861 l 172 867 l 178 874 l 181 879 q 233 960 204 921 q 280 1019 258 993 q 311 1054 301 1044 l 315 1058 l 318 1061 l 319 1061 l 322 1064 l 326 1069 l 329 1071 l 332 1072 l 344 1082 q 349 1083 347 1082 l 350 1085 q 363 1082 353 1088 q 365 1078 365 1079 q 364 1071 364 1076 l 360 1058 l 360 1058 l 361 1057 q 360 1053 361 1054 l 357 1047 q 351 1025 356 1046 q 340 997 343 1001 q 239 822 286 913 q 222 775 232 806 q 189 664 196 703 q 188 657 189 660 l 186 651 q 185 643 186 646 l 185 639 q 174 475 172 519 l 174 431 l 174 393 l 176 386 l 182 372 l 189 336 q 188 326 189 328 q 189 315 186 324 l 192 311 q 197 285 194 297 q 201 267 200 272 l 203 254 q 199 253 200 254 q 213 217 207 244 q 242 133 224 175 q 246 126 244 131 q 249 118 249 118 l 251 113 q 260 94 257 104 q 261 89 261 92 q 263 85 261 86 q 283 43 271 63 l 289 36 q 301 19 296 25 l 307 14 q 338 -42 328 -18 q 344 -58 344 -58 l 364 -99 q 367 -106 365 -103 q 369 -112 368 -110 q 365 -121 372 -119 l 363 -122 l 365 -133 l 367 -139 l 368 -143 l 354 -147 q 325 -153 339 -154 z "},")":{"ha":397,"x_min":28,"x_max":331,"o":"m 65 -153 q 43 -147 54 -153 l 29 -143 l 31 -139 l 32 -133 l 35 -122 l 32 -121 q 28 -115 28 -119 q 30 -108 28 -112 q 33 -99 32 -103 l 53 -58 q 60 -42 53 -58 q 90 14 69 -18 l 96 19 q 108 36 101 25 l 114 43 q 135 85 126 63 q 136 89 136 86 q 138 94 136 92 q 146 113 140 104 l 149 118 q 151 126 149 118 q 156 133 153 131 q 185 217 174 175 q 199 253 190 244 q 194 254 197 254 l 196 267 q 200 285 197 272 q 206 311 203 297 l 208 315 q 210 326 211 324 q 208 336 208 328 l 215 372 l 221 386 l 224 393 l 224 431 l 224 475 q 213 639 225 519 l 213 643 q 211 651 211 646 l 210 657 q 208 664 208 660 q 175 775 201 703 q 158 822 165 806 q 57 997 111 913 q 46 1025 54 1001 q 40 1047 42 1046 l 38 1053 q 36 1057 36 1054 l 38 1058 l 38 1058 l 33 1071 q 32 1078 33 1076 q 35 1082 32 1079 q 47 1085 44 1088 l 49 1083 q 53 1082 50 1082 l 65 1072 l 68 1071 l 71 1069 l 75 1064 l 78 1061 l 79 1061 l 82 1058 l 86 1054 q 117 1019 96 1044 q 164 960 139 993 q 217 879 193 921 l 219 874 l 225 867 l 226 861 l 249 817 q 300 672 269 763 l 304 660 l 303 660 l 314 614 q 315 610 314 611 q 317 606 317 608 l 317 596 l 319 576 l 321 569 q 324 550 326 561 l 324 540 q 328 449 331 479 q 310 318 328 393 q 301 283 304 288 q 300 268 301 275 l 297 251 q 281 186 294 244 l 274 160 l 263 138 l 257 124 l 253 110 l 249 106 q 124 -104 181 -35 l 118 -114 l 118 -114 l 117 -112 l 114 -117 l 111 -121 l 110 -119 l 110 -119 l 104 -129 l 93 -140 q 72 -153 81 -150 l 65 -153 z "},"*":{"ha":461,"x_min":67,"x_max":393,"o":"m 161 699 l 158 703 q 158 704 157 704 l 158 706 l 157 706 q 156 707 156 706 l 157 707 l 156 707 q 156 708 154 707 l 156 710 q 153 728 153 718 q 156 760 153 735 l 154 761 l 156 764 l 156 767 l 156 769 l 156 772 q 157 776 156 775 l 158 778 q 160 786 160 779 l 161 789 q 144 782 160 789 q 138 781 142 782 q 133 778 135 779 l 133 778 l 132 778 l 131 778 l 108 772 l 104 771 q 99 769 101 769 q 93 768 97 768 l 88 768 q 83 768 86 767 l 83 767 l 81 767 l 81 768 l 81 767 l 81 767 l 79 767 l 78 768 l 74 768 l 72 768 q 69 778 67 775 l 69 779 q 72 782 72 782 l 72 783 l 72 786 l 72 786 l 81 797 q 99 804 83 800 q 105 807 101 806 q 113 810 108 808 l 124 813 l 129 815 q 143 821 128 814 l 140 821 l 135 825 l 131 829 l 128 829 l 126 831 l 125 831 q 107 844 119 836 q 101 847 104 847 q 97 851 101 847 l 88 860 q 85 863 85 863 l 83 863 l 82 864 l 82 865 l 81 865 l 81 865 l 81 867 l 81 868 l 79 874 l 79 874 l 78 874 q 79 881 78 876 q 82 886 81 885 q 86 889 83 886 q 90 890 88 890 l 90 892 l 90 892 l 92 892 l 93 892 l 99 896 q 110 900 104 900 q 126 894 113 899 q 147 882 139 889 l 158 874 l 165 872 l 171 868 l 174 865 l 174 868 l 174 869 q 175 871 174 871 q 176 872 176 871 q 178 882 178 875 l 178 882 l 176 882 l 178 883 l 186 917 l 186 922 l 188 926 l 186 928 l 188 929 l 189 931 q 193 940 190 936 q 197 949 196 944 l 203 958 l 207 968 l 210 969 q 211 971 211 969 l 211 971 l 213 971 l 213 972 l 214 972 l 215 972 l 221 975 l 222 975 l 222 975 q 240 971 239 975 l 246 969 q 250 965 246 969 l 251 965 l 253 964 l 254 963 l 256 963 l 269 953 l 272 947 l 272 944 q 267 918 272 932 q 265 913 265 915 q 264 908 265 910 q 263 901 263 907 l 263 897 l 260 885 l 257 871 l 257 869 l 257 868 l 257 867 l 257 865 l 257 861 q 263 863 258 863 l 265 863 l 265 861 q 275 865 268 865 q 297 872 290 868 l 300 872 q 301 874 301 872 l 303 874 l 304 874 l 308 874 l 310 874 l 321 878 l 322 879 l 325 881 l 328 882 l 329 883 l 349 885 l 358 885 q 363 883 360 883 l 364 879 l 367 879 l 369 878 l 369 869 q 369 862 369 864 q 367 859 368 860 q 364 857 365 858 l 361 856 l 360 856 l 358 856 l 360 854 l 357 854 l 357 854 l 357 853 l 356 853 l 354 853 q 304 838 347 849 l 303 836 l 301 836 q 297 835 300 835 l 292 832 l 289 832 q 285 831 288 831 q 278 829 282 831 q 271 828 274 828 l 267 828 l 264 826 q 251 821 264 825 q 269 807 254 819 l 274 807 q 275 806 275 807 q 286 801 282 806 l 288 799 q 290 796 288 796 l 292 796 q 296 793 292 796 q 301 788 301 790 l 304 786 l 304 786 l 303 783 q 314 779 307 786 q 335 765 324 769 l 336 764 q 338 763 336 763 q 339 761 338 761 q 344 760 343 761 q 346 757 344 757 q 356 751 354 751 l 358 750 l 361 749 l 364 749 l 367 749 q 383 735 374 746 l 390 725 l 392 722 q 389 715 393 722 l 390 713 l 390 711 q 390 708 392 710 q 381 696 386 700 q 367 688 375 688 l 363 688 l 361 688 l 360 689 l 360 688 l 357 689 l 357 689 l 357 689 l 356 689 l 354 689 l 354 689 q 300 718 343 692 l 299 718 q 296 721 299 718 l 290 725 q 283 728 286 725 q 281 729 283 729 q 267 740 271 739 l 265 743 q 261 746 263 746 q 249 751 251 751 l 242 757 q 239 760 239 760 q 236 744 236 749 l 236 742 l 235 742 q 236 740 235 740 l 236 738 l 235 735 l 233 733 q 232 724 231 726 l 233 721 l 233 718 q 236 715 233 718 q 238 714 238 715 l 238 713 q 233 700 238 708 q 225 689 228 692 q 222 688 222 689 q 211 689 221 686 l 207 688 l 204 685 l 189 688 q 167 694 176 689 l 161 699 z "},"+":{"ha":1310,"x_min":111,"x_max":1229,"o":"m 419 1150 q 432 1153 422 1156 l 432 1153 q 452 1125 442 1153 q 461 1074 463 1097 q 428 963 463 1046 q 404 885 408 914 q 397 853 400 854 q 393 846 393 851 q 385 838 393 840 q 349 849 367 833 q 326 888 332 865 q 324 903 324 896 q 328 926 324 914 q 363 989 338 956 q 409 1056 397 1033 q 421 1104 421 1079 l 419 1122 q 419 1150 417 1147 m 517 1157 q 524 1168 514 1168 q 540 1164 533 1168 q 551 1160 543 1161 l 564 1153 q 606 1112 589 1140 q 624 1054 624 1083 q 568 890 624 1010 q 517 781 528 811 q 503 733 504 749 l 501 708 l 557 708 l 614 707 l 611 722 q 617 774 608 740 q 647 850 626 807 q 672 915 668 896 q 676 986 676 933 q 692 1044 676 1044 q 713 1019 701 1044 q 731 933 731 979 q 725 892 731 914 q 686 800 719 869 q 656 724 661 747 l 653 706 l 685 703 q 940 675 868 688 q 990 660 988 669 l 988 654 q 992 643 983 649 q 1017 596 1011 632 q 1019 583 1018 588 q 1022 579 1021 578 q 1092 597 1054 597 q 1140 590 1125 597 q 1183 558 1156 583 q 1218 521 1211 533 q 1226 476 1225 508 q 1222 414 1229 440 q 1188 336 1215 388 q 1150 292 1176 315 q 1097 256 1124 269 q 1021 240 1063 240 q 978 249 990 240 l 963 257 l 950 232 q 880 151 931 193 q 774 83 829 108 q 543 33 661 33 q 388 54 449 33 q 258 131 328 75 q 162 238 194 181 q 117 381 129 294 q 111 449 111 408 q 119 542 111 494 q 139 622 126 589 q 167 660 149 649 q 248 684 186 672 q 379 701 310 696 l 414 706 l 411 728 q 453 846 408 776 q 540 1010 528 972 q 546 1054 546 1031 q 539 1103 546 1082 q 524 1140 525 1139 q 517 1157 518 1149 m 632 665 q 617 676 625 674 q 531 681 597 681 l 524 681 q 517 679 517 681 q 536 665 517 676 q 550 651 550 657 q 536 647 550 647 q 515 649 524 647 q 461 665 488 651 q 439 676 449 672 q 419 679 429 679 l 388 676 q 222 653 318 672 l 189 646 l 207 640 q 383 619 261 624 q 450 614 447 617 q 449 603 456 611 q 374 592 440 592 q 300 596 340 592 l 260 599 q 244 596 247 599 q 204 581 235 590 q 174 569 182 574 q 168 556 168 565 q 169 543 168 543 l 207 554 q 244 564 243 565 q 204 540 254 554 q 174 529 182 533 q 168 514 168 525 q 169 503 168 504 q 175 503 171 501 q 261 531 246 531 q 268 528 268 531 q 244 514 268 524 q 185 492 215 501 q 170 484 172 488 q 168 465 168 481 q 169 444 168 444 q 214 459 174 444 q 264 479 254 474 q 294 482 294 493 q 265 465 294 479 q 204 442 235 451 l 175 432 l 174 414 q 176 396 172 396 q 197 403 179 396 q 235 418 215 411 q 293 439 288 439 q 292 429 306 439 l 282 422 q 178 381 246 406 q 181 360 178 374 q 188 339 185 346 l 236 360 q 280 378 264 372 q 297 381 296 383 l 299 378 q 244 349 299 372 l 190 325 l 197 306 l 204 285 l 244 303 q 307 322 307 332 q 270 301 307 319 q 217 278 233 282 l 207 274 l 218 253 l 229 232 l 257 249 q 314 275 300 275 q 319 272 319 275 q 292 251 319 268 q 279 244 283 246 l 238 222 l 244 211 q 261 207 253 201 q 336 249 326 249 q 340 260 343 274 q 329 236 338 247 q 306 217 321 225 l 301 214 l 263 190 l 276 176 l 290 163 l 321 182 q 332 208 326 199 q 341 218 338 217 q 344 214 344 219 l 344 206 q 331 171 344 181 l 301 151 l 311 142 l 321 132 l 339 144 l 358 157 q 365 151 364 157 l 365 150 q 353 135 365 143 q 339 122 339 126 q 347 115 339 119 q 353 114 349 114 q 371 122 361 114 q 386 129 381 129 q 392 124 392 129 q 385 113 392 118 l 375 101 l 400 92 q 557 58 486 58 q 653 71 603 58 q 781 124 724 89 q 886 219 839 158 q 945 323 932 279 q 967 460 958 367 q 971 504 968 486 q 974 533 974 522 q 967 547 974 547 q 942 537 961 547 q 911 519 922 526 q 851 492 854 489 q 857 505 846 497 q 881 519 868 513 q 900 529 894 526 q 949 555 938 547 q 963 571 960 563 q 968 608 965 579 l 969 642 q 961 647 968 647 q 953 642 953 647 q 903 614 953 629 q 815 599 854 599 l 803 599 q 776 606 776 599 q 782 615 776 610 q 807 622 792 622 q 899 642 836 622 l 925 650 l 832 660 q 704 672 742 669 l 669 675 l 669 663 q 667 652 669 654 q 656 651 665 650 q 632 665 642 654 m 204 610 l 171 619 q 165 618 168 621 q 164 603 164 617 q 167 583 164 583 q 200 593 171 583 l 231 603 l 204 610 m 1114 558 q 1076 571 1093 571 q 1041 552 1054 571 q 1025 508 1028 533 l 1022 478 l 1036 486 q 1075 499 1057 499 q 1108 483 1096 499 q 1121 439 1121 467 q 1049 342 1121 357 q 1026 339 1032 339 q 1006 344 1013 339 q 999 344 1000 346 q 990 322 994 338 q 990 301 985 306 q 997 299 997 292 q 1000 304 997 301 q 1008 307 1003 307 q 1019 303 1013 307 q 1028 289 1028 297 q 1032 283 1028 283 q 1036 276 1036 283 q 1050 271 1036 271 q 1065 274 1061 271 q 1068 278 1068 276 q 1058 293 1068 283 q 1044 332 1032 321 q 1054 335 1049 335 q 1064 328 1063 335 q 1077 308 1065 321 q 1093 294 1089 294 q 1103 299 1097 293 q 1106 308 1110 306 q 1092 326 1100 314 q 1089 342 1085 338 q 1099 349 1093 349 q 1111 338 1104 349 q 1121 326 1118 326 q 1129 333 1125 326 q 1135 343 1133 340 l 1143 358 l 1135 365 q 1126 379 1126 372 q 1131 385 1126 383 q 1142 386 1135 388 l 1144 386 q 1158 394 1154 386 q 1165 460 1165 415 q 1163 490 1165 476 q 1143 530 1157 510 q 1114 558 1129 550 m 1082 436 q 1067 481 1082 481 q 1038 461 1057 481 q 1023 442 1026 450 q 1011 403 1019 435 l 1003 361 l 1019 360 q 1051 363 1036 356 q 1076 388 1067 371 q 1082 436 1082 400 m 889 586 q 921 600 900 592 l 939 607 q 946 608 942 608 q 935 593 963 608 q 872 565 907 578 q 838 557 838 551 q 889 586 839 561 m 910 482 q 950 503 942 500 q 956 504 951 504 q 960 500 960 504 q 950 489 960 494 q 896 459 925 474 q 867 454 867 444 q 885 467 867 457 q 910 482 903 478 m 911 436 q 958 449 958 457 q 937 433 958 443 q 893 415 915 422 q 871 413 871 408 l 872 415 q 911 436 874 421 m 910 389 q 951 406 942 406 q 949 397 958 406 q 919 378 939 388 q 878 361 886 361 q 876 368 868 361 q 910 389 883 375 m 899 347 q 936 353 936 364 q 906 334 936 349 q 869 319 876 319 q 868 322 868 319 q 869 326 868 325 q 899 347 875 335 m 892 307 q 911 311 904 311 q 915 308 915 311 q 892 292 915 301 q 856 279 865 279 q 847 282 847 279 q 863 294 847 288 l 892 307 m 868 260 q 897 261 900 272 l 892 254 q 867 249 886 249 q 853 251 853 249 q 868 260 853 254 m 838 214 q 851 218 849 218 q 854 213 854 215 q 833 200 854 200 l 821 193 q 819 194 819 193 q 826 203 819 196 q 838 214 833 210 m 813 63 q 833 79 821 79 q 858 63 858 79 q 835 33 858 53 q 542 -32 743 -32 q 269 39 317 -32 q 263 58 263 47 q 272 71 263 71 q 299 69 290 72 q 319 53 308 65 q 409 8 344 22 q 551 -7 474 -7 q 657 0 606 -7 q 813 63 789 21 m 389 231 q 383 237 385 233 q 382 242 382 240 q 376 292 379 275 q 371 369 371 344 q 378 446 371 394 q 418 504 386 493 q 431 508 426 508 q 469 471 457 506 q 489 403 483 442 q 499 264 499 311 q 492 253 499 260 q 478 246 482 246 q 465 251 469 246 q 457 301 460 261 q 454 346 454 340 l 415 333 l 413 333 l 419 282 l 421 267 l 424 243 q 421 238 424 240 q 415 231 418 235 q 401 226 410 225 q 389 231 394 226 m 450 385 l 449 396 q 433 458 440 442 l 429 469 q 417 439 421 461 q 410 368 410 410 l 450 381 l 450 385 m 632 258 q 626 265 629 260 q 624 274 624 269 q 619 297 621 288 q 615 313 617 307 q 568 399 607 336 q 558 408 565 406 q 563 365 561 371 l 565 328 l 571 275 l 571 272 q 564 262 571 267 q 549 257 557 257 q 538 260 546 257 q 532 271 529 263 l 532 271 q 524 363 528 297 l 521 407 l 521 438 q 542 474 524 474 l 546 474 q 557 469 553 474 q 571 460 567 467 l 574 456 l 578 451 l 582 446 q 594 428 588 435 q 604 489 590 464 q 608 494 606 493 q 613 497 611 496 q 621 501 617 501 q 631 500 628 501 q 644 483 644 490 q 643 480 644 482 q 642 475 642 478 q 633 429 632 457 l 633 422 q 639 385 633 413 l 647 354 q 663 274 661 293 l 663 272 q 656 261 663 267 q 644 258 653 260 q 632 258 636 257 m 675 429 l 672 444 l 669 471 l 669 472 q 681 495 669 483 q 721 508 692 507 q 768 483 744 513 q 797 425 783 465 q 811 356 810 386 q 806 306 811 333 q 729 256 785 254 q 696 283 707 256 l 675 429 m 765 317 q 772 357 772 342 q 760 417 769 388 q 735 463 750 446 q 722 474 732 471 l 719 472 q 715 469 718 469 q 708 465 713 468 l 711 460 q 712 458 711 460 q 711 453 713 456 l 711 450 l 715 435 l 732 296 q 733 296 732 296 q 733 294 733 296 q 733 292 733 294 q 765 317 754 292 z "},",":{"ha":257,"x_min":33,"x_max":190,"o":"m 36 -100 q 38 -94 36 -96 l 40 -94 q 42 -93 40 -93 q 43 -92 43 -93 l 43 -90 l 44 -89 l 46 -90 q 58 -78 46 -89 q 75 -60 71 -65 l 75 -60 l 78 -54 l 78 -53 l 79 -50 l 82 -50 l 83 -47 l 86 -43 l 92 -36 q 93 -35 93 -36 l 97 -18 l 99 -11 l 99 -4 q 100 0 99 -1 q 96 0 99 -3 l 94 0 l 94 0 l 94 0 l 93 0 l 93 0 l 92 0 q 68 24 82 4 l 67 24 q 65 25 65 24 q 64 31 64 26 q 61 32 61 31 l 63 35 l 61 38 q 61 40 60 39 l 60 44 l 61 46 l 60 50 q 59 56 61 51 q 57 61 57 60 q 56 75 56 67 l 61 89 l 64 92 q 63 93 63 92 l 64 93 l 65 94 q 68 97 65 94 l 68 99 l 68 100 l 71 100 l 76 104 l 76 106 l 79 106 q 91 110 85 107 q 101 114 97 113 l 106 114 l 107 114 q 114 121 110 121 l 117 122 l 119 125 l 121 125 q 125 126 122 126 l 126 126 q 132 128 128 126 q 140 129 136 129 q 146 128 143 132 q 163 114 156 122 q 178 85 169 106 q 181 78 178 82 q 183 69 183 74 q 188 49 186 60 q 189 35 189 39 l 189 32 l 189 31 q 190 26 189 26 q 179 -25 190 6 q 165 -47 179 -29 q 165 -49 165 -49 q 165 -51 164 -50 l 165 -53 q 160 -65 165 -60 l 157 -67 q 153 -69 156 -67 l 154 -71 q 149 -74 151 -74 q 143 -81 146 -81 q 142 -83 143 -82 q 139 -83 140 -85 l 139 -81 q 135 -87 139 -85 q 131 -90 132 -89 l 110 -104 l 107 -107 q 106 -108 106 -108 q 106 -107 106 -107 q 104 -108 106 -108 q 103 -108 103 -108 l 99 -110 q 96 -111 99 -111 l 85 -117 q 82 -117 83 -118 q 78 -122 79 -121 l 76 -122 q 56 -124 71 -126 l 43 -124 q 40 -122 43 -122 q 38 -121 39 -122 q 38 -118 38 -119 l 36 -115 l 33 -115 l 33 -108 q 36 -100 33 -101 z "},"-":{"ha":422,"x_min":38,"x_max":381,"o":"m 376 403 q 372 397 376 401 l 368 394 l 367 394 l 365 394 l 365 393 l 364 393 l 364 392 l 363 392 l 361 392 q 303 386 353 389 l 303 385 l 300 385 l 296 385 l 293 385 q 289 383 292 383 l 286 385 l 282 385 q 274 386 281 386 l 265 386 l 263 386 q 258 388 261 388 l 246 388 l 236 386 l 228 385 q 215 383 222 383 q 204 385 208 383 l 192 385 l 190 385 l 188 383 l 185 385 l 182 385 l 176 383 l 175 383 l 175 383 l 174 385 l 161 385 l 161 383 l 158 385 l 151 385 q 121 383 135 385 l 115 383 l 108 383 l 108 382 l 106 383 l 104 383 l 82 386 l 76 386 q 71 388 72 386 l 58 389 l 56 390 q 54 392 56 392 l 53 390 l 53 392 l 51 392 l 50 392 l 50 393 q 49 394 50 394 q 46 399 46 397 l 44 400 l 44 400 q 43 415 38 413 l 44 419 q 46 425 44 424 l 46 428 l 47 428 l 49 429 l 53 436 l 56 444 q 58 447 58 447 q 96 450 72 450 l 108 449 q 115 450 113 449 l 122 450 l 138 451 l 154 451 l 156 451 l 157 451 l 160 453 l 161 453 q 189 454 167 454 l 208 454 l 232 451 l 235 453 l 238 456 q 249 457 240 457 l 251 456 q 254 454 251 454 l 256 456 l 261 456 l 268 456 l 272 454 l 272 451 q 282 454 275 456 q 306 453 299 451 l 308 453 l 311 453 l 313 454 l 314 454 l 317 453 l 319 453 q 332 454 324 451 l 333 454 q 338 456 336 454 q 339 457 338 456 q 342 458 340 458 l 344 458 q 360 456 353 458 q 372 451 368 453 l 375 449 q 376 440 376 449 l 378 438 l 381 435 l 381 422 l 376 403 z "},".":{"ha":210,"x_min":33,"x_max":175,"o":"m 110 118 q 115 122 114 122 l 117 122 l 117 124 l 118 124 l 118 124 l 119 124 l 122 124 l 122 124 l 122 125 l 124 124 l 124 125 l 125 125 l 126 125 q 153 113 142 126 q 169 85 165 100 l 171 82 l 171 81 l 171 78 l 171 78 l 171 74 q 172 68 172 72 l 174 67 l 174 64 l 174 60 l 175 58 l 175 56 l 175 51 l 174 49 l 171 33 l 168 31 l 165 28 q 157 10 160 14 q 147 3 154 7 q 133 0 147 3 l 132 0 l 131 0 l 128 0 l 125 -1 l 124 -1 l 122 -1 l 117 -1 l 117 -3 l 117 -3 l 107 -3 q 100 -12 103 -11 q 96 -12 97 -12 l 93 -14 l 92 -14 l 90 -14 l 90 -15 l 90 -14 l 90 -14 l 90 -15 q 89 -14 89 -15 l 89 -14 q 69 0 82 -14 l 69 0 l 68 1 l 67 1 l 67 1 l 67 1 q 53 10 60 3 l 51 8 l 51 8 l 47 14 q 35 74 33 51 l 40 92 l 39 94 l 44 99 l 54 104 l 56 106 l 58 111 l 60 114 q 64 117 63 117 l 64 117 l 64 117 l 65 117 l 65 118 l 67 118 l 69 118 l 74 118 l 74 118 l 75 118 l 89 115 l 89 117 l 90 117 l 90 115 l 90 117 l 92 117 l 93 117 q 95 117 94 118 q 96 115 96 117 l 97 115 l 99 114 q 108 115 107 117 l 110 115 l 110 118 z "},"/":{"ha":501,"x_min":69,"x_max":435,"o":"m 72 40 q 69 49 69 43 q 70 67 69 63 q 71 71 71 71 l 72 74 q 74 78 74 75 l 72 78 q 74 82 72 81 q 75 86 75 83 l 74 86 q 75 90 74 89 q 76 94 76 92 q 131 274 83 126 l 131 278 l 133 288 l 138 299 q 142 317 138 300 l 150 336 l 168 383 l 174 396 q 183 426 175 400 q 194 469 193 458 q 211 531 200 497 l 232 597 q 235 611 235 606 q 242 624 238 619 q 244 639 244 635 l 246 643 q 250 650 246 646 l 260 683 l 258 683 l 264 693 l 296 799 q 303 816 300 806 q 307 832 306 826 l 307 836 q 313 846 310 843 l 336 908 l 343 925 l 349 942 l 356 958 l 364 975 q 368 985 367 983 q 370 988 369 985 q 371 992 371 990 l 372 992 l 372 990 q 375 999 375 993 l 378 1000 l 379 1000 l 383 1006 q 388 1008 386 1008 l 389 1010 l 390 1011 l 396 1011 q 411 1007 411 1011 l 414 1001 q 418 993 418 997 q 419 992 418 992 l 421 992 l 421 988 q 422 983 421 985 q 426 971 422 979 q 432 944 435 956 q 400 840 418 888 q 388 803 390 814 q 382 783 383 789 l 376 767 l 364 722 q 350 676 350 679 q 349 672 349 675 l 346 667 l 346 661 l 344 656 q 317 561 340 638 l 304 522 l 279 456 l 279 450 q 278 442 278 447 l 279 438 q 269 407 279 435 l 265 399 l 261 390 l 261 386 l 256 371 q 249 349 250 353 l 244 339 q 240 340 243 340 l 240 336 q 233 308 240 324 q 208 239 219 276 q 207 232 208 235 l 204 224 q 203 219 203 222 q 197 204 203 214 l 194 196 q 182 160 186 176 q 181 153 182 156 q 178 135 178 139 l 178 128 q 151 67 174 110 l 135 35 l 128 25 q 115 25 126 21 l 110 19 l 104 13 l 90 24 q 72 40 76 32 z "},":":{"ha":286,"x_min":69,"x_max":217,"o":"m 151 118 q 157 122 156 122 l 158 122 l 158 124 l 160 124 l 160 124 l 161 124 l 164 124 l 164 124 l 164 125 l 165 124 l 165 125 l 167 125 l 168 125 q 195 113 183 126 q 211 85 207 100 l 213 82 l 213 81 l 213 78 l 213 78 l 213 74 q 214 68 214 72 l 215 67 l 215 64 l 215 60 l 217 58 l 217 56 l 217 51 l 215 49 l 213 33 l 210 31 l 207 28 q 199 10 201 14 q 189 3 196 7 q 175 0 189 3 l 174 0 l 172 0 l 169 0 l 167 -1 l 165 -1 l 164 -1 l 158 -1 l 158 -3 l 158 -3 l 149 -3 q 142 -12 144 -11 q 138 -12 139 -12 l 135 -14 l 133 -14 l 132 -14 l 132 -15 l 132 -14 l 132 -14 l 132 -15 q 131 -14 131 -15 l 131 -14 q 111 0 124 -14 l 111 0 l 110 1 l 108 1 l 108 1 l 108 1 q 94 10 101 3 l 93 8 l 93 8 l 89 14 q 76 74 75 51 l 82 92 l 81 94 l 86 99 l 96 104 l 97 106 l 100 111 l 101 114 q 106 117 104 117 l 106 117 l 106 117 l 107 117 l 107 118 l 108 118 l 111 118 l 115 118 l 115 118 l 117 118 l 131 115 l 131 117 l 132 117 l 132 115 l 132 117 l 133 117 l 135 117 q 137 117 136 118 q 138 115 138 117 l 139 115 l 140 114 q 150 115 149 117 l 151 115 l 151 118 m 196 667 q 201 665 200 667 l 203 664 l 204 664 l 204 663 l 204 663 l 206 661 l 207 660 l 207 660 l 208 660 l 207 658 l 208 658 l 210 657 l 210 657 q 215 639 215 650 q 210 617 215 628 q 197 599 204 606 l 194 596 l 193 596 q 192 594 193 594 l 192 594 q 189 593 190 593 q 188 592 188 593 q 183 589 188 589 l 183 586 l 181 585 l 176 583 l 176 581 q 175 579 176 579 q 174 579 174 579 l 171 578 l 167 578 l 153 572 l 149 574 l 146 574 q 132 572 140 572 q 114 578 125 572 l 106 588 l 104 589 l 104 590 l 103 593 l 100 594 l 99 596 l 99 597 l 96 601 l 94 601 l 94 601 l 89 610 q 81 610 83 610 q 76 613 78 611 q 75 614 75 614 l 74 615 l 72 617 l 72 618 l 71 618 l 72 618 l 72 618 l 71 618 q 71 619 69 618 l 71 619 q 69 625 69 621 q 74 643 69 631 l 74 643 l 74 644 l 74 646 l 74 646 l 74 646 q 74 663 71 651 l 71 663 l 71 663 l 74 669 q 119 710 100 701 l 138 714 l 140 717 l 146 714 l 156 708 l 158 708 l 164 708 l 167 708 q 169 708 168 708 q 171 707 171 707 l 171 707 l 171 707 l 172 706 l 174 706 l 174 704 l 175 703 l 178 699 l 178 699 l 178 697 q 181 690 179 693 q 183 683 182 688 l 183 685 l 185 683 l 183 683 l 185 683 l 185 682 l 186 681 q 186 678 189 681 l 188 676 l 186 675 q 193 667 193 668 l 193 665 l 196 667 z "},";":{"ha":294,"x_min":68,"x_max":225,"o":"m 196 667 q 201 665 200 667 l 203 664 l 204 664 l 204 663 l 204 663 l 206 661 l 207 660 l 207 660 l 208 660 l 207 658 l 208 658 l 210 657 l 210 657 q 215 639 215 650 q 210 617 215 628 q 197 599 204 606 l 194 596 l 193 596 q 192 594 193 594 l 192 594 q 189 593 190 593 q 188 592 188 593 q 183 589 188 589 l 183 586 l 181 585 l 176 583 l 176 581 q 175 579 176 579 q 174 579 174 579 l 171 578 l 167 578 l 153 572 l 149 574 l 146 574 q 132 572 140 572 q 114 578 125 572 l 106 588 l 104 589 l 104 590 l 103 593 l 100 594 l 99 596 l 99 597 l 96 601 l 94 601 l 94 601 l 89 610 q 81 610 83 610 q 76 613 78 611 q 75 614 75 614 l 74 615 l 72 617 l 72 618 l 71 618 l 72 618 l 72 618 l 71 618 q 71 619 69 618 l 71 619 q 69 625 69 621 q 74 643 69 631 l 74 643 l 74 644 l 74 646 l 74 646 l 74 646 q 74 663 71 651 l 71 663 l 71 663 l 74 669 q 119 710 100 701 l 138 714 l 140 717 l 146 714 l 156 708 l 158 708 l 164 708 l 167 708 q 169 708 168 708 q 171 707 171 707 l 171 707 l 171 707 l 172 706 l 174 706 l 174 704 l 175 703 l 178 699 l 178 699 l 178 697 q 181 690 179 693 q 183 683 182 688 l 183 685 l 185 683 l 183 683 l 185 683 l 185 682 l 186 681 q 186 678 189 681 l 188 676 l 186 675 q 193 667 193 668 l 193 665 l 196 667 m 71 -92 q 72 -86 71 -86 l 75 -86 q 76 -85 75 -85 q 78 -83 78 -85 l 78 -82 l 79 -81 l 81 -82 q 93 -69 81 -81 q 110 -51 106 -57 l 110 -51 l 113 -46 l 113 -44 l 114 -42 l 117 -42 l 118 -39 l 121 -35 q 126 -28 125 -28 q 128 -26 128 -28 l 132 -10 l 133 -3 l 133 4 q 135 8 133 7 q 133 8 133 7 q 131 8 132 8 l 129 8 l 129 8 l 129 8 l 128 8 l 128 8 l 126 8 q 103 32 117 13 l 101 32 q 100 33 100 32 q 99 39 99 35 q 96 40 96 39 l 97 43 l 96 46 q 96 49 94 47 l 94 53 l 96 54 q 94 58 94 58 q 94 64 96 60 q 92 69 92 68 q 90 83 89 81 l 96 97 l 99 100 q 97 101 97 100 l 99 101 l 100 103 q 103 106 100 103 l 103 107 l 103 108 l 106 108 l 111 113 l 111 114 l 114 114 q 126 118 119 115 q 136 122 132 121 l 140 122 l 142 122 q 149 129 144 129 l 151 131 l 154 133 l 156 133 q 160 135 157 135 l 161 135 q 167 136 163 135 q 175 138 171 138 q 181 136 178 140 q 197 122 190 131 q 213 93 204 114 q 215 86 213 90 q 218 78 218 82 q 222 58 221 68 q 224 43 224 47 l 224 40 l 224 39 q 225 35 224 35 q 214 -17 225 14 q 200 -39 214 -21 q 199 -41 200 -40 q 200 -43 199 -42 l 200 -44 q 194 -57 200 -51 l 192 -58 q 188 -61 190 -58 l 189 -62 q 183 -65 186 -65 q 178 -72 181 -72 q 176 -75 178 -74 q 174 -75 175 -76 l 174 -72 q 170 -78 174 -76 q 165 -82 167 -81 l 144 -96 l 142 -99 q 140 -99 140 -100 q 140 -99 140 -99 q 139 -100 140 -100 q 138 -100 138 -100 q 135 -101 136 -101 q 133 -101 133 -100 q 131 -103 133 -103 q 119 -108 122 -106 q 117 -108 118 -110 q 113 -114 114 -112 l 111 -114 q 102 -115 108 -114 q 90 -115 96 -117 l 78 -115 q 75 -114 78 -114 q 73 -112 74 -114 q 72 -110 72 -111 l 71 -107 l 68 -107 l 68 -100 q 71 -92 68 -93 z "},"<":{"ha":540,"x_min":83,"x_max":447,"o":"m 378 247 l 371 246 q 369 246 369 244 l 369 247 q 368 246 368 247 l 367 244 l 365 246 l 365 246 l 364 244 q 363 246 363 244 l 361 246 l 343 251 q 333 256 340 251 q 328 259 331 258 q 325 261 326 260 q 315 267 319 264 q 307 272 310 271 l 304 272 q 301 275 304 272 q 293 279 300 276 q 288 285 289 281 l 286 288 q 279 294 283 292 q 272 301 274 297 l 269 306 q 265 308 267 308 q 255 317 263 313 q 243 324 247 322 q 233 330 240 325 q 217 339 226 335 q 194 358 199 357 q 190 360 193 360 q 186 365 186 360 l 183 367 l 178 372 l 176 372 q 176 374 175 372 q 175 375 176 375 q 169 380 172 378 q 164 385 167 382 l 163 383 l 161 383 l 160 388 q 125 415 156 393 q 121 419 124 415 q 115 422 118 422 l 114 422 l 113 424 l 113 425 q 99 442 103 435 q 96 444 99 442 q 94 449 94 446 l 93 451 l 90 456 l 90 460 l 89 461 l 90 461 q 87 466 89 464 q 83 469 85 468 q 85 476 83 474 l 86 482 l 86 482 l 88 483 l 88 483 l 89 485 l 89 486 l 89 486 l 90 488 q 121 515 100 500 q 136 529 126 519 l 136 531 l 142 533 q 146 540 142 536 q 150 542 149 540 l 153 543 q 168 553 164 551 l 174 556 q 178 557 176 556 q 185 567 181 561 q 193 574 190 572 l 200 581 q 219 599 210 593 l 228 606 l 231 608 q 232 610 231 608 q 235 611 233 611 l 238 613 l 242 617 l 243 617 l 244 617 l 244 618 q 257 626 253 622 l 256 626 l 260 629 q 296 654 263 629 l 304 660 q 308 661 308 660 l 308 663 l 311 664 l 314 665 q 340 678 329 671 l 356 683 q 363 686 358 683 q 376 690 372 690 l 378 690 l 379 690 l 381 690 l 382 690 q 383 692 382 692 l 385 690 l 386 690 l 394 690 l 394 689 q 404 683 399 688 q 410 678 410 679 q 411 675 410 678 l 413 669 l 413 669 l 414 668 l 413 665 l 413 665 l 415 660 l 417 651 l 417 646 q 397 632 413 642 l 385 622 q 372 615 375 618 q 363 606 372 615 l 336 583 l 335 583 l 333 582 l 332 581 l 332 578 l 321 568 q 294 546 311 558 q 271 531 289 540 q 269 528 269 531 l 269 525 l 263 515 l 258 515 q 253 514 254 515 l 254 513 q 247 510 251 510 q 242 504 242 504 q 236 503 239 501 l 233 504 q 233 499 235 501 q 228 496 232 497 l 225 494 q 217 490 222 493 q 207 485 213 488 l 208 483 l 217 479 l 224 475 q 239 465 228 471 q 256 451 247 457 l 258 451 q 264 449 258 449 l 265 447 l 282 438 q 315 411 293 428 q 331 394 325 403 l 336 388 l 339 388 l 343 388 l 347 388 q 360 379 354 385 q 360 376 363 379 q 361 372 358 375 l 364 372 q 367 371 365 372 q 371 368 369 369 q 378 358 378 358 l 374 357 q 386 351 385 360 q 388 350 388 351 q 407 333 397 339 l 408 332 l 411 331 l 414 331 q 417 326 417 331 l 417 324 q 428 318 419 321 q 433 317 428 317 l 438 317 l 440 317 q 447 306 447 317 q 446 297 447 299 q 443 294 443 294 l 433 286 q 428 279 433 285 l 417 271 q 386 251 400 258 l 378 247 z "},"=":{"ha":642,"x_min":83,"x_max":561,"o":"m 538 483 l 536 483 l 535 483 l 535 482 l 533 483 l 531 483 l 531 482 q 529 481 531 481 l 528 482 q 521 481 526 482 q 503 481 515 481 l 449 482 l 447 481 q 443 482 444 481 l 438 482 l 433 482 q 429 481 432 481 q 425 482 426 481 l 419 483 q 408 485 413 483 l 397 485 q 392 487 396 486 q 386 488 389 488 l 378 488 q 367 486 374 486 q 357 485 358 486 l 343 485 q 326 483 336 483 l 310 483 l 293 483 l 290 483 l 288 482 q 283 483 285 482 l 281 483 l 272 483 l 271 483 q 269 485 269 483 l 267 485 l 250 485 l 250 483 l 246 485 q 228 486 243 486 q 192 485 207 486 l 183 486 q 175 485 176 486 l 174 483 l 171 485 l 168 486 q 136 490 154 486 q 121 493 126 490 l 113 494 q 99 499 103 494 l 97 499 l 96 499 l 96 500 l 94 500 l 93 500 q 92 501 92 500 q 90 503 92 503 q 86 508 86 507 l 85 510 l 85 519 q 86 528 83 525 l 88 531 l 92 536 l 92 538 l 92 539 l 94 540 l 96 542 l 101 549 q 113 558 108 558 l 143 558 q 161 557 153 558 l 179 554 l 189 554 l 197 554 l 214 554 l 229 554 q 242 554 233 553 l 244 554 l 246 554 l 249 554 l 251 554 q 288 556 258 556 l 317 556 l 319 556 l 350 553 l 356 556 l 358 557 q 374 558 363 558 q 378 557 376 558 q 382 556 379 556 l 383 557 l 392 557 q 403 556 399 557 l 407 554 l 407 551 q 422 554 413 557 q 456 553 444 551 l 460 553 l 463 553 l 465 553 l 468 553 l 472 553 q 476 551 474 551 q 493 551 485 550 q 497 553 496 551 l 500 553 q 504 554 503 553 l 507 556 l 513 556 q 536 551 522 556 l 550 544 q 556 541 554 543 q 556 532 557 539 l 558 528 l 561 525 q 557 510 560 521 q 550 490 554 500 l 538 483 m 553 325 q 542 317 544 317 l 540 317 l 539 317 l 539 315 l 538 315 l 536 315 l 536 314 l 535 314 l 533 314 q 460 308 522 311 l 457 307 l 453 307 l 449 307 l 444 307 q 440 306 443 306 q 436 307 438 306 l 432 307 q 421 308 425 307 l 411 308 q 406 310 407 308 l 400 310 l 392 310 l 372 307 l 344 304 l 329 304 l 314 304 l 311 304 l 308 303 l 306 304 l 303 304 q 294 303 297 304 l 293 303 q 292 304 292 303 l 290 304 l 275 304 l 275 303 l 271 304 l 222 301 l 214 301 q 207 300 208 301 l 206 299 l 203 299 l 201 300 q 174 301 185 300 l 165 301 l 158 301 q 151 303 154 301 l 144 303 q 139 304 140 303 l 138 304 l 136 304 l 136 306 l 135 304 q 133 306 133 304 l 133 307 l 132 307 q 126 311 126 308 l 125 311 q 122 328 118 326 l 124 332 l 126 338 l 126 338 l 126 340 l 128 342 q 129 343 129 342 q 133 350 132 346 q 137 356 135 351 q 142 361 139 361 q 188 367 151 367 l 204 367 q 214 368 210 367 l 221 368 q 231 369 225 369 q 243 371 238 369 q 263 372 260 371 l 265 372 l 268 372 l 271 374 l 272 374 l 335 376 l 365 375 q 369 376 368 375 q 374 378 371 378 q 388 379 379 381 l 390 378 q 394 378 393 376 l 396 378 l 404 379 q 413 378 411 379 l 418 376 l 418 375 q 432 376 422 379 l 447 375 l 463 376 l 464 376 l 468 376 l 471 378 l 472 378 l 476 378 q 481 376 478 376 l 485 376 q 496 378 492 376 l 499 378 l 506 381 l 508 382 l 514 383 q 533 379 521 383 q 547 375 544 378 l 551 372 q 553 364 553 372 q 556 360 553 363 l 558 358 q 557 349 557 356 q 553 325 557 332 z "},"?":{"ha":642,"x_min":68,"x_max":572,"o":"m 242 201 q 238 204 239 203 q 238 206 238 206 l 235 207 l 235 208 l 233 208 l 232 210 l 232 213 l 232 213 l 231 211 q 229 214 229 211 l 228 215 q 219 249 219 231 q 235 301 219 271 l 235 304 l 238 307 q 239 311 238 310 l 242 315 q 250 322 242 317 l 251 325 q 269 340 264 338 q 273 344 269 342 q 279 347 276 346 q 289 357 282 347 q 300 367 297 365 q 314 379 307 372 q 322 386 321 386 q 335 399 329 390 l 347 408 l 351 411 l 354 414 l 363 418 q 368 425 363 419 l 369 426 l 371 426 l 372 426 q 379 433 376 429 q 385 439 382 436 l 383 440 l 389 443 q 425 486 406 457 q 429 490 425 486 q 429 506 426 497 l 432 518 q 435 522 432 519 l 436 525 l 435 525 l 436 528 l 436 531 l 436 532 l 436 535 q 439 539 439 538 q 447 585 439 550 q 463 689 458 639 l 460 692 q 461 701 460 697 q 460 710 461 707 l 458 724 q 458 733 456 726 l 458 743 q 457 764 458 753 q 454 786 456 775 l 450 810 q 428 856 442 832 q 399 892 414 879 q 350 917 383 906 l 347 917 q 340 918 343 917 l 333 918 l 329 918 q 313 917 319 918 q 310 917 311 915 l 306 917 q 294 913 301 915 q 279 907 288 911 l 279 906 l 269 903 q 201 839 224 876 q 189 813 190 818 l 189 808 q 188 804 189 806 q 185 803 185 804 q 174 753 174 763 l 172 725 q 174 704 172 714 q 172 685 174 685 l 174 682 l 174 678 l 174 678 q 174 674 172 676 l 174 671 l 174 668 l 172 665 q 172 657 171 664 q 169 651 172 651 q 168 649 168 651 l 168 647 q 158 636 167 643 q 146 632 149 629 l 139 633 q 133 635 138 633 q 128 639 129 636 q 126 639 128 640 l 124 638 q 119 642 122 638 q 114 644 117 644 l 100 654 q 74 682 76 669 q 68 729 68 704 q 81 792 68 761 q 124 861 94 824 q 154 893 133 875 q 242 944 182 917 l 253 949 l 263 953 q 372 969 321 969 q 410 967 385 969 q 485 932 442 961 q 497 926 489 928 q 503 923 501 924 q 506 921 506 922 q 536 888 525 907 q 542 875 542 882 q 546 864 542 868 l 550 861 q 559 836 553 854 q 567 806 565 818 l 567 793 q 563 793 565 796 q 572 756 572 783 q 571 706 572 726 q 569 674 569 686 l 568 665 q 567 657 567 663 l 567 651 q 567 649 567 650 q 567 646 568 647 l 565 636 l 561 626 q 550 590 554 610 q 549 582 550 585 q 546 565 546 568 l 546 558 q 513 500 539 540 q 488 472 493 474 q 481 464 488 471 q 479 463 481 463 l 479 463 q 463 446 463 446 q 425 408 463 446 q 424 407 425 407 l 421 407 q 415 403 417 403 q 388 376 411 394 q 363 354 372 364 q 354 349 358 351 q 346 343 350 347 l 333 333 q 331 328 332 333 l 329 328 q 322 317 325 319 l 319 315 q 315 314 317 315 l 315 311 l 307 299 l 304 297 l 304 297 l 303 299 q 300 288 304 294 q 296 269 294 276 l 296 268 l 296 267 l 297 265 l 297 264 l 297 263 l 297 260 q 297 257 296 258 q 300 256 299 256 l 300 254 q 301 253 300 253 l 304 251 l 307 250 l 308 247 l 304 240 q 303 229 304 233 q 300 226 300 226 q 297 224 300 225 q 290 221 294 224 l 289 217 l 288 213 l 278 207 q 251 199 264 199 l 242 201 m 285 117 q 289 121 285 119 l 290 121 l 290 122 l 292 122 l 292 122 l 293 122 l 296 122 l 296 122 l 296 124 l 297 122 l 297 124 l 299 124 l 300 124 q 324 112 314 125 q 339 83 335 99 l 340 81 l 340 79 l 340 76 l 340 76 q 340 74 340 75 q 340 72 339 74 q 342 67 342 71 l 343 65 l 343 63 l 343 58 l 344 57 q 345 55 346 56 q 344 54 344 54 l 344 50 l 343 47 l 340 32 l 338 29 l 335 26 q 328 9 331 13 q 318 1 325 6 q 306 -1 317 1 l 304 -1 l 303 -1 l 300 -1 l 299 -3 l 297 -3 l 296 -3 l 290 -3 l 290 -4 l 290 -4 l 282 -4 q 275 -13 278 -12 q 271 -14 272 -14 l 269 -15 l 268 -15 l 267 -15 l 267 -17 l 267 -15 l 267 -15 l 267 -17 q 265 -15 265 -17 l 265 -15 q 247 -1 257 -15 l 247 -1 l 246 0 l 244 0 l 244 0 l 244 0 q 232 8 239 1 l 231 7 l 231 7 l 226 13 q 215 72 214 51 l 221 90 l 219 93 l 224 97 l 233 103 l 235 104 l 238 110 l 238 113 q 242 115 240 115 l 242 115 l 242 115 l 243 115 l 243 117 l 244 117 l 247 117 l 251 117 l 251 117 l 253 117 l 265 114 l 265 115 l 267 115 l 267 114 l 267 115 l 268 115 l 269 115 q 270 116 269 117 q 271 114 271 115 l 272 114 l 274 113 q 283 114 282 115 l 285 114 l 285 117 z "},"@":{"ha":824,"x_min":68,"x_max":754,"o":"m 626 -26 q 575 -60 608 -43 l 558 -67 q 549 -71 556 -69 q 539 -76 543 -72 q 535 -78 536 -76 l 526 -81 q 519 -83 521 -82 q 503 -89 519 -83 q 369 -114 428 -114 q 256 -86 308 -114 q 147 4 203 -58 l 140 10 q 115 53 128 28 q 100 89 101 78 q 85 135 88 118 q 69 250 71 201 q 71 308 68 265 q 99 471 76 401 q 164 599 122 540 q 290 713 207 658 q 357 744 322 732 q 403 760 386 754 q 431 769 421 767 q 444 771 438 769 q 456 774 450 772 q 513 778 485 778 q 560 775 526 778 l 588 769 q 690 658 646 733 q 749 515 735 582 q 749 481 749 508 q 753 417 749 454 l 754 408 q 753 395 754 403 q 750 378 751 388 l 744 342 q 730 269 736 292 q 708 215 724 246 q 668 157 690 178 q 635 137 656 147 q 601 122 614 126 l 596 121 q 592 120 594 119 q 590 121 590 121 l 590 121 l 583 122 q 578 122 579 121 l 575 122 l 572 124 q 567 126 569 126 l 558 131 q 558 132 558 132 q 557 132 557 132 q 556 136 557 135 l 553 136 q 556 149 550 139 l 557 149 q 551 154 554 150 q 546 158 549 158 l 543 158 q 542 161 542 158 q 540 165 542 163 q 536 167 539 167 q 533 168 533 167 l 532 171 l 532 175 q 524 189 526 188 l 522 194 l 522 197 q 521 203 522 200 q 518 210 519 206 q 513 217 513 215 q 508 224 511 221 q 497 200 504 215 q 482 174 489 185 l 482 171 l 467 153 q 438 125 453 133 q 394 107 413 110 l 374 101 q 295 138 324 97 q 267 236 267 178 q 268 282 267 265 q 269 289 269 283 l 269 293 q 274 307 269 299 q 275 313 276 311 q 278 327 276 319 q 281 338 279 335 q 282 341 281 339 q 285 343 283 343 q 300 381 296 371 l 299 379 l 304 390 q 381 474 351 456 l 408 486 l 411 488 l 419 489 q 457 493 440 493 q 518 469 497 493 q 547 421 547 433 q 550 417 547 419 l 553 411 l 551 411 q 553 407 551 408 l 556 401 l 556 401 q 564 397 563 401 q 569 382 567 392 q 571 363 571 372 l 571 350 l 572 343 l 574 338 l 576 328 l 579 315 l 581 308 l 581 307 l 581 306 q 582 304 581 304 l 583 303 q 589 282 583 294 q 594 265 590 269 l 596 244 l 597 243 q 599 244 599 243 q 601 243 600 244 q 606 236 606 239 q 606 233 606 233 q 604 232 604 232 l 606 231 q 608 226 606 228 l 608 222 q 609 220 610 221 q 608 219 608 219 l 607 219 q 611 215 611 219 l 610 214 q 617 200 613 204 l 617 199 l 618 197 l 619 197 l 622 196 l 621 193 q 625 188 621 190 l 626 188 l 629 188 q 638 212 632 196 q 647 243 644 228 q 671 417 671 353 q 626 640 671 561 q 578 707 597 688 q 544 729 569 717 q 483 738 513 738 q 347 701 413 738 q 240 607 281 665 q 174 475 197 540 l 168 436 l 160 367 l 156 350 q 153 331 153 342 l 156 321 q 158 240 154 294 q 160 221 160 235 l 161 218 l 156 222 q 157 218 153 222 q 168 183 163 208 q 175 154 174 157 q 228 36 197 81 q 236 26 232 31 q 243 15 240 21 q 249 10 249 10 l 254 3 q 257 0 256 3 q 263 -6 258 -3 l 274 -18 q 319 -53 296 -42 q 367 -67 346 -65 q 407 -68 382 -68 q 471 -62 446 -68 q 536 -40 496 -56 l 571 -28 q 600 -14 575 -26 q 611 -12 607 -11 l 614 -11 q 623 -6 618 -8 q 631 -1 628 -3 q 639 1 635 -1 q 650 10 646 4 l 642 -6 q 626 -26 631 -24 m 483 397 q 476 401 481 399 q 471 407 472 404 q 450 442 456 431 q 429 457 440 457 q 406 439 418 457 q 386 410 394 426 q 369 375 378 393 l 368 372 l 367 368 l 365 360 q 365 357 365 357 q 356 271 356 310 q 358 233 356 256 q 374 176 367 192 q 381 168 374 172 l 382 168 q 383 157 386 161 q 381 151 382 154 q 379 147 381 149 l 379 146 q 381 140 379 143 q 388 139 383 138 l 393 143 l 393 139 q 404 156 393 140 q 433 208 426 194 q 437 214 433 210 q 440 221 440 218 q 442 225 440 222 q 443 232 443 228 q 447 239 444 232 l 451 247 q 457 265 454 254 q 463 283 460 276 q 467 299 467 299 q 465 314 467 314 q 474 357 468 339 q 476 369 476 369 q 479 379 479 375 l 479 389 l 483 397 z "},"A":{"ha":613,"x_min":56,"x_max":560,"o":"m 497 0 l 493 3 l 493 4 l 493 7 l 492 7 l 492 6 q 490 7 490 6 l 490 10 l 489 8 l 489 11 l 488 13 q 456 132 478 36 l 453 135 q 451 144 451 136 l 449 154 q 446 171 446 163 q 442 192 442 183 q 436 219 436 219 q 431 243 436 222 l 428 269 q 417 310 426 278 q 411 331 418 306 q 388 329 406 329 l 386 329 q 382 329 385 328 l 378 329 l 375 329 q 371 328 374 328 l 368 329 l 364 329 q 354 331 358 329 l 346 331 q 340 332 342 331 l 335 332 l 322 332 l 313 331 l 301 331 l 288 329 l 274 329 l 260 329 l 257 329 l 256 328 l 253 329 l 250 329 q 243 328 246 329 l 242 328 l 240 328 l 239 329 l 226 329 l 226 328 l 222 329 l 207 329 l 207 325 q 206 317 206 322 l 206 314 l 203 310 l 201 307 l 194 275 l 196 275 l 196 274 l 192 265 q 168 165 183 236 l 165 150 l 161 136 l 161 132 q 158 124 161 126 l 142 71 l 139 58 q 135 46 138 49 q 129 33 131 36 q 121 11 121 11 l 121 8 q 119 7 121 7 l 118 7 l 117 6 l 117 3 q 113 0 117 0 l 110 -3 q 106 -6 107 -6 l 106 -7 l 104 -8 q 85 -4 85 -8 l 81 0 q 75 6 81 0 q 74 7 75 7 q 72 8 72 7 l 72 11 l 71 14 q 58 35 64 21 q 56 43 56 40 q 74 131 58 78 q 79 147 76 139 q 83 161 82 154 l 86 178 l 89 194 q 100 235 94 210 q 108 278 106 260 l 110 283 q 111 288 111 285 q 113 293 111 292 l 113 297 l 119 329 q 110 332 110 329 l 108 331 l 107 331 l 107 331 q 106 332 107 332 l 104 332 l 103 333 l 100 336 l 99 338 q 97 349 93 347 q 98 353 97 350 q 100 356 99 356 q 101 357 101 356 q 100 358 100 357 l 101 358 l 103 360 l 106 365 q 113 374 111 374 q 128 375 117 375 q 142 433 136 411 q 161 501 147 454 l 161 508 l 161 517 l 161 521 q 168 554 161 531 q 172 564 171 563 q 175 572 172 564 l 175 576 l 179 594 q 181 607 179 600 q 183 617 183 614 l 188 628 q 192 626 189 626 l 192 632 q 196 663 192 642 q 214 740 210 711 l 218 756 l 218 761 q 221 778 218 768 l 224 788 q 232 828 229 806 l 233 836 l 233 844 q 233 854 235 849 q 233 863 232 861 q 251 932 236 890 q 263 968 260 961 q 269 979 269 978 q 281 981 271 983 l 279 983 l 281 985 l 282 988 l 285 997 l 285 999 l 286 1000 q 294 1003 289 1001 q 303 1006 300 1006 q 314 999 311 1006 l 315 1000 q 319 997 317 1000 l 321 994 l 331 988 q 347 969 342 978 q 371 861 367 893 q 379 818 375 833 l 385 794 l 390 774 q 401 717 394 751 q 414 660 408 683 l 417 654 q 419 640 417 649 l 422 635 l 446 536 q 463 461 456 481 q 467 436 464 456 q 476 375 469 417 l 481 369 l 485 360 l 485 356 q 494 319 490 346 q 496 310 496 315 q 496 299 493 306 l 499 296 l 503 278 l 507 254 l 508 242 l 506 242 q 515 210 511 236 q 529 143 522 167 q 530 137 529 140 q 532 132 531 133 q 533 128 532 129 q 536 115 536 122 q 538 108 536 110 q 543 82 540 92 q 544 77 543 81 q 547 72 546 74 q 550 68 547 71 q 553 64 553 65 q 557 29 560 53 q 556 14 557 15 q 554 10 554 13 q 544 6 554 7 l 543 3 l 540 0 l 526 -3 q 504 -4 511 -6 l 497 0 m 390 407 l 381 439 q 365 517 381 444 q 363 525 365 517 q 361 528 361 526 q 360 531 361 531 q 358 542 358 535 q 357 547 358 546 l 353 565 l 351 576 l 351 578 l 343 618 l 343 617 l 342 617 l 340 629 q 314 750 335 664 l 310 774 l 294 703 l 294 699 q 290 678 294 694 q 291 674 290 676 q 290 669 292 672 q 289 660 289 665 q 285 647 288 653 q 281 639 282 642 q 269 592 274 601 l 263 569 q 256 535 261 565 q 251 508 254 513 q 246 483 250 507 q 232 418 239 449 l 229 406 l 229 406 l 231 406 l 233 407 l 235 407 l 282 408 l 307 406 l 313 408 l 313 408 q 324 410 315 410 l 326 410 q 331 408 328 408 l 332 408 l 336 408 l 344 408 l 347 407 l 347 406 q 357 407 350 408 l 369 406 l 382 407 l 385 407 l 388 407 l 389 407 l 390 407 z "},"B":{"ha":582,"x_min":97,"x_max":531,"o":"m 353 525 q 401 508 376 519 q 439 486 426 496 q 496 411 467 463 l 499 406 l 500 401 l 504 396 q 506 392 506 394 q 526 244 531 319 q 508 172 524 217 l 508 167 l 507 158 l 507 154 q 494 122 504 139 q 489 115 494 121 q 482 108 482 108 l 482 104 q 457 72 465 81 l 449 65 l 447 67 q 425 44 446 58 q 364 11 394 25 q 360 10 363 10 q 357 8 358 10 q 347 4 354 8 q 340 3 346 3 l 324 -1 q 286 -7 297 -7 l 271 -10 q 254 -12 263 -10 q 185 -3 221 -12 q 136 15 150 7 l 122 24 q 121 31 119 25 l 113 38 l 110 40 l 106 43 l 103 44 q 114 51 104 44 q 101 178 104 74 l 99 181 l 99 190 l 99 200 l 99 208 q 97 218 97 213 q 99 228 97 224 l 99 239 l 101 290 l 103 303 q 104 317 104 308 q 103 356 104 338 l 101 388 l 100 419 q 99 463 99 438 q 100 507 99 488 l 100 546 l 100 554 q 99 563 99 557 q 100 572 99 568 l 100 579 l 100 590 l 100 600 q 99 604 99 601 q 100 610 99 608 l 100 613 q 101 653 101 628 l 100 653 l 99 653 l 101 665 q 100 789 103 682 l 100 808 l 100 824 l 97 826 q 99 833 97 831 l 99 838 q 101 897 99 850 l 101 911 q 103 925 101 922 l 103 936 q 106 957 103 949 q 107 958 107 957 l 106 961 l 107 961 l 108 961 l 107 964 l 107 965 l 110 967 q 111 968 111 967 q 115 975 115 975 l 118 975 l 118 976 q 130 979 122 978 q 142 981 138 981 l 147 979 l 156 975 l 157 975 l 160 975 l 161 974 l 164 975 q 233 986 201 986 q 296 979 257 986 q 328 971 318 975 q 396 922 358 956 l 399 918 l 401 915 q 410 908 403 915 q 463 792 447 858 q 465 760 465 778 l 464 726 q 467 714 464 722 l 468 710 l 468 701 q 465 679 468 696 q 464 676 464 678 q 463 672 464 674 l 458 664 l 460 661 l 447 628 l 442 619 l 439 621 l 439 617 q 428 594 439 606 q 386 547 407 568 l 382 543 l 378 540 q 369 533 372 535 l 356 526 l 353 525 m 224 490 q 219 492 222 492 q 210 493 215 493 q 206 499 206 493 q 201 500 206 500 l 201 486 q 196 403 201 471 l 200 388 l 201 383 q 203 347 204 364 q 201 338 203 339 q 199 328 199 332 l 201 324 q 200 306 200 319 l 200 282 l 199 271 l 194 271 q 199 249 199 265 q 198 217 199 236 q 199 172 197 197 l 199 165 q 199 160 197 161 l 200 151 l 200 144 l 199 136 l 199 129 q 201 110 199 121 q 203 106 201 107 q 207 94 203 100 l 208 92 q 210 79 210 89 q 207 58 210 67 q 203 46 206 49 q 200 43 200 43 q 264 38 232 38 q 349 54 314 38 l 351 57 q 363 67 363 65 q 369 72 365 68 q 372 76 372 75 q 382 88 372 78 q 401 118 389 96 l 410 135 q 425 233 424 167 q 426 265 426 246 q 425 290 426 283 q 424 296 425 294 q 422 308 421 304 l 422 313 q 421 321 422 318 l 418 329 l 419 332 l 418 335 q 413 360 415 351 l 411 360 l 410 368 q 378 436 403 399 l 365 453 l 363 454 l 360 458 l 360 460 q 322 485 339 479 q 275 488 310 490 l 258 486 l 256 486 l 251 483 l 251 485 l 249 483 l 246 483 q 244 483 244 482 l 242 483 l 231 481 q 229 481 231 482 l 228 481 q 222 484 225 481 q 221 489 219 488 l 224 490 m 207 522 q 221 525 213 525 l 229 526 l 233 526 l 236 526 l 239 526 q 242 528 242 526 l 244 528 l 247 528 q 342 593 310 549 l 342 596 l 344 601 q 349 614 346 604 q 353 624 349 615 l 356 629 l 364 658 l 367 665 l 368 674 q 369 693 369 679 q 363 758 369 707 q 353 806 354 803 q 351 810 353 808 q 349 819 349 815 l 349 822 q 347 826 347 824 q 346 829 347 828 l 343 833 l 342 835 l 342 838 l 342 840 l 333 860 l 332 860 l 331 865 q 290 918 314 897 q 274 931 281 928 l 271 932 q 268 933 269 932 q 267 936 267 935 q 218 949 233 949 q 197 946 211 949 q 192 944 193 946 q 196 876 196 903 q 195 840 196 853 q 194 822 194 828 q 196 801 194 810 l 197 782 l 197 729 q 199 676 197 686 l 199 671 l 199 665 q 200 658 199 660 l 200 653 q 201 518 201 632 l 207 522 z "},"C":{"ha":576,"x_min":69,"x_max":531,"o":"m 531 158 q 519 121 531 136 l 511 110 q 501 99 511 108 q 503 97 503 99 q 498 93 500 96 q 494 88 496 90 l 496 86 l 486 76 q 398 22 449 42 q 293 3 347 3 q 242 8 275 3 l 236 10 q 205 31 222 18 q 179 54 188 44 q 156 90 169 67 q 133 126 149 101 q 110 168 117 150 l 99 213 q 76 338 82 288 q 69 440 69 389 q 75 563 69 478 q 76 575 76 567 q 75 585 75 579 q 76 597 75 590 q 79 607 78 604 l 79 622 l 79 635 l 79 640 q 81 647 79 646 q 82 651 82 649 q 88 711 82 672 l 86 711 l 90 728 q 158 869 111 794 q 186 919 178 901 q 229 956 190 928 l 232 960 l 247 967 q 354 989 304 989 q 401 982 381 989 q 446 960 421 975 q 475 935 471 943 l 482 929 q 486 922 486 924 l 485 921 q 490 914 488 918 q 494 908 493 910 q 496 904 494 906 l 496 901 l 500 890 q 502 885 501 886 q 504 881 503 883 l 504 876 q 506 872 504 874 l 507 868 q 499 857 507 864 q 490 853 492 850 q 471 868 475 860 q 469 868 471 869 q 468 868 468 867 q 464 872 467 868 l 458 878 l 438 892 q 415 908 422 901 q 331 950 369 950 q 253 910 293 950 q 229 867 244 903 q 186 725 192 779 l 185 711 l 185 703 l 185 696 q 174 474 176 563 q 172 358 172 436 q 176 342 172 358 l 179 333 l 181 331 q 189 279 186 308 q 189 267 192 271 q 190 253 188 263 l 193 249 q 207 194 193 246 l 211 179 q 206 182 208 185 q 207 178 206 179 q 222 150 217 169 q 228 138 226 139 q 278 60 251 86 q 292 47 286 49 l 297 44 l 301 42 q 319 35 318 35 q 338 33 325 33 q 358 36 353 33 q 388 57 368 40 q 447 117 435 100 l 465 143 l 476 160 l 488 178 q 491 182 489 182 q 496 179 493 182 l 499 178 l 506 190 l 514 199 q 514 200 515 200 q 529 172 525 186 q 531 158 531 167 m 514 201 l 514 200 l 514 201 z "},"D":{"ha":640,"x_min":97,"x_max":571,"o":"m 125 19 q 117 28 121 21 q 113 40 114 36 l 113 43 l 113 46 l 111 46 q 111 49 108 46 l 111 53 l 110 53 q 108 53 108 51 l 110 56 l 108 58 q 100 200 103 86 l 99 203 l 99 213 l 99 221 l 99 229 q 97 236 97 232 l 100 253 q 101 275 100 267 l 101 294 q 103 304 101 300 q 104 315 104 308 q 103 346 104 332 l 101 369 l 97 424 q 99 457 97 443 l 99 486 l 99 494 q 97 500 97 496 q 99 507 97 504 l 99 513 l 99 521 l 99 528 q 97 532 97 529 l 99 535 l 99 538 q 100 571 100 550 l 99 571 l 97 571 l 100 581 q 101 618 101 588 q 100 690 101 661 l 101 710 q 100 726 101 724 l 99 729 q 100 736 99 733 l 100 740 l 106 810 q 108 849 106 835 q 111 867 108 847 q 113 888 111 882 q 115 899 115 899 l 115 903 l 115 907 l 117 907 q 118 911 118 907 q 119 917 117 914 l 121 918 q 122 922 122 919 q 124 925 122 924 q 126 931 124 928 q 129 935 129 931 q 142 938 133 936 q 153 936 151 939 q 158 932 153 933 q 165 924 163 931 l 167 924 q 171 919 169 924 q 172 915 171 917 q 182 904 174 913 q 197 878 196 886 q 199 806 199 868 q 197 761 199 779 q 196 721 196 743 l 196 701 l 196 682 q 197 632 197 675 l 196 601 q 197 594 196 596 q 197 590 197 592 l 197 586 l 197 581 q 199 575 197 576 l 199 569 q 200 497 200 554 l 200 442 l 196 381 l 200 369 l 201 365 q 203 339 204 351 q 201 332 203 333 q 199 324 199 329 l 201 321 l 201 307 q 200 288 201 293 l 199 279 l 194 279 q 199 263 199 275 q 197 228 199 249 q 197 194 196 208 l 197 189 l 197 182 l 199 179 l 199 174 l 199 167 l 197 160 l 197 151 q 199 131 197 138 l 199 125 q 203 111 199 119 q 206 107 206 107 q 200 57 207 97 q 194 31 196 32 q 196 26 190 26 q 200 25 197 25 l 200 26 l 206 26 q 210 25 207 25 l 210 26 l 213 26 l 218 26 q 305 63 260 35 q 379 129 350 92 l 381 133 l 394 156 q 399 167 396 161 q 403 175 401 172 l 410 186 l 415 200 q 440 261 431 232 q 451 294 440 261 q 468 483 468 369 q 463 590 465 554 q 458 610 458 607 q 457 622 457 614 l 457 632 q 449 661 456 635 l 449 667 l 449 671 l 436 718 l 435 718 l 432 732 q 371 856 408 801 q 346 886 356 876 l 343 888 l 339 893 q 336 896 336 896 q 283 934 304 924 q 231 950 263 944 q 200 951 229 951 l 169 953 l 164 951 l 161 950 l 161 951 q 157 950 158 951 l 153 949 l 150 949 l 147 949 l 139 944 l 136 944 l 133 944 l 132 943 q 125 947 129 943 q 124 951 121 950 l 126 956 q 133 964 128 958 l 133 964 q 143 969 133 965 q 190 989 175 986 q 222 990 201 990 q 397 938 317 990 q 440 901 426 918 q 517 779 476 858 l 521 771 q 524 764 524 765 l 528 756 q 529 752 529 754 q 531 749 529 750 q 558 632 546 700 q 571 517 569 564 q 560 397 571 483 q 558 388 558 394 q 560 374 558 378 l 560 367 q 550 314 557 338 q 544 301 550 311 q 539 288 540 292 l 539 281 l 518 222 q 511 208 515 214 l 510 207 q 508 213 510 211 l 507 208 q 488 163 507 193 q 424 79 451 111 l 415 72 l 406 63 q 399 56 403 58 l 378 42 q 336 18 347 22 l 318 10 l 310 6 l 301 1 q 218 -12 261 -12 q 172 -8 188 -12 l 156 -6 q 153 1 151 -3 q 148 4 151 3 q 142 6 144 6 l 139 7 q 135 8 138 8 l 132 10 l 138 14 q 125 19 129 17 z "},"E":{"ha":519,"x_min":97,"x_max":464,"o":"m 403 490 q 400 486 403 489 l 397 483 l 397 483 l 396 483 l 396 482 l 394 482 l 394 482 q 393 481 394 481 l 392 482 q 350 475 382 476 l 350 474 l 347 474 l 344 474 l 342 474 l 340 474 l 338 474 l 335 474 q 329 475 331 474 l 324 475 l 319 475 l 318 476 l 310 475 l 304 474 l 297 474 q 288 472 293 472 l 279 472 l 272 472 l 271 472 l 269 471 l 267 472 l 265 472 l 261 472 l 260 472 l 258 472 l 250 472 l 247 474 l 221 474 l 217 474 l 213 474 l 211 472 l 211 472 l 208 474 q 201 475 204 474 l 201 469 q 197 403 204 465 l 200 389 l 201 386 q 203 356 204 371 q 201 349 203 350 q 199 340 199 346 l 201 336 l 201 321 q 200 301 200 314 l 199 292 l 194 292 q 199 276 199 288 l 197 244 q 196 200 194 214 l 196 193 l 196 188 q 197 183 196 185 l 197 178 l 197 171 l 196 163 l 196 154 q 197 132 196 139 q 199 126 197 128 l 199 119 l 201 113 l 204 107 q 200 56 206 93 q 199 54 199 56 l 204 54 l 208 54 l 224 54 l 239 54 l 242 54 l 243 54 l 244 54 l 246 54 q 268 56 249 56 l 289 54 l 308 51 l 311 53 l 314 54 q 324 56 315 56 l 326 54 q 328 53 326 53 l 329 54 l 335 54 l 340 54 l 343 53 l 343 50 q 351 53 346 54 q 372 51 365 50 l 374 51 l 376 51 l 378 53 l 379 53 l 382 53 l 385 51 q 394 53 388 50 l 397 53 l 400 54 l 401 56 l 403 56 l 406 56 q 421 53 413 56 q 432 50 429 51 l 435 49 q 436 40 436 47 l 439 39 l 440 36 q 439 28 439 35 q 436 10 439 21 q 433 6 436 8 l 428 1 l 428 1 l 426 1 l 425 1 l 424 1 l 424 0 l 424 0 l 421 0 q 369 -6 413 -3 l 368 -7 l 367 -6 l 363 -6 l 360 -6 l 357 -7 l 354 -6 l 351 -6 q 344 -4 347 -6 l 338 -4 l 335 -3 l 331 -3 l 319 -3 l 313 -4 l 304 -4 q 293 -6 300 -6 l 282 -6 l 272 -6 l 271 -6 l 268 -6 l 265 -6 l 264 -6 q 258 -6 261 -3 l 257 -6 l 256 -4 l 244 -4 l 244 -6 l 242 -4 q 204 -3 238 -3 l 199 -3 l 192 -3 l 190 -4 l 189 -3 l 188 -3 l 163 1 l 157 3 l 150 3 l 136 6 q 132 7 132 6 l 131 7 l 129 7 l 129 8 l 128 8 l 126 8 q 125 10 125 8 l 125 11 q 121 15 121 14 l 119 15 q 118 25 118 17 q 115 32 118 26 q 111 39 114 36 l 111 42 l 111 44 l 110 44 l 110 47 l 110 50 l 108 50 q 108 53 106 50 l 108 57 q 100 207 103 89 l 97 210 q 99 219 97 215 l 99 229 l 99 238 q 97 246 97 240 q 99 256 97 251 l 99 264 l 101 308 q 103 321 101 315 q 104 332 104 325 q 103 365 104 350 l 101 392 l 101 417 q 100 451 100 432 q 101 488 100 472 l 101 518 l 101 526 q 100 532 100 528 q 101 540 100 538 l 101 546 l 101 556 l 101 563 q 100 567 100 564 q 101 571 100 569 l 101 574 q 103 608 103 586 l 101 608 l 103 618 q 104 683 104 629 l 104 731 l 104 750 l 104 767 l 103 771 q 104 778 103 775 l 104 782 l 110 850 q 113 886 110 872 q 114 903 113 896 l 117 922 q 118 933 117 932 q 115 938 115 936 l 114 938 q 114 953 111 950 l 115 956 l 118 960 l 118 961 l 119 961 l 121 964 q 128 975 126 969 q 131 978 131 978 l 151 978 q 165 976 160 978 q 178 975 171 975 q 185 976 182 975 l 190 976 l 208 975 l 222 975 l 225 975 l 226 975 l 228 975 l 229 976 l 256 976 l 279 976 l 303 974 q 307 975 306 974 l 310 976 q 321 978 313 978 q 325 976 324 978 q 328 975 325 975 l 329 976 l 335 976 l 343 976 l 346 975 l 346 974 q 357 975 349 976 l 369 974 l 383 975 l 386 975 l 389 975 l 390 975 l 392 975 l 396 975 l 399 975 q 411 975 404 974 l 414 975 l 417 976 l 419 978 l 421 979 l 424 979 q 441 977 432 979 q 454 974 450 975 l 457 972 q 458 965 458 972 l 461 964 l 464 961 q 463 950 463 960 l 460 935 q 450 928 453 928 l 449 928 l 449 926 l 447 926 l 446 926 l 446 925 l 444 925 l 443 925 q 381 919 433 922 l 379 918 l 376 919 q 372 918 374 919 l 369 918 l 365 918 l 361 918 q 358 919 358 918 l 349 919 l 340 919 q 336 921 339 921 l 331 921 l 318 921 l 308 919 l 299 919 q 285 918 293 918 l 272 918 l 260 918 l 258 918 l 256 918 l 253 918 l 250 918 q 244 918 247 921 l 243 918 q 242 919 242 918 l 240 919 l 228 919 l 228 918 l 225 919 q 199 921 218 921 q 200 915 200 919 q 203 844 203 896 q 201 801 203 819 q 200 763 200 783 l 199 753 l 200 742 l 200 722 l 200 671 l 199 640 q 199 632 199 635 q 200 628 200 629 l 200 622 l 200 617 q 201 611 200 613 l 201 606 q 203 528 203 589 l 208 528 q 215 526 211 526 l 221 526 l 225 526 l 236 526 q 246 526 246 525 l 249 526 l 249 526 l 250 526 l 251 526 q 268 528 256 528 l 283 528 l 299 525 l 301 526 l 303 528 q 310 529 304 529 l 313 528 q 314 526 313 526 l 315 528 l 319 528 l 324 528 l 326 526 l 326 525 q 333 526 329 528 q 350 526 342 525 l 353 526 l 354 526 l 356 528 l 357 528 l 358 528 l 360 526 q 369 528 365 526 l 369 528 l 375 531 l 375 532 l 378 532 q 390 531 385 532 l 399 528 l 401 525 l 401 518 l 404 517 l 404 515 l 406 515 q 403 490 403 490 z "},"F":{"ha":510,"x_min":94,"x_max":482,"o":"m 383 500 q 381 497 383 500 q 378 493 378 494 l 376 493 l 375 493 l 375 493 q 374 492 375 492 l 333 486 l 332 486 l 331 486 l 328 486 l 325 486 l 324 485 l 321 486 l 318 486 q 313 488 314 486 l 307 488 l 304 489 l 301 489 l 293 489 l 286 488 l 281 486 l 272 486 l 264 488 l 256 488 l 254 488 l 253 486 l 250 486 l 250 486 l 246 486 l 244 486 l 244 488 l 243 488 l 235 488 l 235 486 l 232 488 q 207 489 228 489 l 204 489 q 206 450 204 468 l 206 414 l 201 357 l 204 346 l 206 343 q 207 318 208 329 q 206 313 207 314 q 203 306 203 310 l 204 303 l 206 289 l 206 272 l 203 264 l 200 265 q 203 240 204 258 q 201 218 201 233 q 203 186 201 197 l 203 181 q 203 175 201 176 q 204 171 203 172 l 204 167 q 203 160 204 163 l 201 153 l 201 147 q 204 124 201 140 l 206 118 q 210 106 206 113 l 211 100 q 208 47 213 89 q 201 19 201 19 q 199 10 199 11 q 185 7 196 7 l 181 0 l 178 -8 l 164 -4 q 132 4 147 -4 q 125 17 126 7 l 119 28 l 119 31 l 119 35 l 118 35 l 118 38 l 118 40 l 117 40 l 117 44 l 117 47 q 106 192 110 72 l 104 194 l 104 203 l 104 211 l 103 218 q 101 225 101 221 l 103 233 l 104 240 q 106 261 104 253 q 107 279 107 268 q 108 289 107 285 l 110 294 l 107 326 l 106 347 l 106 369 q 103 397 103 382 q 104 428 103 415 l 104 456 q 103 463 103 457 q 101 468 101 464 q 103 475 101 472 l 103 481 q 104 489 104 483 q 103 496 103 492 l 103 500 q 103 503 101 501 l 104 506 l 104 539 l 103 539 l 101 539 l 104 549 l 106 579 l 103 665 q 104 686 103 676 l 103 704 l 101 708 q 103 717 101 714 l 103 721 l 107 804 q 110 853 107 831 l 108 863 l 110 875 q 111 903 110 894 q 114 917 114 917 l 114 922 l 114 928 l 115 928 q 114 933 118 928 l 114 938 l 115 939 l 114 940 l 113 940 l 111 940 l 111 942 l 110 942 l 108 942 l 108 942 l 107 943 l 103 947 l 103 947 l 101 949 q 100 964 94 961 l 101 967 l 104 972 l 104 974 l 104 975 l 106 975 l 107 978 q 111 985 110 981 q 119 994 117 994 q 163 996 139 999 q 172 995 168 994 q 176 996 175 996 l 185 997 l 192 997 l 210 997 q 228 997 222 996 l 229 996 l 232 996 l 235 997 l 236 997 q 254 999 250 997 l 274 999 q 289 997 281 997 l 315 993 q 319 994 318 993 l 322 996 q 335 999 331 999 q 342 996 338 996 l 343 996 l 349 996 l 357 996 l 361 994 l 361 992 q 372 993 364 994 q 399 992 389 990 l 401 992 l 404 992 l 406 993 l 408 993 l 411 994 l 414 993 q 426 993 421 992 l 429 994 l 432 994 q 436 996 435 994 l 438 997 l 444 999 q 460 996 446 999 q 471 992 468 994 q 474 991 472 992 q 476 988 475 990 q 476 981 476 985 l 479 978 l 482 976 l 481 965 q 479 947 481 951 q 474 942 474 942 q 469 938 469 940 l 468 938 l 467 938 l 467 936 l 465 936 l 464 936 l 464 936 q 463 936 465 935 q 463 935 461 936 q 396 926 454 931 l 394 926 q 390 926 393 925 l 386 926 l 383 926 q 379 925 382 925 q 375 926 376 925 l 372 926 q 363 928 369 928 q 353 929 354 928 q 349 931 350 929 l 343 931 l 331 931 q 319 928 324 928 l 310 928 l 294 928 q 282 929 288 928 l 268 929 l 265 929 l 263 928 l 260 929 l 258 931 q 251 929 253 931 l 250 928 q 249 929 249 928 l 247 929 q 233 931 242 931 l 233 929 l 231 931 q 188 932 224 932 l 182 933 l 175 933 q 196 893 194 901 q 200 800 199 869 l 200 768 q 199 724 200 740 q 197 700 197 708 l 200 678 l 200 657 l 201 603 l 200 571 q 201 563 200 565 q 201 558 201 560 l 201 554 l 200 549 q 201 543 200 544 l 201 538 l 203 536 l 204 536 l 208 536 l 221 536 q 231 536 231 535 l 232 536 l 233 536 l 235 536 q 253 538 236 538 l 268 538 l 285 535 l 288 536 l 288 538 q 296 538 290 540 l 297 536 l 300 536 l 301 536 l 306 536 l 310 536 l 313 535 l 313 533 q 319 535 315 536 q 336 535 328 533 l 338 535 l 339 535 l 339 535 l 342 536 l 343 536 l 346 535 l 353 535 l 356 536 l 357 536 l 357 538 l 358 539 l 361 539 l 374 536 q 381 533 381 533 l 383 532 l 383 525 l 385 524 l 386 522 l 383 500 z "},"G":{"ha":564,"x_min":69,"x_max":494,"o":"m 474 603 q 482 576 479 594 q 485 551 485 558 l 485 544 l 485 536 l 486 536 q 488 529 488 536 l 486 521 l 488 521 l 489 521 l 489 514 l 489 506 q 494 411 494 444 q 457 142 494 282 l 456 133 q 421 60 451 121 q 397 32 410 43 q 338 -7 363 1 q 308 -12 311 -12 q 282 -14 299 -14 q 215 3 243 -14 q 161 58 186 19 q 107 179 135 97 l 103 192 q 93 226 94 207 l 92 238 q 85 268 90 244 l 81 285 q 81 294 79 289 l 81 301 q 71 388 76 329 l 69 388 l 69 415 q 94 732 74 615 q 115 811 100 761 l 122 838 l 124 849 q 136 879 132 872 q 181 936 161 918 q 242 975 201 954 q 344 1000 292 1000 q 374 999 364 1000 q 418 990 408 994 l 425 986 l 433 983 l 433 982 q 442 977 438 981 q 449 972 446 974 q 453 965 453 968 q 465 951 464 954 q 468 942 468 946 l 471 936 l 472 933 l 472 932 q 463 918 472 925 q 457 917 458 915 q 447 922 453 921 q 433 932 440 925 l 433 932 q 432 931 432 931 q 426 935 431 931 q 421 939 422 939 q 371 960 392 956 q 342 963 351 963 q 257 932 293 963 q 233 904 240 917 q 218 864 226 894 l 211 836 l 203 803 q 181 693 189 756 q 165 444 161 546 l 165 433 l 167 419 l 171 394 q 232 132 196 219 q 265 58 250 88 l 275 50 q 283 41 279 46 q 288 33 286 36 q 297 26 294 26 l 299 26 q 319 39 310 29 l 325 46 l 326 43 q 340 74 326 47 q 379 185 363 119 l 388 217 l 390 229 q 396 261 390 243 l 399 275 q 400 329 401 308 l 400 340 q 397 369 400 358 l 394 381 q 397 506 392 429 q 403 574 401 568 q 406 583 406 576 l 404 583 l 400 583 l 394 583 l 392 585 l 389 585 l 383 585 l 376 583 l 371 583 q 364 582 368 582 l 357 582 l 350 582 l 349 582 l 347 581 l 346 581 l 344 582 l 342 581 l 340 581 l 339 582 l 332 582 l 332 581 l 331 582 l 311 581 l 307 581 l 306 581 l 306 579 q 304 581 304 579 l 303 581 q 293 582 297 581 l 290 582 l 289 582 l 286 582 q 283 583 283 582 l 282 583 l 281 583 l 281 585 l 279 588 l 278 588 q 276 597 275 596 l 276 600 l 276 603 l 276 604 l 276 606 q 281 617 279 617 q 290 619 282 618 l 297 619 l 303 619 l 307 619 l 310 621 l 319 621 q 328 622 326 621 l 329 622 l 331 622 l 332 622 q 340 624 333 624 l 351 624 l 358 624 l 372 622 l 375 624 l 376 625 q 383 625 379 628 l 385 625 q 386 624 385 624 l 388 625 l 390 625 l 394 625 l 397 624 l 397 622 q 403 624 400 625 q 417 625 413 624 l 418 625 l 419 625 l 422 625 l 424 625 l 425 625 l 429 625 l 431 631 l 435 628 l 436 629 q 446 628 438 631 l 451 626 l 454 625 l 454 619 l 456 618 l 457 617 q 474 603 464 613 z "},"H":{"ha":703,"x_min":97,"x_max":606,"o":"m 525 46 q 519 51 524 46 q 513 56 514 56 l 513 57 l 513 60 l 511 58 l 511 61 l 511 63 l 510 63 q 510 64 508 63 l 510 65 q 497 190 501 86 l 494 193 q 496 204 494 200 q 494 214 496 211 l 494 222 q 493 231 493 225 l 494 242 l 494 251 q 496 279 494 268 l 496 303 l 497 317 l 497 329 q 496 369 497 351 l 493 401 l 492 433 l 489 475 l 489 479 q 439 476 488 479 l 438 476 l 435 476 l 431 476 l 429 475 l 425 475 l 421 475 l 419 476 q 411 478 414 476 l 404 478 l 400 478 l 396 478 l 386 478 l 376 478 l 368 478 q 357 476 364 476 l 346 476 l 335 476 l 333 476 l 331 476 l 328 476 l 326 476 l 321 476 l 319 476 q 318 478 318 476 l 317 478 l 306 478 l 306 476 l 301 478 l 264 478 l 258 478 l 251 478 l 250 476 q 249 478 249 476 l 247 478 q 222 479 232 478 l 217 479 q 208 481 210 479 l 206 481 l 206 465 l 203 399 q 207 388 203 394 l 208 382 q 210 353 210 375 q 208 346 210 347 q 207 338 206 343 l 208 333 l 208 318 l 208 299 l 207 289 l 203 289 q 207 271 207 285 q 206 240 207 258 q 207 197 206 222 l 207 190 l 207 185 q 208 181 207 182 l 208 175 l 208 167 l 207 160 q 208 128 207 138 q 210 122 210 126 q 214 108 210 114 l 217 103 q 213 50 219 88 q 207 21 208 22 l 203 13 q 190 10 203 10 l 188 3 l 183 -3 l 169 0 q 138 7 154 0 q 129 19 133 10 l 125 29 l 125 33 l 125 36 l 124 36 l 124 36 q 124 39 121 36 q 122 42 124 42 l 122 43 q 121 43 121 42 l 121 46 l 121 49 q 110 201 114 85 l 108 206 l 108 215 l 108 224 l 106 240 q 107 250 106 246 l 107 258 q 108 283 108 265 q 110 303 108 299 q 111 315 110 310 l 111 326 q 110 360 111 344 l 107 385 l 106 410 l 103 444 l 103 478 l 103 511 q 101 519 103 517 q 100 525 100 521 q 101 533 100 531 q 101 539 103 538 l 101 549 l 101 556 q 100 560 100 557 q 101 564 100 563 l 101 567 l 101 601 l 100 601 l 101 613 q 99 729 103 631 q 100 750 99 740 q 99 767 100 765 l 97 771 q 99 778 97 775 l 99 782 q 103 857 99 811 q 106 897 103 881 l 106 915 q 110 950 106 933 l 110 953 l 110 958 l 110 958 q 113 958 111 957 l 113 963 q 111 967 111 964 l 113 968 l 115 969 q 117 978 117 972 l 121 982 l 122 985 l 122 986 q 133 990 125 989 q 146 990 142 992 l 151 985 q 160 976 157 983 l 161 976 l 164 976 l 165 974 q 167 968 165 969 q 176 957 168 965 q 192 929 192 939 q 196 876 194 914 q 196 807 197 839 q 194 764 194 786 q 196 742 194 751 l 196 722 q 197 675 197 715 q 199 624 197 633 l 199 619 l 199 614 q 200 608 199 610 l 201 603 q 203 560 203 592 l 204 518 l 224 518 l 239 518 l 253 518 l 260 518 l 267 518 l 285 518 l 299 518 l 301 518 l 303 518 l 304 519 l 306 519 l 332 519 l 351 519 l 374 518 l 378 519 q 389 521 381 521 l 392 519 q 393 518 392 518 l 394 519 l 400 519 l 407 519 l 410 518 l 410 517 q 419 518 414 521 l 431 517 l 442 518 l 443 517 l 446 518 l 447 518 l 449 518 l 451 518 l 454 517 q 465 518 461 517 l 467 518 l 469 518 l 472 519 l 474 521 q 488 519 478 522 l 488 560 l 488 568 q 486 576 486 571 q 488 586 486 582 l 488 593 l 488 604 l 488 614 q 486 618 486 615 q 488 624 486 622 l 488 626 l 488 668 l 486 668 l 488 681 q 489 722 489 688 q 488 804 489 771 l 488 824 l 488 840 l 486 844 q 488 850 486 849 l 488 854 q 494 917 490 896 q 497 944 494 933 q 506 979 503 976 l 506 981 l 506 983 l 507 983 l 507 986 l 507 988 l 510 989 l 511 989 q 517 996 513 994 q 518 997 518 996 l 519 997 q 532 999 521 999 q 543 997 542 999 l 547 994 q 554 990 551 993 q 557 990 554 988 l 558 990 q 560 986 558 988 l 561 985 l 571 978 q 585 963 585 968 q 586 910 586 956 q 582 836 586 886 q 583 815 582 825 l 583 796 l 583 740 q 585 692 583 693 l 585 686 l 585 681 q 586 674 585 675 l 586 668 l 590 501 q 588 419 592 499 q 592 403 588 419 l 593 399 q 596 363 596 379 q 594 353 596 354 q 593 343 592 350 l 594 339 l 594 321 l 594 297 l 593 286 l 589 286 q 593 264 593 281 q 594 186 593 210 l 594 179 l 594 174 l 597 165 q 596 158 597 161 l 594 150 q 597 122 594 142 q 599 118 597 119 l 599 113 l 603 107 q 604 103 604 106 l 606 93 q 601 68 606 83 q 596 53 597 54 l 592 49 q 579 47 590 47 l 575 44 q 571 42 572 42 l 554 42 l 525 46 z "},"I":{"ha":335,"x_min":111,"x_max":225,"o":"m 143 8 q 135 20 139 11 q 131 33 132 29 l 131 36 l 131 40 l 129 40 l 129 43 l 129 46 l 128 46 q 128 49 125 46 l 128 53 q 118 221 119 97 l 117 225 q 117 235 114 228 l 117 244 l 117 253 q 115 263 115 257 l 117 274 l 117 282 q 118 308 118 289 q 119 329 118 324 q 121 342 119 336 l 121 354 q 119 390 121 374 l 118 415 l 117 443 q 115 478 115 458 l 115 513 l 115 547 l 115 553 q 114 560 114 556 l 115 568 l 115 574 l 115 583 q 114 592 115 589 l 114 594 q 115 599 114 599 l 115 601 l 115 636 l 114 636 l 115 646 q 113 758 117 667 q 114 779 113 769 q 113 793 114 792 l 111 797 q 113 803 111 801 l 113 807 q 115 875 113 817 l 115 892 q 117 911 115 907 q 118 926 117 919 q 119 946 118 940 q 121 957 119 956 l 119 961 q 121 964 119 964 l 122 964 l 122 968 l 122 971 l 124 972 l 125 974 q 126 977 126 975 q 128 981 126 979 q 131 985 128 982 l 132 988 l 132 989 q 154 993 144 993 q 157 992 156 993 q 163 989 158 990 q 169 982 167 988 q 171 982 169 981 l 174 982 l 176 974 q 199 953 186 969 l 204 942 q 210 832 210 858 q 208 792 208 813 q 211 753 208 767 q 213 704 211 728 l 213 657 l 213 653 l 213 646 q 213 644 213 646 q 214 642 213 643 q 215 638 215 640 q 217 593 215 610 l 218 499 l 214 429 q 217 415 214 424 l 219 413 q 221 381 221 404 q 219 372 221 374 q 217 364 217 369 l 218 361 l 218 343 l 218 322 l 215 313 q 213 313 214 314 q 217 297 217 308 q 215 264 217 275 q 215 243 215 256 q 215 214 214 231 l 215 207 q 215 200 214 201 q 217 194 215 196 l 217 189 l 215 181 q 214 174 214 178 q 215 138 214 150 q 217 133 217 136 q 221 118 217 126 q 224 111 224 113 q 219 53 225 96 q 215 35 217 43 q 213 24 214 26 q 212 17 213 22 q 208 11 211 13 q 197 10 204 10 q 192 3 196 10 l 189 -4 l 171 0 q 143 8 154 1 z "},"J":{"ha":532,"x_min":56,"x_max":436,"o":"m 136 290 q 144 274 140 286 q 147 257 147 261 l 147 251 l 147 247 l 149 247 l 149 243 l 149 238 l 150 238 q 151 233 151 238 l 150 228 q 240 51 179 113 l 243 51 q 263 47 256 47 q 278 51 268 47 q 293 60 289 56 q 319 99 310 76 l 328 124 q 331 200 331 143 l 331 240 l 331 279 q 335 371 335 342 l 335 381 q 333 390 333 385 q 335 401 333 397 l 335 408 q 336 422 336 413 q 335 432 335 426 l 335 438 q 335 443 332 440 q 336 447 336 444 l 336 496 l 335 496 l 336 510 l 338 553 q 333 667 338 599 q 332 692 332 671 q 331 715 332 711 l 329 721 l 331 729 l 331 735 q 329 781 329 746 l 328 826 l 328 850 q 326 874 326 861 l 325 919 q 325 935 322 926 l 325 939 l 324 943 l 325 944 q 325 947 326 946 l 325 953 l 326 956 l 328 957 q 329 965 329 960 q 332 972 329 969 q 333 975 333 972 l 333 976 q 344 981 335 979 q 357 983 353 983 q 363 979 357 981 q 371 971 369 978 l 374 969 l 375 971 l 378 967 l 381 961 q 392 950 383 957 q 411 921 410 932 q 426 764 425 847 l 426 714 q 431 660 431 681 q 433 525 433 596 l 433 517 l 433 510 q 435 501 433 504 l 435 494 q 435 430 436 467 q 435 356 435 393 q 433 301 433 339 l 426 213 l 429 194 l 431 190 l 431 178 q 426 140 431 160 l 419 125 q 413 110 414 117 l 411 104 q 372 50 392 71 q 361 42 368 49 l 358 40 l 357 42 q 317 18 344 25 q 218 7 263 6 q 197 11 210 8 q 178 17 185 14 q 150 33 167 21 q 99 86 122 56 q 82 108 96 89 l 75 118 q 65 131 67 126 q 56 192 56 158 q 58 229 56 204 l 67 274 l 71 288 q 83 290 74 292 l 88 299 l 92 307 l 107 304 q 136 290 126 300 z "},"K":{"ha":628,"x_min":111,"x_max":586,"o":"m 506 11 q 499 15 503 13 q 493 19 496 18 l 493 21 l 492 21 q 492 22 490 21 l 492 24 l 490 24 l 489 24 l 489 25 l 489 26 q 476 96 483 36 l 475 97 l 475 101 q 474 107 475 106 l 474 111 q 472 115 472 113 l 472 119 l 472 125 l 472 139 l 472 149 l 472 156 l 472 161 q 463 192 472 167 l 458 208 q 449 240 454 219 l 442 260 q 440 264 442 263 q 438 271 438 269 l 438 274 l 435 279 q 433 283 433 281 l 432 285 q 432 286 431 285 l 432 289 l 424 307 l 422 306 l 422 313 q 389 368 414 332 l 385 374 l 376 385 l 375 386 l 372 389 l 372 392 q 360 410 368 396 l 346 425 q 343 428 344 426 q 339 435 342 431 l 331 443 l 321 453 l 313 460 q 311 458 311 460 l 313 458 l 307 454 q 281 433 299 449 l 260 417 q 246 407 254 415 l 244 406 q 242 404 244 404 l 240 404 q 217 393 228 397 l 217 382 q 215 372 217 374 q 213 364 213 369 l 215 360 l 215 343 q 214 322 215 328 l 213 311 q 208 311 211 314 q 213 281 215 304 q 210 239 210 253 l 211 210 l 211 204 l 211 196 q 213 192 211 193 l 213 186 l 213 176 l 211 168 l 211 158 q 213 133 211 142 q 214 126 213 129 l 214 119 q 217 111 214 117 l 219 104 q 215 44 222 89 q 208 14 208 14 q 206 3 206 6 q 192 0 203 0 l 189 -7 l 185 -14 q 163 -9 179 -12 q 139 -1 147 -6 q 132 13 135 1 q 126 24 128 24 l 126 28 l 126 31 q 125 32 125 31 l 125 35 l 125 39 l 124 39 q 124 42 121 39 l 124 46 q 114 218 115 90 l 113 221 l 113 232 l 113 242 l 113 251 q 111 261 111 256 q 114 281 111 272 q 115 307 114 297 l 115 329 q 117 342 115 336 q 118 354 118 347 q 117 390 118 375 l 115 417 l 114 444 q 113 481 113 460 l 113 517 l 113 550 l 113 557 q 111 564 111 560 q 114 578 111 575 l 113 594 q 111 599 111 596 q 113 603 111 601 l 114 606 l 114 640 l 113 640 l 114 651 q 115 690 115 660 q 114 763 115 733 l 114 782 l 114 799 l 113 801 q 114 808 113 806 l 114 813 l 118 879 q 119 896 119 881 q 121 914 119 910 l 124 931 q 125 950 124 944 q 126 960 125 958 q 128 963 128 960 q 126 967 126 964 l 128 967 l 129 967 l 129 969 l 129 974 l 131 975 l 132 976 q 133 980 133 978 q 135 983 133 982 q 138 988 135 985 q 139 989 139 988 l 140 990 q 153 993 146 992 q 164 993 160 994 q 169 989 164 990 q 176 982 174 988 l 178 982 l 181 982 l 182 978 l 183 975 q 193 965 183 975 q 210 942 207 953 q 211 833 214 893 q 210 794 210 815 q 211 775 210 783 l 211 756 l 211 704 l 210 674 q 210 665 210 668 q 211 661 211 663 l 211 656 l 211 650 q 213 644 211 646 l 213 640 q 215 500 215 574 q 211 444 215 481 l 217 449 l 229 461 q 261 493 229 461 q 263 496 261 494 q 265 497 264 497 l 268 503 q 317 569 306 551 l 332 592 q 340 602 338 599 q 343 607 342 606 q 346 617 346 610 l 346 621 l 356 642 q 361 647 356 642 l 365 653 l 365 656 q 378 683 368 668 l 383 690 l 386 689 l 386 692 q 393 715 386 699 q 417 774 404 736 l 419 781 l 421 786 q 424 797 421 789 l 426 806 l 429 813 q 439 847 438 835 l 440 856 l 440 863 q 442 872 442 865 l 440 879 q 458 943 443 894 q 471 978 468 975 q 476 990 474 982 q 489 992 479 993 q 494 1000 490 992 q 500 1007 499 1007 q 514 1001 510 1003 q 539 985 533 992 q 544 964 542 979 l 544 950 l 544 947 l 543 942 l 544 942 l 543 936 l 542 933 q 543 933 542 932 q 544 932 544 933 l 543 928 q 542 924 542 926 q 493 738 536 858 l 493 733 q 489 725 492 731 q 485 714 486 719 q 482 707 485 714 q 474 689 481 697 l 469 681 l 447 642 q 442 633 443 638 l 435 624 l 410 578 q 388 543 397 557 q 369 519 378 529 q 354 503 360 508 q 391 481 375 493 q 439 436 407 468 l 460 415 q 483 385 471 401 q 499 361 494 368 q 501 358 499 361 l 503 356 l 506 353 q 508 350 508 350 q 547 265 532 308 l 556 221 q 558 217 556 219 l 563 213 q 568 193 565 208 q 568 189 571 192 q 567 183 565 186 l 568 181 q 569 176 569 179 q 571 171 569 174 q 572 158 571 163 l 571 153 l 567 153 q 572 136 574 147 l 572 126 q 575 100 572 117 l 575 96 l 575 93 l 576 90 q 577 88 576 90 q 576 83 578 86 q 575 79 575 82 q 578 64 575 72 q 581 57 578 60 q 583 54 581 57 l 585 51 l 586 46 q 582 28 586 39 l 576 18 l 572 14 l 560 13 q 556 11 557 13 l 554 10 l 551 8 l 506 11 z "},"L":{"ha":503,"x_min":111,"x_max":461,"o":"m 454 21 q 451 17 454 19 q 447 14 449 14 l 446 14 l 446 14 l 446 14 l 444 14 l 444 13 l 442 13 q 394 10 433 10 l 393 10 l 390 10 l 386 10 l 383 8 l 382 8 l 378 8 l 375 10 q 367 11 369 10 l 360 11 q 356 13 357 11 l 351 13 l 346 13 l 338 13 l 332 11 q 322 10 326 11 q 311 8 318 8 l 300 8 l 288 8 l 286 8 l 283 8 q 281 8 282 7 l 278 8 l 272 8 l 272 7 l 269 8 l 269 8 l 258 8 l 258 7 l 254 8 l 218 7 l 211 7 l 207 7 l 206 6 l 204 6 l 203 7 l 188 7 q 185 3 186 3 l 167 6 q 140 15 147 10 q 132 29 135 17 l 126 40 l 128 44 q 126 47 128 47 l 125 47 l 125 50 l 125 54 l 124 54 l 124 58 l 124 61 q 115 231 118 96 l 113 233 q 114 244 113 240 l 114 254 q 111 272 111 263 q 113 282 111 278 q 114 292 114 286 q 117 339 114 317 l 118 350 l 118 363 q 119 376 119 367 q 118 397 119 390 l 117 422 q 114 483 114 436 l 113 499 l 114 519 l 114 551 l 114 558 q 113 565 113 561 l 114 574 l 114 579 l 114 588 l 114 594 l 113 599 q 114 603 113 601 l 114 606 q 115 640 115 615 l 114 640 l 113 640 l 115 650 q 113 761 117 671 l 113 781 l 113 796 l 111 800 l 111 806 l 113 810 l 115 878 l 115 896 q 117 914 115 910 q 118 932 117 924 q 119 951 118 946 q 121 961 119 960 l 121 965 l 121 969 l 122 969 l 122 972 l 122 976 l 124 978 l 125 981 l 128 986 q 131 992 128 989 q 132 993 132 992 l 132 994 q 143 999 135 997 q 157 999 151 1000 q 163 994 157 996 q 169 988 167 993 q 172 988 169 985 l 174 988 l 178 979 q 199 957 193 964 l 204 946 q 210 833 210 917 q 208 794 208 815 q 210 775 208 783 l 210 756 q 211 708 211 747 q 213 661 211 669 l 213 656 l 213 650 q 214 644 213 646 l 214 640 q 215 597 215 628 l 215 543 q 217 503 215 510 l 211 436 q 213 431 211 432 l 217 418 q 218 388 219 403 q 217 379 218 381 q 214 371 214 376 l 215 368 l 215 351 l 215 331 l 213 321 l 210 321 q 214 306 214 317 l 213 271 q 211 222 210 239 l 211 217 l 211 208 q 213 204 211 206 l 213 199 l 213 190 l 211 182 l 211 172 q 213 147 211 156 l 214 142 q 218 126 214 135 l 219 119 q 215 61 222 106 l 215 60 l 218 60 q 233 61 226 60 l 249 61 l 251 61 l 253 61 l 256 61 l 256 63 q 271 64 260 64 q 289 65 282 64 l 303 65 l 326 64 l 329 65 l 332 67 q 342 68 335 68 q 346 67 343 67 q 347 65 346 65 l 349 67 l 356 67 l 361 67 l 365 65 l 365 64 q 375 65 368 67 l 386 64 l 397 65 l 400 64 l 401 64 l 403 64 l 406 65 l 408 64 l 410 64 q 421 65 417 64 l 422 65 l 425 65 l 428 67 l 429 68 l 433 68 l 446 65 q 454 61 454 64 l 457 60 q 457 51 460 58 l 458 50 l 461 47 q 460 40 460 46 q 458 31 460 38 q 454 21 457 25 z "},"M":{"ha":893,"x_min":97,"x_max":796,"o":"m 722 19 q 715 28 718 21 q 710 39 711 35 l 710 42 l 710 44 l 708 44 l 708 47 l 708 50 l 708 50 l 708 50 q 708 53 706 50 l 707 56 q 697 196 701 79 l 696 200 l 696 208 l 696 218 l 696 225 q 694 233 694 228 q 696 243 694 239 l 696 251 q 697 275 696 265 l 697 294 l 700 317 q 699 350 700 335 l 696 376 l 694 401 q 693 436 693 417 l 692 449 l 693 471 l 693 504 q 692 513 693 510 q 690 519 690 514 l 692 528 l 693 533 l 693 543 q 692 550 692 546 l 690 554 q 692 560 690 558 l 693 563 l 693 599 l 692 599 l 690 599 l 693 610 q 692 719 694 626 l 690 717 q 687 704 689 711 q 682 688 685 697 l 672 661 l 667 647 l 663 633 q 651 590 656 607 q 646 569 647 578 q 643 558 644 561 q 622 482 640 542 q 597 399 608 428 q 596 392 596 397 q 590 374 593 378 q 585 357 585 364 q 583 347 583 353 l 582 343 q 578 335 582 339 q 565 296 572 314 l 567 296 l 564 285 q 531 172 547 243 l 526 157 l 522 142 l 522 138 q 521 133 522 135 q 519 129 519 132 q 501 81 517 122 l 499 72 l 500 64 q 499 57 499 61 q 498 54 500 56 q 492 51 496 53 l 492 47 q 489 42 490 42 l 486 42 l 482 36 l 482 35 l 482 33 l 481 33 l 481 32 l 481 31 l 479 31 l 478 31 l 472 28 l 471 28 q 469 26 471 26 q 461 28 467 26 q 453 31 456 29 q 448 33 451 31 q 443 38 444 35 l 442 38 q 440 39 440 38 l 439 40 l 439 42 q 435 49 439 44 q 425 64 424 57 q 429 88 425 74 q 390 197 422 101 l 388 200 l 385 211 l 381 219 l 378 228 q 372 246 374 236 q 371 251 371 249 q 369 256 371 254 l 356 303 q 353 315 357 301 l 349 328 q 335 365 344 336 q 328 383 331 376 q 324 392 325 389 l 314 421 q 288 497 296 465 l 274 532 q 272 540 274 538 q 265 557 267 553 l 264 563 q 260 574 263 569 q 257 581 258 578 q 254 590 254 589 l 253 593 q 247 615 250 606 q 240 631 243 624 l 239 631 l 236 642 q 203 740 232 657 l 203 738 q 201 683 203 710 l 200 649 l 201 626 l 201 621 q 200 614 200 618 q 201 608 200 610 l 201 603 q 203 565 203 593 q 201 511 203 532 l 200 444 l 193 371 l 197 356 l 199 353 q 200 339 200 349 q 199 319 200 326 q 197 311 199 313 q 194 303 194 308 l 196 299 l 196 283 q 194 261 194 275 l 192 251 q 190 251 190 253 q 192 242 192 250 q 190 222 192 231 q 190 196 190 211 q 190 160 189 181 l 190 153 l 189 147 q 190 143 189 144 l 190 139 l 190 132 l 189 124 l 188 110 l 189 96 q 190 92 189 93 q 193 79 190 83 l 194 74 l 194 68 q 190 32 194 56 q 185 11 186 13 q 182 6 183 10 q 169 3 181 3 q 164 -1 168 3 l 161 -6 l 146 -3 q 118 3 126 0 q 112 10 115 4 q 107 19 108 17 l 107 22 l 107 24 l 107 24 l 107 25 q 107 26 106 25 l 107 29 l 106 29 l 104 29 l 104 31 l 104 33 q 99 168 99 57 l 97 171 q 99 181 97 176 l 99 190 l 99 199 q 97 207 97 201 q 99 217 97 213 l 100 225 q 101 250 100 240 q 103 271 103 260 q 106 296 106 282 q 107 332 107 303 l 106 360 l 106 389 q 104 426 104 404 q 106 467 104 449 q 107 503 107 483 l 107 511 q 106 518 106 514 q 107 528 106 524 l 107 533 l 107 544 l 107 553 l 107 557 l 107 563 l 107 565 q 108 606 108 581 l 107 606 l 110 617 q 111 747 111 636 q 113 769 111 760 l 113 789 l 111 793 q 113 801 111 799 l 113 806 l 118 885 q 121 904 118 885 q 122 926 121 922 q 124 944 122 936 q 125 967 124 960 q 128 979 128 979 l 128 983 l 128 988 l 128 988 l 128 992 q 131 997 128 994 l 132 999 l 135 1007 q 138 1011 135 1008 q 139 1014 139 1011 l 139 1015 q 163 1018 161 1022 q 167 1014 163 1017 q 174 1006 172 1008 q 175 1006 174 1004 l 178 1006 q 179 1001 178 1003 q 181 996 179 997 q 190 985 182 993 q 204 958 201 969 q 206 918 206 946 q 214 896 210 903 l 229 854 q 240 815 235 828 l 256 775 l 292 675 q 294 664 294 672 l 299 658 l 300 653 q 318 606 311 626 l 339 547 l 354 503 l 376 428 l 379 422 l 385 414 l 386 411 q 397 379 393 400 l 400 371 q 401 361 400 365 l 404 357 q 411 340 408 346 l 418 319 l 419 308 l 418 307 q 429 278 424 299 q 450 214 446 224 q 451 210 451 213 q 453 207 451 208 q 457 199 453 207 l 460 193 l 460 190 q 463 203 460 194 l 490 297 q 492 304 490 301 q 494 315 494 313 q 496 321 494 319 q 522 415 504 360 l 542 482 l 568 565 q 571 583 571 568 l 571 588 q 582 625 572 599 q 586 635 585 633 q 590 644 588 636 l 590 649 q 597 669 597 669 l 604 694 l 608 706 l 611 704 l 611 708 q 619 740 611 718 q 643 817 639 803 l 646 824 q 647 836 647 829 q 649 842 647 840 l 653 850 q 656 858 656 858 q 665 892 660 869 l 667 906 l 667 914 l 667 919 q 685 967 667 933 q 694 986 690 982 q 697 990 696 988 q 701 993 699 993 q 708 992 704 993 q 711 996 708 993 q 713 999 713 996 q 714 1000 713 1000 q 726 1003 718 1001 q 736 1003 735 1006 q 742 999 736 1000 q 749 989 746 996 l 750 989 q 751 989 750 990 l 753 985 l 754 981 l 764 968 q 779 940 778 950 q 782 813 783 867 q 781 767 781 792 q 782 744 781 754 l 782 724 q 785 621 782 657 l 785 615 q 785 610 783 611 q 786 604 785 606 l 786 599 q 788 557 788 588 l 789 517 q 790 457 789 460 l 786 389 l 788 383 l 790 375 l 792 372 q 792 360 792 369 q 792 343 793 351 l 792 335 q 789 326 789 332 l 792 324 l 792 308 l 792 289 l 789 279 q 786 279 788 281 q 790 265 790 275 q 789 235 790 244 q 788 217 789 228 q 789 190 788 206 l 789 185 l 789 179 q 790 175 789 176 l 790 169 l 790 163 l 789 156 l 789 147 q 790 126 789 133 q 792 121 790 122 q 794 108 792 113 l 796 103 l 796 94 q 792 56 796 81 q 788 31 790 33 q 785 22 785 25 q 771 19 782 19 l 768 14 l 765 10 l 751 13 q 722 19 733 13 z "},"N":{"ha":718,"x_min":96,"x_max":621,"o":"m 596 992 q 601 985 600 985 l 601 982 l 600 981 q 601 979 600 979 l 603 979 l 601 978 q 603 975 601 975 l 604 975 l 604 975 l 604 972 l 604 971 q 610 826 607 951 l 611 822 l 611 813 l 611 801 l 613 793 l 613 783 l 613 772 l 611 761 l 608 707 l 608 694 q 607 679 607 688 q 608 657 607 665 l 610 606 q 613 572 611 594 q 614 531 614 550 l 614 489 q 615 447 614 457 q 617 440 615 443 l 617 432 l 617 422 l 615 415 l 615 404 q 617 396 615 397 l 617 390 l 617 386 q 615 382 615 385 l 615 342 l 615 342 l 618 342 l 615 331 q 618 210 614 310 l 618 190 l 618 176 l 621 172 q 618 163 621 165 q 615 104 618 149 q 613 78 615 89 l 611 54 l 607 46 l 607 44 l 607 42 l 606 42 l 606 39 l 606 38 l 604 36 l 601 36 l 600 33 q 596 31 597 31 l 594 28 l 594 28 q 582 26 589 26 q 571 26 575 25 l 565 29 l 557 33 l 556 33 l 554 33 q 553 35 553 33 l 550 38 q 529 51 539 42 q 525 57 525 54 q 522 96 522 74 q 478 189 518 103 l 475 192 q 471 199 474 194 q 467 210 468 204 q 458 224 461 215 q 457 228 457 225 q 456 233 457 231 q 451 243 453 242 q 431 290 440 272 q 426 301 429 292 q 421 314 426 304 l 403 350 l 389 376 q 375 405 385 386 q 356 440 365 424 q 321 515 347 456 q 313 531 315 524 l 308 540 l 306 546 l 301 557 l 296 564 l 294 568 l 292 576 l 274 615 l 272 614 l 268 626 l 210 746 q 207 752 208 749 q 204 760 206 756 q 204 746 201 749 l 206 729 q 204 718 206 722 l 203 707 q 200 657 203 679 l 200 644 q 199 632 199 639 q 200 596 199 611 l 201 568 l 203 540 q 204 503 204 524 l 204 467 l 204 432 q 206 425 204 428 l 206 418 l 206 410 l 204 404 q 204 394 203 399 l 204 386 l 206 383 q 204 379 206 381 l 203 376 l 203 340 l 204 340 l 203 331 l 201 292 l 203 221 q 204 203 204 217 l 203 186 l 204 183 q 204 178 207 181 q 203 174 203 176 q 199 111 203 149 q 196 79 199 90 l 193 47 q 190 39 190 39 l 190 36 l 190 32 l 189 32 q 189 29 186 32 q 186 25 189 25 l 185 24 q 183 18 183 22 l 179 14 q 178 13 178 14 l 178 11 q 165 8 172 10 q 153 8 158 7 q 149 13 153 11 q 140 18 144 14 q 139 19 140 19 q 138 19 138 18 q 136 22 136 19 q 133 25 133 25 l 124 33 q 108 54 108 44 q 106 119 106 76 q 107 154 106 144 q 108 190 108 171 l 108 210 q 107 228 107 218 l 106 246 l 107 278 q 106 321 107 318 l 106 326 l 106 331 l 106 338 q 104 342 104 339 q 101 483 101 408 l 106 554 q 106 560 107 556 l 103 568 l 101 572 q 100 604 99 590 q 101 613 100 611 q 103 622 103 614 l 101 625 l 101 643 l 101 665 l 104 675 l 107 675 q 103 692 103 682 l 104 729 q 106 778 107 760 q 106 786 104 781 l 106 792 q 104 797 106 796 q 103 803 103 799 l 104 811 l 106 819 l 106 831 q 104 854 106 846 l 104 861 q 100 876 101 875 l 97 882 q 101 940 96 899 q 107 969 106 968 l 111 979 q 124 982 111 982 l 126 989 l 131 996 l 146 993 q 176 983 163 992 q 184 972 181 981 q 189 960 188 964 q 190 957 190 960 q 189 953 189 956 l 190 953 l 192 953 l 192 949 l 192 946 l 193 946 q 240 849 224 885 l 257 808 q 267 788 258 806 l 276 768 q 300 719 279 764 q 326 668 319 679 l 329 663 q 331 659 331 661 q 332 656 331 657 l 336 650 l 338 644 l 381 558 l 413 494 l 444 419 l 454 406 l 457 403 l 474 372 q 479 353 475 363 l 482 350 q 484 345 483 349 q 489 335 485 342 l 499 313 l 503 303 l 500 301 q 517 274 507 294 l 521 263 q 518 317 518 318 l 518 324 l 518 329 l 518 336 q 517 340 517 338 q 514 458 514 399 q 511 506 511 508 l 515 589 q 511 606 515 589 l 510 610 q 507 647 507 629 q 508 653 508 650 q 510 657 508 656 q 511 667 511 658 l 510 671 l 510 690 l 510 715 l 511 726 q 515 726 514 725 q 511 761 510 735 q 514 804 514 792 l 513 833 l 514 842 q 513 847 514 846 l 513 853 q 511 858 511 854 l 513 867 l 514 875 l 514 883 q 513 906 514 899 l 513 913 q 510 925 513 919 l 507 931 l 507 938 q 514 975 507 956 q 521 996 518 993 l 525 1003 q 538 1003 525 1006 l 540 1006 q 546 1010 544 1010 q 566 1007 551 1010 q 589 1000 581 1004 l 596 992 z "},"O":{"ha":632,"x_min":76,"x_max":536,"o":"m 425 224 q 426 215 425 215 q 428 222 428 215 q 432 278 425 240 q 434 292 433 286 q 436 301 435 299 q 444 443 444 371 q 443 493 444 476 l 442 532 l 438 561 l 436 572 l 438 586 q 435 610 435 611 q 421 703 428 668 q 413 735 417 724 q 404 756 408 746 q 401 763 403 760 q 399 768 400 767 q 379 835 394 779 q 367 875 368 874 l 354 913 q 353 922 354 919 q 350 929 351 924 q 347 936 349 935 l 347 936 q 303 944 319 944 q 243 899 267 944 q 174 653 185 781 q 164 463 164 557 q 165 390 164 414 q 168 363 168 376 l 172 333 q 217 175 190 250 q 264 72 243 100 q 325 39 292 39 q 343 42 329 39 q 360 58 353 44 q 383 96 375 79 q 387 103 385 101 q 389 107 389 106 l 396 121 l 397 128 q 418 201 401 140 l 421 210 l 424 219 l 425 224 m 381 964 q 404 951 390 964 q 414 946 411 946 q 418 942 417 946 l 422 936 l 424 938 l 431 925 q 432 926 432 925 l 433 926 q 436 923 435 925 q 440 917 438 921 q 500 728 475 849 q 533 474 525 608 l 535 461 q 535 405 536 442 q 532 346 533 368 q 524 288 531 324 q 492 161 510 214 q 467 107 481 132 q 393 24 435 51 q 303 -4 351 -4 q 263 0 283 -4 q 144 93 199 14 q 136 106 142 97 q 126 127 131 115 q 117 157 122 139 q 108 179 110 175 l 103 197 q 99 208 101 203 q 96 219 97 214 l 96 228 q 81 324 86 278 l 79 324 l 78 324 l 78 354 l 76 433 q 93 688 76 592 l 104 736 l 115 781 l 117 790 q 120 801 117 793 q 126 815 124 808 q 163 890 149 865 q 203 939 178 914 q 244 969 222 961 q 297 978 267 976 q 335 975 321 978 l 343 974 l 351 972 l 351 971 l 361 971 q 369 968 367 969 q 376 964 372 967 l 381 964 z "},"P":{"ha":557,"x_min":97,"x_max":515,"o":"m 200 444 q 211 446 203 446 q 221 444 215 444 l 224 444 l 226 443 q 228 444 226 444 l 231 444 l 233 443 l 233 444 l 236 444 q 240 443 238 443 q 356 503 313 456 l 357 506 q 361 511 357 507 q 368 525 367 518 q 375 538 369 529 l 379 544 l 396 579 l 403 599 q 413 704 413 632 l 411 733 q 410 761 411 753 l 406 772 l 406 779 l 406 783 q 404 792 406 789 l 401 800 q 401 803 400 801 l 401 806 q 394 831 400 814 l 393 831 l 392 838 q 356 904 382 869 q 342 921 344 919 l 339 922 q 336 924 338 922 q 335 928 335 926 q 297 948 311 943 q 264 954 283 953 q 240 953 251 954 l 222 951 q 218 950 219 951 l 215 949 l 214 950 l 211 950 l 208 949 q 206 949 207 947 l 203 949 q 199 947 201 947 l 204 936 q 207 865 207 908 q 206 829 207 840 l 203 792 q 204 772 203 781 l 204 753 l 203 703 l 201 672 q 202 663 201 665 q 203 658 203 660 l 203 654 l 203 647 q 204 643 203 644 l 204 638 q 206 564 206 631 l 204 496 q 200 444 204 476 m 128 7 q 119 19 124 10 q 114 29 115 29 l 114 33 l 114 36 l 113 36 l 113 39 l 113 43 l 111 43 q 111 46 108 43 l 111 50 q 101 215 104 82 l 99 218 q 100 229 99 225 l 100 239 q 97 257 97 247 q 99 267 97 263 q 100 278 100 271 q 103 326 103 303 l 104 338 q 106 350 106 343 q 104 386 106 371 l 103 414 l 103 442 q 101 478 101 457 q 103 515 101 499 l 103 547 l 103 556 q 101 563 101 557 l 103 571 l 104 576 l 104 586 q 103 593 103 589 l 103 597 q 104 601 103 600 l 104 604 q 106 639 106 618 l 104 639 l 106 650 q 107 717 107 661 l 107 763 l 108 781 l 108 797 l 106 800 q 107 807 106 804 q 108 811 108 808 l 114 876 q 117 910 114 896 q 118 926 117 919 q 119 944 118 939 q 122 953 122 953 l 122 957 l 122 960 l 124 960 l 124 964 l 124 968 l 126 969 l 128 969 q 129 973 129 971 q 131 976 129 975 q 133 979 131 979 l 135 982 l 135 983 q 149 986 140 985 q 158 985 157 988 l 164 982 q 172 975 169 981 q 174 975 172 974 l 176 975 q 178 971 176 972 q 179 968 178 968 l 186 960 l 192 964 q 192 965 193 964 l 200 969 q 233 988 225 985 q 286 993 257 993 q 378 974 329 993 q 411 956 403 963 q 474 885 440 932 l 476 881 q 480 874 478 876 q 483 869 482 871 q 485 865 485 868 q 515 722 513 799 q 503 647 515 700 l 503 642 q 504 633 503 636 l 504 629 q 496 596 503 615 q 490 589 496 594 q 486 579 489 588 l 486 576 q 468 540 472 544 l 461 531 l 458 532 q 442 504 458 521 q 392 457 417 478 l 386 453 l 381 449 q 372 443 376 444 l 357 435 l 344 431 l 333 425 q 325 422 325 422 q 322 421 324 421 q 318 419 319 421 l 313 417 l 300 411 q 239 406 265 404 q 204 408 218 406 l 203 408 q 204 376 206 390 q 203 368 204 369 q 200 358 200 365 l 203 356 q 201 339 201 351 l 201 317 l 199 307 q 196 307 197 308 q 200 292 200 303 l 199 256 q 197 207 196 224 l 197 201 l 197 194 q 199 189 197 190 l 199 183 l 199 175 l 197 167 l 197 157 q 199 133 197 142 q 200 126 199 129 q 204 113 200 121 l 206 107 l 207 93 q 203 51 207 76 q 197 22 199 24 l 193 13 q 181 10 193 10 l 176 3 l 174 -4 q 156 0 171 -1 q 128 7 136 3 z "},"Q":{"ha":700,"x_min":69,"x_max":631,"o":"m 626 -17 q 619 -21 624 -19 l 614 -22 l 613 -22 l 611 -22 l 611 -22 q 610 -24 611 -24 l 607 -24 l 607 -25 l 606 -25 l 604 -25 l 588 -26 q 524 -15 564 -26 l 522 -17 l 517 -14 q 513 -12 515 -12 q 504 -10 507 -12 l 499 -7 l 496 -4 q 476 10 483 3 l 468 18 l 457 26 l 444 36 q 439 40 443 36 q 400 17 419 24 q 328 3 368 3 q 231 28 279 3 q 140 107 182 54 q 124 132 129 121 q 108 171 118 143 l 89 224 l 86 243 q 71 342 79 275 l 69 342 l 69 372 q 103 701 74 579 l 132 793 l 133 803 q 146 826 136 811 q 189 901 172 878 q 233 949 206 924 q 279 978 257 971 q 332 988 301 986 l 344 988 q 364 986 361 988 l 371 986 l 376 985 l 376 983 l 382 982 l 389 981 l 392 978 l 393 975 l 410 963 q 413 958 410 961 l 414 957 l 414 954 l 411 943 q 407 940 408 939 q 399 942 406 942 q 386 946 392 942 q 385 944 385 946 l 385 943 l 374 949 q 335 953 349 954 q 274 904 301 950 q 185 661 207 790 q 165 404 161 514 q 171 349 167 369 q 214 187 188 261 q 268 85 240 113 q 308 57 285 67 q 351 47 331 47 q 367 49 363 47 q 400 86 376 49 q 394 90 399 86 q 393 94 393 92 l 393 96 l 388 103 l 386 104 q 386 107 385 106 l 385 108 l 382 115 l 376 124 l 376 122 l 375 122 l 374 128 l 349 176 q 346 185 349 176 q 342 192 344 189 l 339 192 l 339 194 l 339 197 l 331 228 l 329 235 l 326 243 l 325 250 l 324 258 l 325 264 l 324 264 l 324 267 l 325 267 l 324 268 l 324 269 l 325 271 l 326 272 l 331 278 l 332 281 l 332 281 l 353 290 l 358 290 q 367 290 365 292 l 368 292 l 369 292 l 371 292 l 374 290 l 385 290 q 403 286 399 290 q 422 244 411 275 l 426 228 l 431 219 q 435 213 432 215 l 442 199 q 447 186 446 188 l 450 192 l 453 200 l 457 208 l 458 211 q 460 204 457 207 l 461 210 q 471 261 461 222 l 476 282 q 501 463 497 372 l 504 500 l 504 514 q 503 529 503 518 q 504 551 503 542 l 504 576 q 496 667 501 625 l 489 701 q 483 720 488 710 q 478 733 479 731 q 460 801 476 736 q 448 850 453 833 q 438 879 443 867 l 429 897 q 424 913 426 908 q 428 924 421 917 q 424 933 428 926 q 417 942 419 939 q 443 954 431 953 l 451 956 q 471 950 461 956 q 497 926 478 946 q 503 921 499 926 q 507 914 504 917 l 507 914 l 508 915 l 513 908 q 517 903 514 903 q 518 903 517 901 l 526 889 q 578 713 560 822 q 596 482 596 603 l 594 433 l 596 424 q 588 364 594 418 q 581 328 585 349 q 574 293 578 307 q 564 260 571 279 q 521 143 542 186 q 496 103 510 121 q 500 93 499 94 l 504 92 l 507 90 q 515 82 511 89 l 517 79 q 517 75 515 78 l 518 75 q 526 64 525 68 l 529 63 q 528 61 529 61 l 526 58 q 536 53 529 60 q 553 36 543 42 l 554 35 l 557 33 l 561 32 l 563 29 l 564 28 l 575 22 l 578 22 l 581 21 l 583 22 l 585 22 l 599 18 l 606 15 q 613 14 607 14 q 618 12 617 13 q 622 10 619 11 q 624 6 624 10 q 626 3 624 6 l 631 3 l 626 -17 z "},"R":{"ha":561,"x_min":96,"x_max":521,"o":"m 189 940 q 196 847 196 910 q 194 807 194 828 q 197 767 194 786 l 197 714 q 199 661 197 671 l 199 656 l 199 649 q 200 643 199 644 l 200 638 l 203 472 l 203 463 q 215 468 213 468 q 224 471 224 471 l 226 472 l 231 472 q 231 474 232 472 q 235 474 232 474 q 238 476 238 475 q 242 478 240 476 q 246 479 243 479 q 358 581 322 525 l 360 583 l 363 592 l 367 599 q 371 613 367 604 q 373 619 371 615 q 376 625 375 622 q 388 660 379 631 l 392 676 q 382 767 394 713 q 371 814 375 804 q 369 818 371 817 q 365 828 365 822 l 365 831 q 364 834 364 832 q 363 838 364 836 l 360 842 l 358 843 q 358 846 357 844 l 357 849 l 347 868 l 346 868 l 343 874 q 294 926 325 904 q 275 938 281 936 l 272 938 l 269 940 l 267 942 q 219 951 236 951 q 192 947 208 951 q 186 946 188 947 l 189 940 m 433 7 l 428 8 l 428 10 l 428 11 l 426 11 q 426 13 425 11 l 425 13 l 424 13 l 424 14 l 424 15 q 413 79 415 26 l 410 81 l 411 86 l 411 90 q 408 99 408 93 q 410 103 408 101 q 411 108 411 104 q 413 121 411 117 l 413 131 q 414 138 413 135 l 414 143 l 410 175 l 407 192 l 403 208 q 400 228 401 218 q 397 244 399 239 l 396 247 q 394 251 394 249 l 394 256 l 394 258 q 392 267 394 261 q 390 268 392 268 l 392 271 l 392 272 l 388 289 l 386 289 l 386 294 q 364 344 382 315 l 361 350 q 356 360 360 357 l 354 360 l 353 363 l 353 365 q 333 394 346 372 l 326 403 q 321 408 321 407 l 310 418 q 300 428 310 418 l 299 428 l 297 429 l 297 431 l 296 431 q 293 433 293 433 l 293 435 l 292 436 l 288 442 l 286 443 q 286 450 285 444 q 221 435 236 435 q 207 433 215 433 q 203 438 203 436 l 201 438 q 197 390 201 419 q 201 374 197 390 l 203 369 q 204 333 206 350 q 203 325 204 326 q 200 314 200 319 l 201 311 l 201 293 l 201 269 l 199 258 l 194 258 q 199 225 200 250 q 196 158 194 188 l 196 153 l 196 146 l 197 143 l 197 138 q 194 122 197 131 q 196 94 194 104 q 197 90 196 92 q 201 79 197 86 l 203 74 l 203 67 q 197 38 203 53 q 192 21 193 22 l 188 17 q 175 15 186 15 l 171 13 q 167 10 168 10 l 122 17 q 115 22 119 17 l 110 28 l 110 31 l 110 32 l 108 32 l 108 33 l 108 36 l 107 35 q 107 38 106 36 l 107 39 q 100 167 100 64 l 99 171 q 99 181 96 174 l 99 190 l 99 199 l 97 207 l 100 228 q 103 278 100 258 l 104 292 l 104 304 q 106 322 106 310 q 104 346 106 338 l 103 375 l 101 408 q 100 449 100 426 q 101 492 100 474 l 101 531 q 100 539 101 536 q 99 547 99 542 q 100 557 99 553 l 101 564 l 101 575 q 100 585 100 579 l 100 589 q 101 593 100 592 l 101 596 l 101 638 l 100 638 l 101 649 q 99 772 103 676 q 100 793 99 783 q 99 808 100 807 l 97 813 q 99 818 97 817 l 99 822 q 101 885 99 835 l 101 899 l 101 914 q 103 926 103 917 q 104 942 103 938 q 106 949 104 947 l 106 950 l 106 954 l 107 953 l 107 956 l 107 958 l 108 960 l 111 961 q 115 968 111 967 q 117 969 117 968 l 117 971 q 130 974 122 972 q 142 974 138 975 l 147 972 l 149 972 l 157 976 q 239 990 201 990 q 293 985 254 990 l 326 976 q 400 933 361 963 q 404 931 401 933 l 407 928 l 411 924 l 415 921 q 453 866 435 900 q 481 806 472 832 q 486 736 486 788 l 489 722 l 490 719 l 492 707 q 489 688 492 701 q 486 679 486 679 l 482 671 l 483 667 q 472 629 478 643 l 467 621 l 464 621 l 464 618 q 453 592 464 610 q 410 535 431 560 q 404 529 404 529 q 400 525 400 528 q 397 521 400 524 q 392 517 394 518 q 358 493 385 510 q 347 483 347 485 q 335 475 342 482 q 328 471 331 474 q 325 467 325 468 q 335 467 331 468 q 376 447 358 458 q 422 408 394 436 q 440 389 439 392 l 474 333 l 474 331 q 476 328 476 328 q 481 321 476 325 q 504 233 493 293 q 506 219 506 232 q 504 190 506 203 l 507 185 l 511 181 q 514 163 514 172 q 513 158 514 160 l 510 153 l 511 150 l 513 142 l 513 129 l 510 124 l 507 124 q 510 108 513 122 q 508 76 507 86 l 510 74 l 508 71 q 510 69 508 69 l 511 67 l 510 64 q 508 60 508 63 q 511 49 508 54 l 511 46 q 513 44 511 44 l 515 42 l 518 40 q 515 29 521 35 l 506 26 l 493 22 q 489 21 490 22 l 488 19 l 486 19 q 443 4 449 6 l 433 7 z "},"S":{"ha":525,"x_min":56,"x_max":469,"o":"m 118 226 q 129 208 124 222 q 136 189 135 194 q 138 182 138 188 l 139 176 l 140 176 l 142 176 l 143 172 q 144 167 143 167 l 146 167 l 147 161 l 149 157 q 218 56 189 82 q 265 39 242 39 q 329 63 294 39 l 333 67 q 349 91 346 85 q 358 115 353 97 q 368 140 368 136 q 375 208 374 179 q 376 231 376 217 q 375 244 376 242 q 296 428 363 344 q 239 482 285 442 l 231 492 q 208 514 217 503 q 201 521 204 521 l 182 542 l 171 554 q 161 567 163 563 q 117 635 131 611 l 115 635 l 104 658 q 94 757 94 703 q 103 849 94 806 q 128 918 113 892 q 178 965 138 933 l 182 969 q 200 978 193 976 q 304 999 257 1001 q 353 988 333 999 q 397 950 374 976 q 421 915 418 926 l 424 908 q 428 901 425 904 l 426 901 l 425 901 q 429 894 425 901 l 432 886 l 432 881 q 431 875 431 879 l 435 856 l 433 849 q 433 844 432 849 l 433 840 q 423 831 432 836 q 411 829 414 826 q 408 836 410 836 q 404 838 406 836 q 394 851 396 846 q 393 851 394 853 q 392 851 392 850 q 388 857 389 851 q 383 864 386 861 l 364 885 q 344 903 350 894 q 333 922 340 908 q 314 944 325 935 q 293 957 306 954 q 278 958 288 958 q 207 919 242 958 q 175 785 175 882 q 182 714 175 742 q 196 679 188 692 q 269 576 226 631 q 335 500 311 521 q 413 407 381 458 q 416 403 414 406 q 421 396 418 400 l 429 383 q 435 376 433 376 q 458 314 450 350 q 463 296 463 301 l 463 292 q 464 278 463 283 l 467 271 q 469 219 469 235 l 468 190 q 464 172 468 185 l 463 168 l 460 174 q 460 168 458 174 q 455 138 461 157 q 442 108 449 118 q 344 13 404 51 q 325 3 342 10 q 299 -6 308 -3 q 263 -12 281 -12 q 190 -3 218 -15 q 164 10 183 -1 q 160 13 163 11 q 154 15 158 14 l 138 22 q 69 124 92 64 q 56 188 56 164 l 56 210 q 64 217 56 217 l 68 217 l 69 231 q 71 243 69 239 l 71 244 l 93 239 q 118 226 110 233 z "},"T":{"ha":564,"x_min":24,"x_max":536,"o":"m 528 922 q 522 917 526 919 q 517 915 518 915 l 514 915 l 513 915 l 513 914 l 510 914 l 508 914 l 508 914 q 507 914 508 913 l 504 914 q 415 911 488 910 l 414 910 q 410 911 411 910 l 403 911 l 399 911 q 394 910 397 910 q 389 911 390 910 l 382 911 q 369 913 378 913 q 357 914 360 913 q 350 915 353 914 l 343 915 q 326 914 333 915 q 329 815 329 883 l 328 779 q 329 760 328 768 l 329 742 l 329 693 q 331 650 329 653 l 331 646 l 329 640 l 332 629 q 333 551 333 614 l 333 494 l 329 426 q 332 413 329 424 q 335 408 335 408 q 336 378 336 401 q 333 369 333 369 q 332 361 332 368 l 333 357 l 333 342 l 333 319 l 331 310 l 328 310 q 331 290 331 304 q 329 258 331 268 q 328 238 329 250 q 329 210 328 226 l 329 204 l 329 196 q 331 192 329 193 l 331 186 l 331 178 l 329 169 l 329 158 q 331 135 329 143 q 332 128 331 131 q 336 113 332 121 l 338 107 q 333 47 339 90 q 328 17 329 18 q 325 7 325 8 q 311 4 322 4 l 307 -3 l 304 -10 q 283 -6 299 -10 q 258 1 267 -3 q 250 15 256 3 l 246 26 l 246 31 l 246 33 l 244 33 q 243 36 243 33 l 244 40 l 243 40 l 242 40 l 242 44 l 242 47 q 232 218 233 92 l 231 221 q 232 232 231 228 q 231 242 232 239 l 231 250 q 229 260 229 254 q 231 269 229 265 q 232 279 232 274 q 235 328 232 306 l 236 339 l 236 351 q 235 386 236 371 l 233 413 l 232 440 q 231 475 231 456 q 232 511 231 496 l 232 542 l 232 550 q 231 556 231 551 q 232 564 231 561 l 232 569 l 232 579 l 232 586 q 231 590 231 588 q 232 594 231 593 l 232 596 q 233 631 233 610 l 232 631 l 231 631 l 233 640 q 234 676 235 656 q 233 718 233 696 q 232 749 232 726 l 232 767 l 232 782 l 231 785 q 232 792 231 789 l 232 796 q 236 860 232 821 l 238 875 l 238 893 l 239 913 l 236 913 l 232 913 q 228 914 229 913 l 225 914 q 215 913 219 914 l 214 913 q 213 914 213 913 l 210 914 l 192 914 l 192 913 l 188 914 q 168 915 183 915 q 132 914 147 915 l 122 914 l 115 914 l 114 913 l 111 914 l 108 914 q 78 915 90 914 q 71 917 76 917 l 64 917 l 49 919 q 44 921 44 919 q 43 919 43 921 l 40 921 l 40 921 l 39 921 q 38 922 38 921 q 36 924 38 924 q 32 928 32 926 l 32 928 l 31 928 q 29 942 24 939 q 32 946 31 942 q 33 950 32 949 q 33 951 35 950 q 38 954 36 954 l 42 960 q 50 969 47 969 q 99 972 69 972 q 117 971 107 971 q 126 972 122 971 l 135 972 l 158 972 l 182 972 l 185 972 l 188 972 l 190 974 l 193 974 q 217 975 207 974 l 244 975 l 265 975 l 303 972 q 311 974 304 971 l 313 975 q 329 975 318 978 l 335 975 q 339 974 336 974 l 340 974 l 350 974 l 361 974 l 367 972 l 367 969 q 383 972 371 974 q 421 971 408 969 l 425 971 q 429 971 428 969 l 432 971 l 435 971 l 439 971 q 443 969 440 969 q 463 969 453 968 q 467 971 465 969 l 469 971 q 474 972 472 971 l 476 974 l 482 974 q 507 969 492 974 q 524 965 522 968 q 527 965 525 965 q 529 956 529 964 l 532 953 l 536 950 l 528 922 z "},"U":{"ha":632,"x_min":83,"x_max":549,"o":"m 511 975 q 522 953 518 968 l 525 935 l 525 929 l 525 922 q 526 922 525 921 l 526 921 l 526 915 l 526 908 l 528 908 l 529 908 l 529 901 l 529 894 q 546 469 546 768 l 549 460 l 546 404 l 546 385 q 544 360 546 365 l 538 307 q 517 192 528 238 q 501 140 514 178 q 431 20 469 53 q 321 -12 392 -12 q 222 11 272 -12 q 179 51 197 26 l 151 90 q 149 97 150 93 q 147 106 147 101 q 119 185 131 143 l 119 183 l 117 183 l 113 210 q 83 517 88 393 q 85 572 83 549 l 85 615 l 83 625 q 85 642 83 636 l 86 653 q 99 817 90 738 q 100 827 100 821 q 101 839 100 833 l 104 867 q 106 885 106 874 l 117 950 l 117 953 l 117 957 l 117 956 l 119 957 l 119 958 l 119 963 l 121 964 q 125 969 122 964 q 128 971 125 971 l 131 972 l 131 972 q 154 974 150 979 l 160 972 q 167 967 165 971 l 168 967 l 171 967 l 172 964 l 174 961 l 181 953 q 193 933 183 949 q 196 922 196 925 l 185 718 q 179 572 179 633 q 181 497 179 526 q 204 254 186 343 q 211 224 208 232 q 217 208 214 215 q 319 32 271 47 q 338 29 331 29 q 385 61 364 29 q 392 82 386 61 l 404 122 q 410 135 406 125 q 414 147 413 138 l 414 154 q 429 225 415 160 q 431 235 429 231 l 433 243 l 433 247 l 438 240 l 438 246 q 442 317 436 257 q 450 492 453 400 l 450 508 l 450 528 l 450 540 q 449 556 449 544 q 450 578 449 568 l 450 600 q 447 690 450 632 q 444 725 444 704 l 440 746 l 438 760 q 436 817 436 776 q 438 892 436 864 q 442 951 439 943 l 446 969 q 456 974 446 975 l 458 974 l 463 985 l 467 994 l 482 990 q 511 975 500 986 z "},"V":{"ha":642,"x_min":56,"x_max":588,"o":"m 313 6 q 303 17 308 8 q 294 25 296 25 l 293 28 l 293 32 l 292 31 q 290 33 290 31 q 289 38 290 36 l 288 36 l 288 40 l 286 43 q 236 199 271 75 l 233 201 q 232 206 232 203 q 231 211 232 208 l 228 221 l 226 229 q 221 247 222 240 q 219 258 219 251 q 210 306 214 276 q 208 318 208 308 l 206 329 q 186 390 203 340 l 168 453 l 158 489 l 150 522 q 149 529 150 526 q 144 544 144 538 l 140 560 q 139 563 139 561 q 138 567 139 565 l 136 571 l 136 576 l 136 579 l 128 614 l 126 614 l 125 625 q 96 738 121 649 l 86 774 l 83 776 l 83 783 l 83 788 q 71 856 76 815 q 64 892 64 883 q 58 928 58 919 l 57 939 l 57 943 l 56 946 q 57 947 56 947 l 57 950 q 56 954 56 951 l 57 956 l 58 958 l 61 969 l 63 972 l 63 974 q 72 979 64 976 q 85 982 81 982 q 92 980 88 982 q 100 975 96 978 q 101 975 100 974 l 104 975 l 107 972 l 108 969 q 121 961 113 965 q 142 942 140 951 q 158 890 149 922 q 172 833 168 858 l 181 793 l 186 774 l 192 754 l 206 708 l 218 660 q 219 654 218 656 q 222 643 219 651 q 225 639 225 639 l 247 558 l 263 499 q 276 428 264 497 q 283 417 276 424 l 286 413 q 296 382 290 404 l 296 374 q 296 364 294 369 l 299 361 l 303 344 q 308 324 303 349 l 308 313 l 304 313 q 315 282 314 306 q 332 215 321 249 q 335 207 333 215 q 336 217 336 211 q 349 270 343 243 q 358 307 356 297 q 361 317 358 314 l 361 324 q 363 328 361 326 q 381 410 368 363 q 394 468 394 464 l 415 538 q 417 544 417 539 l 417 553 l 417 557 q 424 590 417 567 l 428 599 q 431 607 428 599 l 431 611 l 435 629 l 440 651 l 444 661 l 447 661 l 447 667 q 453 694 447 678 q 472 768 465 738 l 476 782 l 476 788 q 481 803 476 796 l 483 811 q 492 849 490 831 l 493 856 q 494 863 494 858 l 494 872 q 494 879 493 878 q 513 939 497 897 q 526 971 522 967 q 529 976 528 972 q 533 981 531 981 q 542 981 536 982 l 546 986 l 551 993 l 563 988 q 583 972 575 981 q 586 957 586 969 l 586 944 q 585 940 586 942 q 583 936 583 939 l 585 936 q 585 932 588 935 l 583 929 q 585 928 583 928 l 585 925 q 583 921 583 924 q 544 740 578 878 l 544 736 q 542 724 543 731 q 539 715 540 718 q 538 706 539 710 l 536 697 l 532 686 l 529 675 l 521 649 l 514 625 l 506 600 l 499 563 q 492 533 492 533 q 487 503 490 522 q 479 468 483 485 q 469 432 474 451 q 461 399 464 413 q 460 390 460 396 q 457 376 460 382 q 453 361 453 367 l 451 353 q 450 349 450 351 q 449 344 450 346 l 447 343 l 438 308 l 439 308 l 435 299 l 410 192 l 406 175 l 401 160 l 401 156 q 400 150 401 151 q 399 146 399 149 l 381 88 q 375 71 379 86 l 375 67 q 376 38 378 39 l 376 26 q 364 21 376 24 l 363 14 l 360 7 q 347 6 351 7 q 343 1 346 1 l 340 0 l 340 -1 l 335 -3 q 322 1 322 -3 l 318 6 l 313 6 z "},"W":{"ha":968,"x_min":56,"x_max":913,"o":"m 904 979 q 910 965 908 975 q 911 953 911 956 l 911 947 l 910 944 l 911 944 l 913 944 l 913 940 q 911 936 911 939 l 913 936 l 911 933 l 911 929 q 890 757 911 893 l 892 753 q 888 732 888 736 l 886 715 l 883 706 l 881 696 q 878 685 879 692 q 875 671 876 679 l 869 649 l 867 638 l 864 625 q 858 592 860 610 q 856 564 856 574 q 851 536 854 554 q 847 503 849 518 l 842 468 q 837 447 838 454 q 835 436 836 439 q 835 429 832 432 q 832 414 835 419 q 828 400 828 406 l 828 392 l 828 388 l 826 385 l 824 381 l 818 347 l 818 346 l 819 346 l 815 336 q 799 225 807 300 q 793 190 793 203 l 794 186 q 793 181 794 182 q 792 176 792 179 q 781 108 790 160 q 775 74 781 101 q 773 58 775 67 q 769 42 771 49 q 765 32 767 33 l 765 29 l 765 25 l 764 25 l 764 26 l 764 22 l 764 19 q 760 17 760 19 q 757 13 757 14 l 753 8 q 751 7 751 8 l 751 6 q 739 4 750 4 q 728 6 729 4 l 722 10 q 715 17 718 11 l 714 17 l 713 17 q 710 19 711 17 q 710 24 710 22 q 692 44 696 38 q 688 56 688 51 l 688 61 q 654 163 676 85 l 651 165 q 650 175 651 171 l 646 185 l 644 193 q 639 214 640 204 q 638 219 638 217 q 636 224 638 222 q 631 251 631 251 l 624 276 q 618 306 624 278 q 597 379 603 365 l 576 456 q 565 503 568 489 l 556 542 l 550 558 l 547 575 q 544 588 546 583 q 542 596 543 593 l 540 600 l 540 606 l 539 608 l 531 650 l 529 650 l 528 661 q 503 765 522 694 q 433 489 493 718 l 433 479 l 426 454 q 414 406 421 439 q 401 358 407 378 l 393 333 q 376 274 388 308 q 363 221 368 243 q 353 197 358 211 q 347 171 349 182 l 322 63 q 319 40 321 53 q 315 21 317 28 q 308 6 314 14 q 293 -4 301 -1 q 271 -6 285 -6 q 238 1 251 -6 q 219 15 224 7 q 210 40 214 24 q 207 49 210 40 q 203 69 203 65 l 201 76 l 199 92 q 193 111 193 111 q 193 118 190 114 q 192 124 193 122 l 186 161 q 181 183 182 175 q 179 193 181 190 l 178 193 l 178 193 l 175 215 l 124 501 l 115 551 l 108 596 l 104 606 q 103 622 103 611 q 101 635 103 632 l 97 667 q 78 804 93 694 q 73 837 76 814 q 67 883 69 860 q 63 910 65 892 q 58 950 61 928 q 58 969 57 964 l 57 975 l 56 981 l 57 981 l 58 981 l 57 986 q 57 992 56 990 l 58 994 l 58 996 l 60 1004 l 60 1008 q 63 1011 60 1008 l 63 1014 l 63 1015 q 75 1022 65 1018 q 86 1022 85 1025 q 94 1019 89 1022 q 101 1011 99 1015 l 103 1011 q 106 1011 106 1014 l 108 1007 q 111 1003 111 1003 q 124 989 113 1000 q 146 953 140 971 q 166 849 153 922 q 190 704 179 776 q 193 683 192 694 q 197 660 194 672 q 206 601 201 622 q 225 497 217 529 l 268 256 q 269 246 268 250 q 271 233 271 240 l 279 261 q 282 271 279 263 l 285 281 l 286 283 q 289 276 286 276 q 290 282 290 276 q 307 357 289 301 q 353 529 333 446 l 357 547 l 361 564 l 364 576 q 374 613 365 585 l 379 632 q 400 713 392 675 q 403 728 400 714 l 408 761 l 408 775 q 439 878 413 799 q 453 915 447 904 l 458 925 q 471 925 461 928 l 475 929 l 479 933 l 492 929 l 501 926 l 503 926 q 508 925 507 926 l 508 925 l 511 926 l 511 925 l 513 925 q 531 917 531 919 q 547 851 536 908 q 553 821 547 846 q 561 786 553 818 l 572 740 l 585 688 q 588 675 588 679 l 592 664 l 615 574 l 622 543 q 653 410 629 517 l 656 404 l 658 394 l 661 390 q 671 353 667 379 l 674 343 q 674 332 671 339 l 676 328 q 688 285 679 311 l 689 272 l 686 272 q 697 239 690 268 q 704 213 699 229 q 707 246 704 232 q 724 343 722 319 l 725 349 l 725 353 l 725 360 l 725 364 l 739 443 l 744 476 q 751 512 747 494 q 764 567 754 529 l 764 574 l 764 581 l 763 585 q 767 615 763 597 q 769 624 767 621 q 772 632 772 626 l 772 635 q 779 672 772 654 l 782 682 q 786 681 783 681 q 785 692 785 683 q 788 713 785 704 q 800 779 799 744 l 801 788 l 803 793 l 803 799 q 806 813 803 799 q 808 821 808 821 q 813 856 813 838 q 814 863 813 860 l 814 869 q 813 879 814 875 l 811 885 q 825 944 811 903 q 832 965 829 957 q 836 975 835 972 q 839 982 838 978 q 844 987 840 986 q 854 986 847 988 l 858 992 l 863 999 q 892 989 875 996 q 904 979 900 983 z "},"X":{"ha":607,"x_min":68,"x_max":538,"o":"m 489 11 q 478 19 485 11 l 471 28 l 471 31 q 468 33 468 33 l 468 33 q 465 36 468 33 l 465 39 l 464 39 l 463 42 l 461 44 q 393 190 442 79 l 390 193 l 388 203 q 379 221 382 215 q 372 238 375 225 q 368 247 369 246 q 360 272 367 258 l 351 293 l 347 306 l 343 317 q 325 357 338 333 q 315 375 317 371 q 306 397 315 374 l 304 394 q 303 389 303 393 q 297 374 301 381 l 293 368 l 288 351 l 288 349 l 285 344 l 283 343 l 269 310 l 271 310 l 265 300 q 224 196 256 279 q 217 179 219 185 q 211 164 211 168 l 211 160 l 207 154 l 206 151 q 176 92 196 129 q 163 60 175 83 l 156 46 l 146 29 l 140 19 q 138 17 140 19 l 138 14 l 136 14 q 135 11 135 14 q 131 7 133 7 l 129 6 l 125 1 q 121 -1 122 -1 l 118 -3 l 118 -4 l 115 -4 q 104 -2 110 -4 q 99 1 99 0 q 96 6 99 3 q 92 15 92 13 l 90 15 l 89 17 l 89 21 l 89 25 l 86 38 q 81 50 82 44 q 82 63 81 56 q 121 164 97 113 l 136 197 q 150 233 147 225 q 167 276 157 250 q 185 322 178 303 l 189 332 q 192 342 189 339 q 219 415 204 375 q 243 475 235 456 l 257 507 l 254 513 q 247 528 249 521 q 242 543 246 536 l 238 551 l 235 554 q 233 560 233 556 l 233 563 q 218 599 235 560 l 217 599 l 213 610 q 161 728 200 646 l 153 749 l 144 765 l 142 769 q 140 776 140 771 q 138 781 139 781 l 110 857 l 101 876 l 93 897 q 79 939 93 897 l 75 950 q 74 954 75 953 l 72 958 q 74 960 72 960 l 74 960 l 72 963 l 71 968 q 71 971 68 968 l 71 972 q 71 988 69 986 l 71 989 l 69 990 q 78 998 71 993 q 86 1001 85 1003 l 92 999 q 101 993 100 996 q 103 993 101 992 l 104 993 l 111 986 l 122 978 q 146 957 140 967 q 172 901 157 935 q 200 836 188 868 q 217 792 214 801 q 228 771 222 782 l 236 751 l 281 651 l 283 646 l 286 640 l 289 635 l 292 629 l 299 615 q 304 631 300 617 l 313 650 l 318 660 l 321 658 l 321 661 q 332 692 321 669 l 361 764 q 363 772 361 768 q 367 778 365 776 q 368 783 368 779 q 375 800 368 790 l 379 808 q 393 846 385 821 l 396 854 q 399 871 399 860 q 400 879 399 878 q 429 943 404 897 l 449 976 q 453 982 450 978 q 458 987 456 986 q 467 986 461 988 q 474 992 468 986 l 479 999 l 503 981 q 510 971 508 975 q 511 954 514 969 l 508 939 q 507 935 508 936 l 506 931 q 507 929 506 929 l 507 929 l 506 926 q 503 922 504 922 q 504 921 503 921 l 503 918 l 501 913 q 435 725 492 874 l 435 721 q 425 699 431 707 q 419 681 425 697 q 415 669 418 675 q 410 660 411 664 q 399 635 408 657 l 388 611 l 382 600 l 376 588 l 354 524 l 347 506 l 354 489 q 363 469 356 486 q 381 419 369 453 q 390 407 382 415 l 392 404 l 407 374 l 408 365 l 410 357 l 413 354 q 428 318 417 346 l 431 307 l 428 307 q 443 278 435 300 q 469 214 451 251 l 472 208 q 474 201 474 206 q 479 193 478 197 q 482 185 479 193 q 485 176 485 176 q 499 147 493 157 l 501 142 q 503 138 503 140 q 504 135 503 136 q 510 129 510 129 l 514 124 q 531 72 521 108 l 538 44 l 538 33 q 529 28 538 31 l 529 21 l 528 14 l 508 11 q 489 11 490 7 z "},"Y":{"ha":582,"x_min":56,"x_max":526,"o":"m 525 983 q 526 978 526 983 l 525 971 l 525 969 l 524 968 q 525 967 524 967 l 525 967 l 525 965 l 524 964 l 522 963 l 522 961 q 489 874 521 947 l 489 871 l 488 865 l 485 860 q 483 856 483 858 q 479 844 482 847 l 475 838 q 472 831 474 835 q 469 824 471 828 q 463 811 465 814 l 460 804 l 457 797 l 453 786 l 447 772 l 438 743 q 422 701 435 733 l 415 682 q 413 674 413 679 q 408 667 408 669 l 406 657 l 404 654 l 403 653 l 403 651 q 394 632 397 642 l 396 632 l 393 626 q 371 571 388 618 l 367 563 l 364 556 l 364 553 q 363 551 364 551 l 361 549 l 350 526 q 351 501 351 521 l 350 476 q 351 463 350 468 l 351 450 q 354 388 354 428 l 354 385 l 354 381 l 356 378 q 357 374 357 376 q 358 346 358 367 q 360 311 358 324 l 360 285 l 356 242 l 358 236 l 361 232 q 363 213 364 221 q 361 207 363 208 q 358 201 358 204 l 361 200 l 361 190 q 360 176 361 181 l 358 171 l 354 171 q 358 153 360 167 q 356 129 356 136 l 357 113 l 357 108 l 357 104 l 358 101 l 358 99 l 358 93 q 357 89 357 92 l 357 83 q 358 68 357 74 l 358 65 q 363 57 358 61 l 365 53 q 354 3 367 40 l 350 -3 q 338 -4 350 -4 l 333 -8 l 331 -11 q 310 -10 325 -11 q 285 -4 294 -8 q 278 3 282 -4 l 272 10 l 272 11 l 272 13 l 271 13 l 271 14 l 271 17 l 269 17 q 269 19 267 17 l 269 21 q 260 117 261 44 l 258 118 l 258 125 l 258 131 l 258 136 q 257 142 257 138 q 260 153 257 150 q 261 168 260 163 l 261 182 l 263 189 q 264 196 264 192 q 263 218 264 208 l 261 233 q 258 251 260 239 q 257 272 257 263 l 257 294 l 257 315 l 257 319 q 256 324 256 321 l 256 328 l 257 332 l 257 338 l 257 343 l 256 346 l 257 349 l 257 350 l 257 372 l 256 372 l 257 379 q 254 451 258 392 l 254 465 l 254 475 l 251 476 q 253 482 251 481 l 254 485 q 256 526 254 510 q 221 583 249 535 l 219 585 l 217 590 l 214 594 l 208 603 l 206 614 q 196 639 200 624 q 192 653 192 651 q 182 671 190 657 l 174 685 q 165 699 171 689 q 156 718 160 708 q 146 738 150 728 q 139 756 142 749 l 136 760 q 132 768 132 764 l 132 771 l 129 776 l 126 781 l 125 782 l 125 785 l 125 786 q 117 806 121 800 l 115 804 l 115 811 q 88 869 103 840 q 86 874 86 871 q 85 879 86 876 q 81 886 83 883 l 78 888 l 78 892 l 78 893 q 67 926 75 899 l 64 935 l 61 943 l 60 950 l 57 958 l 57 964 l 56 965 l 56 967 l 56 967 l 57 968 l 56 969 l 56 971 l 57 972 l 58 974 q 63 981 60 978 l 63 981 l 63 982 q 73 990 65 985 q 82 993 81 994 l 88 994 q 94 994 93 996 l 97 996 l 99 996 l 100 994 l 103 994 l 114 996 q 132 992 128 996 q 145 970 138 983 q 158 943 153 957 l 165 924 l 171 914 q 175 904 174 906 l 186 881 l 199 856 q 199 852 199 854 q 201 850 200 850 l 203 847 l 204 844 q 224 807 213 833 q 240 769 236 781 q 254 731 242 768 q 258 726 254 729 l 263 724 q 272 707 268 718 l 272 703 q 272 697 269 700 l 275 696 q 279 688 276 693 q 283 676 282 682 q 285 672 285 675 l 285 669 l 281 668 q 292 654 288 665 q 307 621 299 632 q 308 617 307 619 q 310 615 308 615 q 311 614 310 614 l 313 611 q 315 603 315 606 l 318 600 l 326 593 l 344 640 l 344 642 l 347 646 l 347 649 l 349 651 q 365 697 353 667 l 378 729 l 396 769 q 397 774 396 772 l 397 778 l 397 781 q 404 800 403 797 l 407 804 l 410 808 l 410 811 q 413 819 411 814 q 418 833 415 825 l 422 839 l 424 839 l 424 840 q 426 849 424 844 q 429 857 428 853 q 446 896 439 874 l 449 900 q 450 904 449 903 l 450 907 q 454 914 450 908 l 457 918 q 464 938 463 933 l 464 940 l 467 944 l 467 949 l 467 953 q 482 979 469 958 q 492 992 490 992 q 495 995 493 993 q 503 994 497 997 l 506 997 l 508 999 l 515 993 q 525 983 525 983 z "},"Z":{"ha":538,"x_min":54,"x_max":482,"o":"m 58 22 q 56 38 54 25 l 56 51 l 57 54 l 58 57 l 58 57 q 57 58 57 57 l 58 61 l 60 64 l 58 65 q 58 68 56 65 q 60 72 60 69 q 117 239 65 104 l 117 243 l 121 254 l 125 264 q 127 273 125 268 q 131 282 129 278 l 136 292 l 140 301 l 161 347 l 167 360 l 172 371 l 194 433 q 203 462 197 443 q 217 496 210 481 q 244 564 224 518 q 246 567 246 565 q 247 571 246 569 q 249 578 247 575 q 253 585 251 582 q 258 600 257 592 l 261 608 l 263 611 q 265 615 263 613 l 267 618 l 281 651 l 279 651 l 279 653 l 285 661 q 326 771 293 678 q 335 788 331 778 q 340 804 339 797 l 340 808 l 344 814 q 346 818 346 815 l 375 881 l 382 896 q 390 913 386 907 q 397 928 393 919 l 389 928 l 376 928 l 375 926 q 371 928 372 926 l 367 928 l 364 928 q 360 926 363 926 q 356 928 357 926 l 351 928 q 342 929 349 929 q 333 931 335 929 q 329 932 331 931 l 324 932 l 317 932 q 308 931 314 931 l 300 931 l 290 931 q 278 929 285 929 q 264 931 269 929 l 251 931 l 249 931 l 247 929 l 244 931 l 242 931 l 235 931 q 233 929 235 929 l 232 931 l 218 931 l 214 931 q 200 932 211 932 q 172 931 183 932 l 164 932 l 157 932 l 156 931 l 154 931 l 151 932 l 124 935 l 117 935 q 110 936 111 935 l 103 936 q 89 939 92 936 l 88 939 l 86 939 l 86 940 l 83 940 l 82 940 l 81 942 q 76 946 76 944 l 76 946 l 74 946 l 74 953 q 74 960 72 958 l 75 963 l 78 967 q 79 968 79 967 q 79 969 78 969 l 81 969 l 82 971 l 86 976 q 97 985 92 985 q 126 988 97 985 l 143 988 q 160 986 150 986 l 168 986 l 175 986 l 194 986 l 211 986 l 214 986 l 215 986 l 218 988 l 219 988 q 238 989 231 988 l 256 989 q 271 989 263 986 l 296 985 q 300 986 297 985 q 303 989 303 988 l 315 989 l 318 988 l 321 986 l 322 988 l 329 988 l 338 988 l 342 986 l 342 983 q 353 985 344 986 q 381 983 363 983 l 385 983 l 388 983 l 389 985 l 392 985 l 396 985 l 399 983 q 413 983 406 981 l 417 983 q 422 986 419 983 l 425 986 l 431 986 l 453 983 q 467 979 464 982 q 470 978 468 979 q 472 969 472 978 l 475 967 l 479 964 l 478 954 q 475 945 476 949 q 472 939 474 942 q 479 908 481 915 q 463 860 474 888 q 440 804 453 832 l 424 767 l 417 747 l 410 729 l 393 685 l 375 638 l 372 632 q 369 622 369 624 l 368 617 l 338 538 q 326 507 333 529 q 283 413 313 471 l 283 407 q 282 397 282 403 l 282 393 q 271 363 281 385 q 265 356 271 361 q 260 347 261 351 l 261 343 q 246 306 258 338 l 239 296 l 236 297 l 236 294 q 228 265 236 285 q 200 199 210 231 q 199 195 199 197 q 197 192 199 193 l 194 185 l 192 175 l 188 167 l 183 158 q 172 124 175 136 q 169 118 171 122 q 168 110 168 114 l 168 101 l 168 94 q 150 53 164 74 l 156 53 l 175 53 l 193 53 l 194 53 l 197 53 l 199 53 l 201 54 l 233 54 q 258 56 256 54 l 286 53 l 292 54 l 294 56 q 307 57 297 57 q 311 56 308 56 l 314 54 l 317 56 l 324 56 l 332 56 l 336 54 l 336 53 q 350 54 342 56 l 365 53 l 381 54 l 385 54 l 388 54 l 389 56 l 392 56 l 396 56 l 399 54 q 415 56 410 54 l 417 56 q 425 58 419 56 l 428 60 l 433 60 q 454 58 446 60 l 469 56 q 474 53 472 56 q 476 47 476 51 q 479 44 476 47 l 482 43 q 478 18 482 25 l 472 14 l 467 11 q 464 11 465 10 l 463 11 l 463 11 q 461 10 463 10 l 460 10 l 460 8 l 458 8 l 456 8 q 379 1 436 3 l 376 0 l 372 0 l 368 0 l 364 0 q 360 -1 363 -1 q 356 0 357 -1 l 351 0 q 340 1 344 0 l 329 1 l 325 1 l 319 1 l 304 1 l 293 0 l 282 0 q 267 -1 275 -1 l 251 -1 l 238 -1 l 235 -1 l 232 -3 l 228 -3 l 226 -1 l 219 -1 l 217 -1 l 217 -1 l 214 -1 q 200 0 208 0 l 200 -1 l 196 0 l 151 0 l 144 0 l 138 0 q 136 -1 136 0 l 133 0 l 132 0 q 106 3 128 0 l 100 0 q 94 -4 94 -6 l 83 3 l 74 8 l 71 8 l 71 10 l 69 10 l 68 10 q 67 11 68 11 q 64 15 64 14 l 63 15 q 58 22 60 18 z "},"[":{"ha":376,"x_min":96,"x_max":376,"o":"m 364 -156 q 336 -161 357 -161 q 325 -164 325 -164 l 318 -164 l 311 -164 l 311 -165 l 304 -165 l 297 -165 q 297 -167 296 -165 l 282 -167 q 162 -141 213 -171 q 104 -64 111 -111 l 101 -60 l 101 -44 q 100 -31 100 -39 l 99 -18 q 97 -4 97 -12 l 97 14 l 97 29 l 99 118 q 99 128 100 122 q 100 143 99 135 l 100 168 q 99 236 100 206 l 99 276 q 97 389 99 360 q 97 419 97 404 q 97 446 96 433 q 100 557 97 514 q 101 606 101 578 l 101 622 l 101 638 q 103 656 101 649 l 104 668 l 104 689 l 104 706 l 104 714 q 106 722 104 719 q 107 728 107 724 l 110 800 l 108 800 l 111 819 q 121 999 111 842 q 122 1019 121 1010 l 124 1036 l 122 1040 q 124 1046 122 1044 l 125 1049 q 128 1063 128 1051 q 131 1072 128 1069 l 135 1081 q 143 1089 143 1089 q 149 1090 144 1090 q 218 1099 167 1099 q 315 1093 293 1099 q 322 1092 317 1092 l 328 1092 l 328 1090 l 335 1090 l 340 1090 q 342 1089 340 1089 l 343 1088 l 354 1085 q 356 1083 354 1083 q 357 1078 357 1082 q 356 1072 357 1074 l 353 1069 q 347 1068 351 1068 l 347 1067 l 347 1065 l 343 1065 l 339 1065 q 276 1058 283 1058 l 225 1058 q 208 1057 208 1058 q 215 1056 208 1056 q 221 1046 221 1056 q 219 1026 221 1036 q 217 1004 217 1017 l 217 983 l 210 835 l 210 825 q 208 814 208 821 q 210 803 208 807 l 210 794 l 208 743 q 206 640 208 724 q 201 490 201 531 q 197 392 201 450 l 194 332 l 197 300 l 199 293 q 200 225 201 258 q 199 207 200 211 q 196 189 196 199 l 199 181 l 199 146 l 199 106 q 197 86 199 94 q 193 92 194 93 q 193 88 192 90 q 199 32 199 76 q 204 -64 197 -17 l 204 -71 q 207 -82 204 -76 q 208 -87 208 -83 l 208 -94 l 208 -101 q 211 -111 208 -108 l 211 -112 l 203 -108 q 194 -110 196 -108 q 190 -112 190 -112 l 189 -115 q 281 -129 218 -129 q 308 -128 299 -129 l 328 -128 l 340 -128 l 357 -128 q 361 -133 361 -131 q 365 -135 361 -135 l 369 -135 q 374 -136 372 -135 l 376 -136 q 375 -140 375 -137 q 374 -143 375 -142 q 364 -156 369 -154 z "},"\\":{"ha":600,"x_min":69,"x_max":533,"o":"m 472 -15 q 460 -4 465 -12 l 451 4 q 450 7 450 4 l 447 11 l 446 11 l 444 14 l 443 17 l 442 17 l 440 19 q 439 24 439 21 q 357 188 415 57 l 353 190 q 349 200 351 192 q 340 218 343 214 q 332 238 336 224 l 328 249 l 318 274 l 308 297 l 300 322 l 269 383 l 261 403 l 240 444 l 211 514 q 210 517 210 515 q 208 521 210 519 q 201 536 203 529 l 200 542 q 193 558 199 550 q 189 567 189 565 l 189 569 q 175 604 179 594 l 174 604 l 171 615 l 126 728 q 119 751 122 740 q 114 764 115 761 l 111 767 q 110 774 110 768 l 110 778 q 90 847 106 790 l 81 885 q 72 921 74 915 q 72 933 71 929 l 71 936 q 69 940 69 938 l 71 940 l 72 940 q 71 944 72 943 q 69 949 69 946 l 71 950 l 72 953 q 75 965 75 965 l 75 967 l 75 968 q 88 975 78 971 q 99 978 97 979 q 104 975 99 976 q 114 971 113 972 q 115 971 114 969 l 118 971 l 121 968 q 124 965 124 965 q 136 958 126 963 q 157 939 156 946 q 174 894 164 924 q 194 833 185 864 l 206 792 l 214 772 l 221 754 l 257 661 q 260 656 258 660 q 261 651 261 653 l 265 646 l 267 640 q 296 575 276 621 q 325 504 315 529 q 351 433 326 503 q 360 422 351 431 l 363 418 q 378 389 372 406 l 381 379 q 382 369 379 376 l 385 367 l 393 350 l 401 329 l 404 318 l 401 317 q 418 288 408 313 q 447 218 428 256 l 450 213 q 457 201 451 207 q 463 186 460 199 q 465 178 465 178 q 482 143 471 161 q 489 131 486 139 l 496 125 q 500 119 500 121 q 522 60 508 107 l 531 26 q 531 14 529 21 q 521 7 533 11 l 519 -1 l 519 -10 l 501 -14 q 472 -15 485 -18 z "},"]":{"ha":376,"x_min":0,"x_max":281,"o":"m 13 -156 q 3 -143 7 -154 q 1 -140 1 -142 q 0 -136 1 -137 l 3 -136 q 7 -135 4 -135 l 11 -135 q 15 -133 15 -135 q 19 -128 15 -131 l 36 -128 l 49 -128 l 68 -128 q 96 -129 78 -129 q 188 -115 158 -129 l 186 -112 q 182 -110 186 -112 q 174 -108 181 -108 l 165 -112 l 165 -111 q 168 -101 168 -108 l 168 -94 l 168 -87 q 169 -82 168 -83 q 172 -71 172 -76 l 172 -64 q 178 32 179 -17 q 183 88 178 76 q 183 92 185 90 q 179 86 182 93 q 178 106 178 94 l 178 146 l 178 181 l 181 189 q 178 207 181 199 q 176 225 176 211 q 178 293 175 258 l 179 300 l 182 332 l 179 392 q 176 438 179 407 l 175 490 q 171 640 175 531 q 168 743 168 724 l 167 794 l 167 803 q 168 814 168 807 q 167 825 168 821 l 167 835 l 160 983 l 160 1004 q 157 1038 160 1015 q 161 1056 156 1056 q 168 1057 168 1056 q 151 1058 169 1058 l 100 1058 q 38 1065 93 1058 l 33 1065 l 29 1065 l 29 1067 l 29 1068 q 24 1069 25 1068 l 21 1072 q 19 1078 19 1074 q 21 1083 19 1082 q 22 1085 22 1083 l 33 1088 l 35 1089 q 36 1090 36 1089 l 42 1090 l 49 1090 l 49 1092 l 54 1092 q 61 1093 60 1092 q 158 1099 83 1099 q 228 1090 210 1099 q 233 1089 232 1090 q 242 1081 233 1089 l 246 1072 q 249 1063 249 1069 q 251 1049 249 1051 l 253 1046 q 254 1040 254 1044 l 253 1036 l 254 1019 q 256 999 256 1010 q 265 819 265 842 l 268 800 l 267 800 l 269 728 q 271 722 269 724 q 272 714 272 719 l 272 706 l 272 689 l 272 668 l 274 656 q 275 638 275 649 l 275 622 l 275 606 q 276 557 275 578 q 279 446 279 514 q 280 415 281 432 q 279 381 279 397 l 279 303 q 278 236 279 267 q 276 168 276 206 l 276 143 q 278 118 278 132 l 279 29 l 279 14 l 279 -4 q 278 -18 279 -12 l 276 -31 q 275 -44 276 -39 l 275 -60 l 272 -64 q 215 -141 265 -111 q 94 -167 164 -171 l 79 -167 q 79 -165 81 -165 l 72 -165 l 65 -165 l 65 -164 l 58 -164 l 51 -164 q 40 -161 51 -164 q 13 -156 19 -161 z "},"^":{"ha":454,"x_min":82,"x_max":372,"o":"m 326 597 q 318 604 322 599 q 313 613 314 610 q 311 613 311 613 q 311 614 311 614 l 310 617 l 310 618 l 310 617 q 307 621 310 617 l 307 622 l 306 622 l 304 624 l 303 628 q 253 774 281 668 l 250 778 q 249 789 249 781 q 242 810 244 806 q 236 832 238 824 q 235 843 235 836 l 228 874 l 222 896 q 221 889 221 893 l 218 876 l 218 876 l 215 868 q 196 808 214 864 l 186 774 l 176 743 l 178 740 q 176 738 176 739 q 175 736 176 736 l 174 732 l 154 675 l 150 661 l 146 647 q 144 642 146 646 q 143 635 143 639 q 139 622 140 628 q 136 614 138 615 l 136 610 l 135 608 l 133 608 l 133 607 l 133 603 l 129 601 l 128 596 l 125 594 l 124 593 l 124 592 q 115 590 122 590 q 107 593 110 590 l 103 596 l 99 601 l 99 603 q 97 603 97 601 q 95 605 96 603 q 94 608 94 607 l 90 617 q 83 638 82 631 q 108 735 88 681 l 119 765 l 128 799 l 151 878 q 153 883 153 879 q 153 885 153 883 q 154 886 153 886 q 156 892 154 890 l 156 894 l 161 933 q 171 983 165 968 q 188 1009 175 1001 q 219 1021 200 1017 q 231 1022 224 1022 q 247 1018 240 1022 q 257 1010 254 1014 q 263 999 263 1001 l 265 996 l 269 990 l 271 989 l 279 965 q 281 956 281 961 q 282 949 279 954 l 283 944 l 289 929 q 292 919 290 925 q 293 907 293 914 l 296 894 q 292 897 293 897 l 293 894 q 304 860 297 890 q 324 782 314 811 q 325 775 324 778 l 328 767 q 328 765 328 767 q 329 764 328 764 q 331 757 331 761 q 332 747 331 751 l 333 740 l 342 710 l 344 706 q 346 699 344 700 q 350 694 346 699 q 353 692 351 692 q 358 671 360 667 l 361 654 l 369 625 q 371 619 369 624 q 371 611 372 614 q 365 608 369 608 l 363 608 q 363 604 361 608 l 363 600 l 361 593 q 344 594 358 594 q 326 597 335 594 z "},"_":{"ha":824,"x_min":32,"x_max":796,"o":"m 786 0 q 774 -3 788 1 l 767 -3 l 764 -3 l 761 -3 l 760 -3 l 756 -3 l 756 -4 l 754 -3 q 750 -4 753 -4 l 621 -3 l 618 -3 q 611 -1 614 -3 l 603 -1 q 600 -1 603 -1 q 596 -1 597 0 l 589 -3 q 582 -1 585 -3 l 574 -1 q 535 0 560 0 l 526 1 l 517 1 q 508 1 517 1 q 469 0 500 0 l 456 0 q 431 -1 439 0 q 421 -1 424 -1 q 394 0 406 -1 q 368 -1 382 -1 l 363 -1 l 357 -1 l 350 -3 l 347 -3 l 340 -1 q 335 -3 339 -3 l 331 -3 l 328 -1 l 326 -1 l 299 -3 l 292 -1 q 266 -2 285 -1 q 207 -3 247 -3 l 193 -4 l 179 -4 l 176 -4 l 172 -4 l 169 -4 l 119 -1 q 116 -2 119 -1 q 107 -1 113 -3 l 93 -1 q 67 0 75 -1 q 58 1 60 0 l 56 1 l 53 1 l 50 1 q 49 3 49 1 l 47 3 l 46 4 l 38 7 l 36 6 l 35 6 q 33 10 33 7 q 33 17 32 14 q 38 21 33 17 l 42 24 q 43 25 42 25 l 44 25 l 47 26 l 71 36 q 122 39 85 39 l 154 38 l 182 38 l 197 39 l 211 39 l 247 40 q 270 40 260 39 q 283 40 281 40 l 288 40 l 292 40 l 296 40 l 300 40 q 333 42 307 40 q 406 43 360 43 q 419 42 408 43 q 458 42 429 42 l 464 42 l 469 42 l 472 43 q 485 46 478 46 l 496 44 q 503 43 501 44 q 510 42 504 42 l 513 43 q 525 44 514 44 q 542 43 532 43 l 549 42 l 549 40 q 560 43 554 43 l 574 42 q 626 40 590 40 l 632 40 l 639 40 q 642 42 642 40 l 646 42 l 660 39 q 674 38 668 38 q 686 39 681 39 l 692 39 l 697 39 q 704 40 701 39 l 708 40 q 718 42 711 42 q 734 40 725 42 q 753 38 743 39 q 776 33 775 35 l 785 31 q 786 25 786 31 l 792 22 l 794 22 l 796 21 l 793 15 q 786 0 792 8 z "},"a":{"ha":538,"x_min":42,"x_max":483,"o":"m 424 -8 q 414 -6 421 -11 l 407 -3 q 404 0 407 -3 l 404 1 l 403 0 l 401 3 l 401 4 l 401 3 l 400 3 l 399 6 l 399 6 q 372 61 382 25 q 333 24 351 33 q 308 11 324 15 q 250 0 274 1 l 242 0 q 218 3 232 0 q 151 24 175 13 q 106 63 126 35 q 67 149 85 92 q 43 289 50 201 l 43 303 q 42 318 42 308 q 43 335 42 328 l 44 344 l 47 386 q 49 393 47 390 l 50 399 q 65 463 58 440 l 64 463 l 63 463 l 71 481 q 165 625 119 589 q 207 646 175 633 l 211 649 q 224 651 210 649 q 263 654 238 654 q 354 619 319 654 q 385 583 363 613 l 399 564 l 407 564 q 418 563 417 564 q 424 560 421 563 q 431 557 428 558 l 432 557 l 436 556 q 438 554 436 554 l 446 550 l 457 544 l 460 539 l 461 525 q 457 490 461 507 l 454 468 q 454 458 451 465 l 454 447 q 451 420 453 438 q 451 390 450 403 l 451 388 q 450 383 450 386 q 451 379 450 381 l 451 376 q 453 332 453 368 q 451 286 451 310 l 451 278 q 450 254 451 263 q 449 242 449 249 l 451 235 l 454 229 q 457 210 457 221 l 454 204 q 453 201 453 203 q 453 200 453 200 l 456 197 l 456 188 q 457 174 456 178 l 456 167 l 451 167 q 457 149 457 163 l 457 138 q 461 110 457 122 l 461 106 q 463 101 461 103 l 464 99 q 465 97 464 99 q 465 93 465 96 l 464 88 q 469 71 467 76 l 472 68 q 476 63 472 64 l 479 61 q 482 36 483 54 q 481 25 482 26 q 479 21 479 24 l 468 14 l 465 10 l 464 6 q 453 1 460 6 q 424 -8 438 -7 m 357 426 q 358 457 358 435 l 360 468 q 361 478 361 472 l 360 479 q 361 483 360 482 l 361 486 l 365 504 q 322 540 340 522 q 276 603 289 589 q 250 618 264 618 q 224 608 238 618 q 203 581 217 603 q 160 472 175 529 l 158 465 q 156 457 156 460 l 154 442 q 147 321 147 386 q 157 208 147 253 l 167 174 l 175 142 l 188 93 l 188 88 q 211 67 190 82 q 218 60 211 67 q 225 51 221 54 l 228 50 q 257 38 243 40 l 264 38 l 264 36 l 282 50 q 308 107 300 78 q 312 115 310 110 q 314 122 314 119 q 315 128 315 124 q 317 136 315 133 q 321 147 318 138 q 325 158 324 157 q 336 213 333 194 q 338 221 336 218 l 338 229 l 338 236 q 338 251 340 243 l 336 263 q 347 350 339 303 l 351 376 l 354 404 l 357 426 z "},"b":{"ha":529,"x_min":69,"x_max":475,"o":"m 92 43 q 86 57 89 47 q 81 67 82 67 l 81 71 l 81 74 l 79 74 l 79 76 l 79 81 l 78 81 l 78 85 l 78 88 q 71 249 71 126 l 69 253 q 71 263 69 258 l 71 272 l 71 281 q 69 289 69 283 q 72 307 69 299 q 74 331 72 321 q 75 353 75 340 l 76 364 q 78 375 78 368 l 78 408 l 76 432 l 76 458 q 75 490 75 472 q 76 524 75 508 l 76 554 l 76 561 q 75 567 75 563 q 76 575 75 572 l 78 581 l 78 589 q 76 596 76 592 l 76 600 l 76 604 l 78 606 q 79 639 79 618 l 78 639 l 76 639 l 79 649 q 80 669 81 658 q 79 689 79 679 q 78 754 78 707 l 79 774 q 78 788 79 786 l 76 792 q 78 797 76 796 l 78 801 l 81 867 q 82 883 82 869 l 82 901 l 85 938 q 86 947 85 946 l 86 951 l 86 954 l 88 954 l 88 958 l 88 963 l 90 965 q 92 972 92 967 q 94 976 92 974 q 96 978 96 976 q 97 979 96 979 q 109 984 99 982 q 121 983 119 986 q 126 981 121 982 q 132 972 129 979 l 135 974 l 136 974 l 140 965 q 163 944 156 950 q 167 933 167 939 q 171 822 171 910 l 171 785 l 171 767 l 171 747 l 171 699 q 172 657 171 661 l 172 653 l 172 647 q 174 642 172 643 l 174 638 l 174 586 q 210 603 189 596 q 300 614 242 617 q 342 608 331 614 q 429 549 390 594 q 433 542 432 546 q 436 539 436 539 l 440 533 l 443 528 q 467 444 458 494 q 472 358 475 394 q 456 271 469 332 q 454 263 454 269 l 454 251 l 454 247 q 442 208 453 229 q 436 199 440 203 q 431 189 433 196 l 431 183 l 410 140 l 401 131 l 399 132 q 379 99 396 115 q 324 43 356 69 q 315 38 319 39 l 311 35 q 306 31 307 31 l 301 28 l 286 21 q 253 8 265 11 q 243 6 244 6 q 239 4 242 4 l 225 0 q 196 -3 206 -3 q 154 3 174 -3 q 128 14 135 8 l 125 17 l 117 21 q 118 31 114 24 q 114 35 118 33 l 114 35 l 106 38 q 92 43 94 42 m 174 507 l 168 443 q 169 438 168 439 q 171 429 171 435 l 172 426 q 174 414 174 424 q 172 397 174 404 q 171 389 172 390 l 169 381 l 171 378 l 171 363 l 171 343 l 168 333 l 164 333 q 168 318 168 329 l 167 288 q 165 240 164 257 l 165 233 l 164 228 q 165 224 164 225 q 167 218 167 222 l 164 201 l 163 185 l 164 168 q 165 163 165 167 q 169 149 165 157 l 171 142 q 167 86 171 114 q 160 57 160 57 l 158 54 l 160 54 l 163 53 l 165 51 l 168 50 l 171 49 l 171 50 l 172 49 l 175 47 q 190 46 181 46 q 244 58 217 46 q 292 90 271 69 l 292 93 q 301 108 300 101 q 307 117 306 113 q 315 131 311 126 l 321 139 q 342 183 333 161 l 353 207 q 375 343 371 264 q 374 414 375 393 q 372 421 374 418 q 371 426 371 422 l 371 433 l 371 439 l 365 457 l 367 460 l 367 463 l 358 489 l 357 488 l 357 496 q 315 560 343 536 q 290 572 307 567 l 288 572 q 282 574 283 572 l 278 574 q 224 563 247 575 q 188 526 214 558 q 174 513 188 526 l 174 507 z "},"c":{"ha":419,"x_min":40,"x_max":379,"o":"m 371 128 q 374 118 374 119 q 372 106 374 110 l 369 97 q 368 93 369 94 q 365 89 365 90 q 367 88 367 89 l 365 85 l 363 81 l 363 79 l 364 79 l 358 71 q 287 13 333 36 q 189 -10 240 -10 l 171 -8 l 164 -6 q 133 14 149 1 q 110 39 118 26 q 94 68 101 49 q 69 126 75 108 q 65 143 67 135 q 63 156 63 151 q 40 282 40 240 l 46 361 q 47 371 46 367 q 50 392 47 375 l 51 399 l 54 429 q 56 435 54 433 q 57 439 57 436 q 63 464 61 451 q 68 488 65 476 l 67 489 l 72 503 q 147 638 113 606 q 186 658 153 646 l 190 661 q 203 664 189 661 q 253 668 229 668 q 343 643 315 668 q 367 613 356 635 q 376 582 378 590 l 378 576 l 379 571 l 378 571 l 376 571 l 378 567 q 376 560 379 563 l 375 557 q 374 550 374 554 q 371 546 374 546 l 369 543 l 369 542 q 344 538 350 536 q 339 542 344 540 q 332 547 333 543 q 331 548 332 547 q 329 547 331 549 l 328 547 l 326 550 q 324 554 324 553 q 313 563 318 557 q 293 579 293 572 q 290 589 292 581 q 281 613 289 603 l 267 621 q 238 631 251 631 q 210 618 222 631 q 201 606 207 617 q 193 590 196 596 q 164 494 172 536 q 162 488 163 492 q 161 482 161 485 q 160 474 160 479 l 160 469 q 144 300 144 340 q 142 263 142 269 l 140 251 l 146 240 q 147 236 147 239 q 153 207 151 224 q 151 200 153 201 q 153 190 150 197 l 154 186 l 165 150 l 167 139 l 163 139 q 179 107 168 135 q 213 39 193 71 q 219 31 217 32 q 224 28 222 29 q 233 24 229 22 q 254 36 246 26 q 264 51 263 44 l 265 57 l 288 96 q 300 118 294 107 l 306 129 l 308 135 q 315 142 315 142 q 326 142 317 143 q 332 146 328 140 l 336 151 l 350 144 q 360 140 353 143 q 371 128 367 136 z "},"d":{"ha":519,"x_min":42,"x_max":450,"o":"m 371 6 q 363 17 367 8 l 358 28 l 357 28 q 236 -3 306 -3 q 167 7 200 -3 l 161 7 q 137 23 150 14 q 117 39 124 32 q 97 65 107 49 q 72 124 79 97 q 57 200 64 150 q 42 361 42 310 q 51 446 42 408 q 90 544 63 493 q 100 563 100 560 l 107 572 l 111 576 l 119 586 l 125 593 q 133 600 131 599 l 135 603 l 167 628 l 167 629 l 176 635 q 279 665 235 661 l 311 665 l 315 665 q 336 658 325 665 l 336 738 l 338 757 l 339 772 l 336 776 q 338 782 336 781 q 339 786 339 783 q 346 851 342 828 q 349 867 346 851 q 350 885 349 881 l 353 901 q 360 929 356 925 l 360 932 l 360 936 l 360 936 l 361 935 l 361 939 q 364 944 361 942 q 365 946 365 944 l 369 951 q 372 954 369 954 l 374 957 l 374 958 q 388 960 379 960 q 397 958 396 961 q 404 955 400 958 q 410 947 408 951 l 411 947 l 414 947 q 415 943 414 944 l 415 940 q 425 929 417 938 q 433 920 426 928 q 439 907 439 913 q 436 803 439 836 l 432 765 l 433 747 l 433 728 l 433 696 q 432 663 432 681 l 432 636 l 432 632 l 432 626 l 432 619 l 433 617 q 435 543 435 601 q 436 481 435 489 l 432 414 l 433 408 l 436 400 l 438 397 q 440 367 440 383 q 438 358 438 358 q 436 350 436 357 l 438 346 q 439 331 438 338 l 439 310 l 436 300 l 433 300 q 438 281 438 296 q 437 246 438 269 q 438 204 436 222 l 438 197 l 438 190 q 439 186 438 188 q 440 181 440 185 l 440 172 l 439 164 l 439 154 q 440 131 439 139 q 442 125 442 129 q 446 111 442 117 l 449 106 l 450 92 q 446 50 450 75 q 440 21 442 22 q 438 11 438 13 q 425 8 435 8 q 421 3 422 8 q 417 -4 418 -4 l 399 -3 q 371 6 382 -1 m 344 142 l 340 208 l 339 211 q 339 222 336 215 q 338 232 339 229 l 338 240 q 336 249 336 243 q 338 258 336 254 l 338 268 q 339 293 338 283 l 339 315 l 340 326 l 340 339 q 339 372 340 354 q 336 399 338 389 l 335 442 q 333 460 333 449 l 333 497 l 333 529 l 333 536 q 332 542 332 538 l 332 550 l 333 553 l 329 561 l 322 581 q 296 619 310 610 q 274 625 286 625 q 215 599 242 622 l 210 593 q 204 585 206 589 q 156 472 168 526 q 138 356 143 417 q 138 349 135 353 l 140 339 q 142 331 140 333 l 143 326 l 149 271 q 149 256 150 261 q 149 238 146 249 l 151 231 l 168 151 l 169 139 q 165 138 167 139 q 176 119 172 132 l 178 111 q 210 57 188 81 l 218 49 q 226 43 222 44 l 239 35 q 268 29 256 28 q 290 38 281 29 q 326 78 314 57 l 336 96 l 344 108 l 346 111 l 344 142 z "},"e":{"ha":472,"x_min":56,"x_max":415,"o":"m 388 94 q 368 63 381 75 l 360 53 l 354 49 l 350 44 l 350 44 l 346 42 q 342 36 342 38 q 333 29 339 31 q 240 4 294 4 q 129 38 179 4 l 125 40 l 108 64 q 100 78 106 68 q 91 96 94 88 q 85 117 88 104 l 67 193 l 67 207 l 64 233 q 56 361 56 315 q 63 450 56 401 q 99 556 74 503 q 107 574 104 574 q 123 595 113 581 q 138 617 133 610 l 146 621 q 186 646 167 638 l 186 647 l 199 651 q 254 660 222 660 q 317 651 288 660 q 364 628 347 643 q 378 604 375 614 q 388 586 383 586 l 392 582 q 399 567 397 574 q 414 465 415 511 q 413 413 414 425 q 408 363 413 408 l 407 349 l 407 346 l 407 342 l 406 342 l 406 338 l 406 333 l 404 333 q 401 331 403 333 q 400 326 400 329 q 397 321 400 324 q 396 319 396 321 l 396 318 q 372 314 372 310 l 371 314 q 360 319 365 314 q 324 318 339 319 l 322 317 l 319 317 l 315 317 l 313 317 l 310 317 l 307 317 l 303 317 q 296 317 300 319 l 288 317 q 283 318 285 317 l 279 318 l 268 318 l 260 317 l 251 317 q 239 315 246 315 l 228 315 l 218 315 l 215 314 l 214 314 l 211 315 l 208 315 q 203 314 204 315 q 201 315 201 314 l 200 315 l 189 315 l 189 314 l 186 315 q 157 317 182 317 q 158 286 158 308 q 157 272 158 275 q 158 260 156 269 l 161 256 q 168 200 161 246 l 171 186 q 165 188 168 190 l 167 185 q 181 144 172 179 q 207 78 189 110 q 210 74 208 76 q 211 69 211 71 q 215 63 215 65 q 218 58 217 61 q 219 50 219 54 q 235 35 225 40 q 251 35 246 29 q 300 67 279 46 l 318 86 q 332 100 318 86 q 344 114 343 111 q 353 115 349 119 l 354 113 l 365 124 q 369 128 365 126 q 375 135 375 132 q 381 119 379 122 q 388 94 388 104 m 329 354 q 328 358 329 357 q 325 372 325 367 q 324 418 324 382 q 306 549 317 524 q 293 571 303 557 q 285 583 289 576 q 281 592 282 589 q 266 614 278 606 q 240 622 254 622 q 228 619 236 622 q 221 615 225 619 l 214 608 q 169 487 182 550 q 150 361 156 424 l 150 354 l 154 354 l 165 354 q 176 353 169 353 q 183 354 179 354 l 185 354 l 186 354 l 189 354 l 189 354 q 211 356 193 356 l 232 354 l 254 353 l 258 356 l 260 356 q 269 357 261 357 l 272 357 l 275 356 l 276 356 l 282 356 l 288 356 l 292 354 l 292 353 q 301 354 294 356 l 313 353 l 324 354 l 326 354 l 329 354 l 329 354 z "},"f":{"ha":378,"x_min":28,"x_max":450,"o":"m 149 3 q 142 26 144 7 l 139 43 q 139 47 138 43 l 139 53 l 138 53 q 138 58 136 53 l 138 64 l 136 64 q 136 69 135 64 l 136 74 q 124 250 131 113 q 118 336 124 267 l 117 342 l 117 357 l 113 386 q 111 399 111 392 l 111 414 l 111 431 l 111 467 q 110 501 110 481 l 110 519 l 110 536 q 108 550 108 543 q 107 565 108 557 l 86 565 l 81 567 l 78 567 l 76 565 q 75 567 75 565 l 74 567 l 57 571 q 47 574 50 571 q 43 575 44 574 q 39 576 40 575 l 35 576 q 33 578 35 578 l 33 578 l 33 578 q 32 579 32 578 l 31 581 l 31 581 l 28 583 l 28 585 l 28 592 q 29 596 28 596 l 31 597 l 33 601 l 33 603 l 33 603 l 36 604 l 46 614 l 64 613 q 74 611 69 613 l 82 608 l 88 608 l 92 608 l 100 608 q 104 607 101 607 q 103 622 103 614 l 100 703 q 107 786 100 726 l 107 794 q 111 811 107 806 l 113 817 l 115 832 q 117 841 115 839 q 118 844 118 843 l 119 846 l 131 881 l 129 882 l 135 890 q 208 975 175 951 q 261 1003 225 986 l 267 1006 l 282 1010 q 354 1018 321 1018 q 415 1006 397 1018 q 443 965 433 994 q 447 933 450 942 l 447 928 l 446 921 l 444 922 l 443 922 l 442 910 l 439 907 l 436 906 l 432 899 l 431 893 l 428 892 l 425 889 q 422 886 425 889 l 421 883 l 415 883 q 400 888 400 883 l 397 894 q 394 907 394 903 q 393 908 394 908 q 392 908 392 907 l 392 913 l 390 918 q 369 936 386 924 q 364 942 364 938 l 365 950 q 358 972 365 968 q 331 979 349 979 q 278 963 306 979 q 238 925 251 946 q 217 868 222 901 l 217 865 q 215 861 215 864 q 214 857 214 860 l 214 853 q 203 724 203 756 q 201 678 203 696 l 199 642 q 203 625 199 642 l 204 619 q 206 604 206 615 q 226 604 217 603 l 228 604 l 231 604 l 232 604 l 233 604 l 236 604 l 239 604 q 250 604 244 603 l 253 604 l 256 606 l 258 606 l 260 607 l 264 607 l 281 604 q 292 601 292 601 q 296 600 293 600 q 297 594 297 600 l 300 592 l 303 590 q 301 585 301 589 q 296 571 299 575 q 292 568 294 569 q 286 567 289 567 l 285 567 l 285 565 l 282 567 l 282 565 l 281 565 l 279 565 q 224 564 272 564 l 222 563 l 219 563 l 217 563 l 214 563 l 211 563 l 208 563 l 206 563 l 204 563 l 204 554 l 207 550 q 208 525 207 536 q 210 496 210 514 l 208 482 q 204 485 206 486 q 204 482 203 483 q 211 436 211 471 q 217 331 211 381 q 218 319 217 324 l 218 308 q 219 301 218 304 q 221 293 221 299 l 221 279 l 219 265 q 224 211 219 239 l 226 189 q 229 176 226 185 l 232 167 q 226 72 235 132 q 219 22 222 32 l 214 7 q 201 3 214 1 l 197 -8 q 193 -18 196 -10 q 171 -10 186 -17 q 149 3 156 -4 z "},"g":{"ha":507,"x_min":28,"x_max":438,"o":"m 101 -25 q 109 -39 106 -29 q 114 -53 113 -49 q 115 -56 115 -53 l 115 -58 l 117 -58 q 118 -61 118 -58 l 118 -65 l 119 -65 q 121 -68 121 -65 l 121 -71 q 243 -183 167 -150 l 247 -183 l 269 -187 q 288 -185 278 -187 q 300 -181 297 -183 q 319 -154 315 -168 l 326 -137 q 335 -11 335 -100 l 333 33 q 332 76 333 65 q 331 88 332 83 q 329 94 329 90 q 331 104 329 100 l 331 111 q 329 124 329 115 q 328 129 328 125 q 293 97 314 113 l 289 96 q 249 83 264 86 q 226 81 235 81 q 171 86 189 81 q 143 99 160 89 q 76 165 100 122 q 40 274 53 208 q 33 350 33 301 q 35 401 33 383 l 35 413 q 36 425 35 422 q 38 431 38 428 q 40 439 38 435 l 42 447 q 47 481 47 464 q 53 490 50 488 q 72 540 51 486 l 71 542 l 78 554 q 174 661 133 635 q 208 675 181 665 l 213 676 l 222 678 q 264 682 247 682 q 329 664 304 682 q 354 641 342 656 q 368 619 367 626 l 371 615 l 374 611 l 372 610 l 375 606 l 378 601 l 378 599 q 376 594 376 597 l 379 579 l 379 576 l 381 574 q 382 574 381 572 l 385 574 q 386 569 385 571 q 389 565 389 565 q 399 554 390 563 q 417 529 415 538 q 422 401 422 489 l 421 358 q 422 335 421 344 l 422 314 l 422 261 q 424 206 422 214 l 424 200 l 424 194 q 425 189 424 190 q 426 185 426 188 q 438 17 436 94 q 428 -78 438 -24 q 426 -86 426 -81 l 426 -96 l 428 -101 q 415 -142 425 -125 q 410 -151 414 -149 q 403 -161 406 -154 l 401 -165 q 365 -201 378 -192 q 357 -206 361 -206 q 353 -207 356 -207 l 353 -206 q 317 -219 340 -215 q 251 -226 279 -226 q 224 -225 233 -226 q 202 -222 215 -224 q 182 -217 189 -219 q 170 -212 176 -215 q 157 -208 164 -210 q 111 -189 129 -199 q 106 -185 110 -187 q 93 -178 101 -183 q 82 -174 88 -176 q 74 -169 76 -171 q 31 -92 35 -131 q 28 -65 28 -72 q 31 -44 28 -56 q 36 -28 35 -29 q 49 -24 36 -22 l 53 -15 q 56 -12 54 -14 q 58 -6 57 -10 q 80 -14 65 -8 q 101 -25 94 -19 m 325 363 l 324 365 q 325 372 324 369 l 325 378 l 328 453 l 328 474 q 329 493 328 489 l 329 513 q 331 533 329 526 q 332 544 331 543 l 332 550 l 332 553 l 333 553 l 333 557 l 333 561 l 335 563 l 336 564 l 339 569 l 338 569 l 335 574 l 332 576 l 313 586 q 297 594 300 592 q 285 614 293 597 q 269 633 272 632 q 244 643 258 643 q 201 615 221 643 q 158 535 175 581 l 156 529 l 154 524 q 153 518 153 522 l 153 515 q 151 511 151 514 q 136 372 136 440 q 139 322 136 353 q 157 217 143 278 l 160 213 l 164 208 l 168 203 l 169 200 l 182 172 q 183 167 183 171 q 186 158 183 164 l 188 157 q 203 135 197 139 l 207 129 l 206 128 l 217 125 q 226 121 224 121 q 271 142 250 121 q 278 150 276 147 l 281 156 l 282 158 l 288 165 l 292 172 q 304 204 300 186 q 308 219 307 218 l 308 229 l 307 236 q 315 282 310 264 q 321 309 318 294 q 324 338 324 324 q 326 357 326 357 l 325 363 z "},"h":{"ha":579,"x_min":97,"x_max":524,"o":"m 436 7 q 429 19 432 13 q 425 31 426 26 l 425 33 l 425 36 l 424 36 l 424 39 l 424 43 l 422 43 l 422 46 l 422 50 l 421 107 q 420 121 419 111 q 421 144 421 131 l 422 174 l 424 243 l 422 247 q 424 261 422 256 l 424 274 l 424 283 q 422 294 422 288 q 424 307 422 301 l 424 319 q 425 343 425 326 q 424 378 425 365 l 425 393 q 424 407 425 406 q 393 532 422 453 q 372 585 382 567 l 369 590 q 364 600 364 596 q 361 603 361 603 q 351 615 361 606 l 351 617 l 350 619 l 331 640 l 331 639 l 324 646 q 281 632 303 646 q 247 597 260 618 q 232 568 235 574 l 232 565 l 229 561 q 226 557 226 558 l 208 511 q 210 474 210 497 q 206 385 210 432 q 210 369 206 382 l 211 364 q 213 331 214 346 q 211 321 213 322 q 208 311 208 318 l 211 308 q 210 290 210 304 l 210 268 l 207 257 q 204 257 206 258 q 207 226 210 251 q 203 161 203 193 q 204 156 204 160 q 203 149 203 153 q 204 144 203 146 l 204 140 q 203 133 204 136 l 201 125 l 200 111 l 201 97 l 201 93 q 204 82 201 90 l 207 76 l 207 71 q 199 38 207 58 l 190 19 l 186 17 l 188 15 q 190 14 188 14 l 192 13 q 186 8 193 11 l 185 7 q 157 1 169 1 q 146 6 146 1 l 146 7 l 143 8 l 131 6 q 117 11 122 6 l 114 13 l 128 19 l 122 22 q 118 26 121 22 l 108 32 l 107 32 q 99 39 100 35 l 97 42 l 99 63 l 100 71 q 101 65 101 69 l 104 61 l 106 64 q 107 69 107 65 l 106 72 l 106 76 q 104 81 104 78 l 106 83 l 106 110 q 107 142 106 129 l 107 171 l 106 174 q 107 183 106 179 l 107 193 l 107 201 q 106 210 106 204 q 107 219 106 215 q 108 229 108 224 q 110 256 108 246 q 111 276 111 265 q 113 289 111 283 q 114 301 114 294 l 114 322 l 111 369 l 107 438 q 106 447 106 440 q 107 460 106 456 l 107 479 q 108 503 108 489 q 107 519 108 515 l 107 528 q 106 536 106 531 q 107 546 106 542 l 107 551 l 107 564 l 107 572 q 106 576 106 574 q 107 582 106 581 l 107 585 l 107 625 l 106 625 l 104 625 l 106 638 q 101 765 108 669 l 101 786 q 100 804 101 801 l 99 807 q 100 815 99 813 l 100 819 q 101 889 100 860 l 101 907 l 101 924 q 103 940 101 933 l 103 958 q 104 968 103 967 q 104 971 107 968 l 104 974 q 106 975 104 975 q 107 974 106 974 l 107 978 q 106 982 106 979 l 107 983 l 110 983 l 113 989 q 114 993 113 992 l 115 996 l 117 997 q 128 1000 121 999 q 140 1001 136 1001 q 146 997 140 999 q 154 992 153 994 l 156 992 l 158 992 l 160 989 l 161 986 q 172 976 163 983 q 189 957 186 967 q 196 847 196 919 l 196 803 q 199 782 196 804 q 200 760 199 764 q 201 706 200 732 q 203 651 203 679 q 204 644 204 650 l 204 643 l 206 644 q 318 690 253 681 l 333 690 l 349 690 q 424 649 386 679 q 478 590 461 619 q 503 510 490 567 q 511 494 503 507 l 513 489 q 521 450 519 472 q 519 439 521 442 q 519 428 517 435 l 521 424 q 522 410 521 415 l 524 374 l 522 361 l 519 361 q 524 339 524 356 l 522 286 q 519 231 519 250 l 519 222 l 519 213 q 521 208 519 210 q 518 189 521 208 q 517 179 517 185 q 515 138 514 151 l 515 131 q 519 113 515 121 l 521 106 q 513 44 522 88 q 506 18 506 18 l 503 10 q 489 7 500 7 l 485 1 l 482 -4 l 468 -1 q 436 7 449 1 m 100 71 l 103 76 l 101 82 l 100 71 z "},"i":{"ha":264,"x_min":56,"x_max":189,"o":"m 113 0 q 105 6 110 0 q 99 14 100 11 l 99 17 q 97 18 99 18 l 96 18 l 96 19 l 96 22 l 94 22 l 94 22 q 93 25 93 22 l 93 26 q 76 140 82 51 l 75 142 q 74 149 74 143 l 74 156 l 72 168 q 72 175 71 169 l 72 181 q 74 197 74 185 l 74 213 q 76 219 74 215 l 76 228 q 75 251 76 242 l 72 271 l 71 285 q 69 311 69 296 l 69 335 l 69 357 l 69 363 q 68 367 68 364 l 69 372 l 69 375 l 71 382 l 71 386 l 69 389 q 71 390 69 390 l 71 393 q 72 415 72 403 l 69 415 l 72 422 q 73 440 74 431 q 72 458 72 450 l 72 494 q 74 507 72 501 l 74 517 l 71 519 q 72 524 71 522 l 74 526 q 79 567 74 536 l 82 589 q 83 599 82 594 q 85 613 83 608 l 88 618 l 89 621 l 89 622 l 90 622 q 92 625 92 622 q 92 626 90 626 l 93 626 l 94 628 q 100 633 96 633 q 101 635 101 633 l 103 635 q 114 638 107 636 q 126 638 121 639 q 132 635 126 636 q 139 631 136 633 q 140 631 139 629 q 144 628 142 631 l 146 625 q 165 613 151 624 q 169 606 169 608 q 171 568 171 597 q 169 538 171 546 q 168 513 168 526 q 169 500 168 506 l 169 489 l 168 457 q 169 428 168 429 l 169 425 q 169 421 168 424 l 171 418 l 171 414 q 172 325 172 393 l 168 279 l 171 274 l 174 268 q 175 249 178 261 q 174 243 175 244 q 172 238 172 242 l 174 235 q 175 225 174 229 l 174 210 l 172 204 l 168 203 q 172 183 175 199 l 172 172 q 175 140 172 163 l 174 136 l 174 132 l 175 129 l 176 126 l 176 121 l 175 115 q 178 93 175 107 q 180 86 179 90 q 181 79 181 82 l 185 75 l 188 71 l 189 63 q 185 36 189 53 q 182 17 183 18 l 179 10 q 167 7 179 10 q 163 1 164 7 l 160 -1 l 138 -3 l 126 -3 q 113 0 115 -3 m 92 846 q 92 844 92 846 q 93 842 92 843 l 96 842 q 97 846 96 844 q 103 847 99 847 l 103 849 l 104 850 q 106 850 106 850 l 108 851 l 110 851 l 110 850 l 110 851 l 110 853 l 110 851 l 121 860 l 122 861 l 122 861 l 125 863 l 126 863 l 128 864 l 131 863 l 131 863 l 131 863 l 131 863 q 133 863 132 864 q 135 863 133 863 l 136 863 q 140 861 138 863 q 143 858 142 860 l 143 858 q 148 857 146 858 q 154 856 150 856 l 160 856 l 160 853 l 172 842 q 189 789 182 826 l 186 782 l 186 782 l 185 782 q 178 768 182 771 l 178 768 l 178 768 l 175 768 l 175 765 l 175 765 q 167 746 174 753 l 167 746 l 165 743 l 165 744 l 165 744 l 165 743 l 165 744 l 163 744 l 161 743 l 160 743 q 156 743 158 743 q 147 747 154 743 q 138 743 140 743 l 138 743 l 138 743 l 133 742 l 133 742 l 132 742 q 130 741 131 742 q 128 740 129 740 l 126 740 l 125 738 l 124 738 l 111 735 l 107 735 q 86 746 101 735 l 85 747 q 81 749 82 750 q 79 749 79 749 q 76 753 78 750 q 69 760 74 757 l 68 761 q 67 763 68 763 q 67 765 67 764 l 65 768 l 65 769 l 64 772 l 64 775 l 64 776 q 62 781 64 778 q 63 783 60 783 q 61 785 61 783 l 61 785 q 58 789 58 786 l 57 790 l 57 792 l 56 803 q 60 828 56 817 q 76 842 65 839 l 78 843 l 78 843 l 78 842 l 79 846 l 79 843 l 79 843 q 81 844 81 843 q 82 846 81 846 l 85 846 l 85 846 l 85 847 l 85 846 l 86 846 q 92 846 86 846 z "},"j":{"ha":317,"x_min":-64,"x_max":250,"o":"m -1 -137 q 11 -147 6 -140 q 19 -157 17 -157 l 21 -160 l 22 -164 l 24 -164 q 26 -167 24 -164 q 28 -169 26 -169 l 29 -169 l 31 -172 q 32 -176 32 -174 q 76 -221 56 -204 q 92 -226 83 -226 q 106 -219 100 -226 l 106 -217 l 108 -206 l 111 -194 q 113 -188 111 -192 q 117 -182 115 -185 q 129 -144 124 -169 l 135 -121 q 142 -71 139 -99 q 146 31 144 -43 q 149 128 149 81 l 149 139 q 147 149 147 143 q 149 161 147 157 l 150 169 q 147 194 150 181 l 146 200 q 147 206 146 204 q 149 210 149 207 q 147 261 149 246 l 146 261 l 146 263 l 146 278 q 136 436 147 315 q 135 460 135 440 q 133 481 135 478 l 132 485 q 132 493 131 489 l 133 499 q 131 572 131 519 l 129 589 l 129 606 q 135 642 133 642 l 133 643 l 133 647 l 135 647 q 136 647 136 646 l 136 649 l 136 651 l 138 651 l 139 653 q 144 660 140 658 q 146 661 146 660 l 147 661 q 158 663 151 663 q 171 664 165 664 q 176 661 171 663 q 183 658 182 660 q 185 658 183 657 q 189 656 186 658 l 190 654 q 201 649 194 650 q 217 635 217 642 q 223 592 219 622 q 228 529 226 561 q 232 457 228 517 q 233 432 233 446 q 239 361 236 414 q 241 322 240 338 q 243 296 242 306 l 243 289 l 243 281 q 244 272 243 275 l 247 264 q 250 139 250 186 q 249 53 250 82 q 236 -44 244 3 q 238 -53 236 -50 l 238 -64 l 239 -68 q 232 -108 236 -96 q 228 -118 229 -117 l 224 -129 l 225 -133 l 211 -178 l 204 -187 l 201 -186 l 201 -189 q 189 -218 201 -199 q 138 -264 161 -249 l 126 -269 l 124 -271 l 118 -274 l 90 -278 q 78 -279 86 -279 l 67 -282 q 42 -285 47 -285 q 13 -282 18 -285 q -42 -219 -21 -264 q -58 -182 -53 -199 l -61 -167 q -54 -160 -64 -162 q -50 -158 -51 -160 q -50 -153 -49 -157 l -50 -150 l -50 -140 l -25 -136 l -15 -136 q -1 -137 -4 -136 m 133 846 q 134 844 133 846 q 136 842 135 843 l 139 842 q 139 846 138 844 q 144 847 140 847 l 144 849 l 146 850 q 147 850 147 850 l 150 851 l 151 851 l 151 850 l 151 851 l 151 853 l 151 851 l 163 860 l 164 861 l 164 861 l 167 863 l 168 863 l 169 864 l 172 863 l 172 863 l 172 863 l 172 863 q 174 863 174 864 q 176 863 175 863 l 178 863 q 181 861 179 863 q 185 858 183 860 l 185 858 q 190 857 188 858 q 196 856 192 856 l 201 856 l 201 853 l 214 843 q 232 790 225 829 l 229 783 l 229 783 l 228 783 q 221 771 225 774 l 221 771 l 221 771 l 218 771 l 218 768 l 218 768 q 211 747 218 758 l 211 747 l 210 744 l 210 746 l 210 746 l 210 744 l 210 746 l 207 746 l 206 744 l 204 744 q 201 744 203 744 q 192 749 199 744 q 182 744 186 744 l 182 744 l 182 744 l 178 743 l 178 743 l 176 743 q 174 742 175 743 q 172 742 174 742 l 171 742 l 169 739 l 168 739 l 156 736 l 151 736 q 131 746 147 736 l 129 747 q 124 749 125 750 q 124 749 124 749 q 120 753 122 750 q 114 760 118 757 l 113 761 q 110 763 111 763 q 110 765 110 764 l 108 768 l 108 769 l 107 772 l 107 775 l 107 776 q 105 780 107 778 q 106 782 103 782 q 104 783 104 782 l 104 783 q 101 788 101 785 l 100 789 l 100 790 l 99 801 q 103 826 99 815 q 119 840 108 838 l 119 842 l 119 842 l 121 840 l 121 844 l 121 842 l 121 842 q 122 843 122 842 q 124 844 122 844 l 126 844 l 126 844 l 126 846 l 126 844 l 128 844 q 133 846 131 846 z "},"k":{"ha":501,"x_min":69,"x_max":432,"o":"m 93 15 q 85 27 89 18 q 81 40 82 36 l 81 43 l 81 47 l 79 47 q 79 50 76 47 l 79 54 l 78 53 q 76 54 76 53 l 76 57 l 76 61 q 72 229 72 94 l 69 233 l 72 244 l 72 254 l 71 263 q 71 272 69 268 l 72 292 q 76 340 76 338 q 79 364 76 353 l 79 385 q 78 397 78 392 q 79 407 79 403 q 78 417 78 413 q 76 426 78 422 l 75 454 q 74 475 74 465 q 75 489 75 485 l 75 525 q 76 557 75 550 l 76 565 q 75 571 75 567 q 76 579 75 576 l 76 585 l 76 594 l 76 601 q 75 606 75 603 q 76 610 75 608 l 76 613 l 78 647 l 76 647 l 78 657 q 75 767 79 679 l 75 785 q 75 801 78 797 l 74 804 l 74 811 l 75 814 q 78 879 74 836 l 78 897 q 78 914 76 910 l 78 929 l 78 947 q 82 957 78 953 l 82 961 l 81 964 l 82 964 l 83 964 l 83 968 q 82 972 82 969 l 85 974 q 86 975 86 974 q 88 981 88 976 q 90 985 88 982 l 92 988 l 92 989 q 105 992 97 990 q 117 993 113 993 q 122 990 117 992 q 129 983 126 989 l 132 983 l 135 983 l 138 976 l 149 967 q 164 946 164 954 q 171 854 171 914 l 171 800 l 171 789 l 172 761 q 175 715 172 763 l 174 686 l 175 668 l 175 664 l 175 657 q 176 651 175 653 l 176 647 q 178 508 178 643 q 172 439 178 496 q 174 433 172 435 l 176 425 l 178 421 q 179 408 179 417 l 183 414 l 193 433 q 208 463 201 451 q 218 482 215 475 l 221 488 q 222 492 222 489 l 222 493 q 253 574 238 526 q 263 597 253 575 l 269 613 l 269 619 l 268 625 q 269 634 268 629 q 272 643 271 639 l 276 649 l 279 653 l 278 656 q 281 667 278 656 l 283 678 l 288 685 l 290 683 q 289 690 289 685 q 292 703 289 697 q 303 743 301 724 q 304 747 303 746 l 304 751 l 303 754 l 306 763 q 307 767 307 764 q 310 788 310 781 q 311 792 310 790 l 311 796 q 310 801 311 800 q 307 806 307 804 q 317 838 307 817 q 324 854 324 854 q 328 860 328 857 q 340 860 331 863 l 346 863 l 349 867 q 378 858 367 863 q 399 843 392 854 l 401 836 l 401 833 l 401 832 l 403 832 l 401 831 l 401 828 l 403 828 l 404 828 l 404 825 l 403 824 q 390 718 406 803 l 392 715 q 389 710 392 711 q 386 697 386 699 q 383 685 386 690 l 381 678 l 376 664 l 371 650 q 369 647 369 649 q 368 643 369 644 l 364 635 q 357 614 358 628 l 353 594 l 342 554 q 322 511 335 544 l 319 501 l 315 497 l 314 494 q 313 488 313 492 l 310 482 l 310 481 l 307 479 l 306 478 q 293 458 306 478 l 294 457 l 294 456 l 290 451 l 267 414 q 258 400 263 407 q 251 389 254 393 l 243 381 q 242 376 242 379 l 243 376 l 264 378 q 318 364 283 378 l 321 363 l 322 361 q 326 360 324 360 l 329 358 q 382 290 363 335 q 394 247 386 282 q 399 242 394 246 l 403 238 q 408 218 406 233 q 407 213 408 214 q 407 207 404 210 l 408 204 q 410 200 410 203 q 411 194 410 197 l 414 181 l 413 174 l 410 172 q 414 160 414 171 q 419 110 414 131 l 419 106 l 419 101 l 421 99 l 422 96 l 422 90 l 421 85 q 422 65 421 72 q 424 61 424 64 q 428 53 424 57 l 431 50 l 432 42 q 428 19 432 32 q 421 6 425 10 q 418 1 418 3 q 404 0 417 0 l 401 -3 l 397 -6 l 351 0 l 344 6 q 339 10 340 10 l 339 11 l 339 13 l 338 13 q 338 14 336 13 l 338 15 l 336 15 l 335 15 l 335 17 l 335 19 q 325 57 328 36 q 324 82 324 63 q 322 94 322 88 q 321 104 322 100 l 319 106 q 318 113 318 107 l 318 118 q 317 122 318 121 q 315 133 314 129 l 315 139 l 315 150 l 314 167 l 314 175 l 314 181 q 303 214 303 214 q 292 244 299 232 l 288 260 q 285 269 286 265 q 282 275 283 272 l 281 276 l 278 282 l 278 285 l 275 289 l 274 290 l 275 293 l 274 293 l 269 304 l 268 303 l 268 307 q 251 333 264 325 q 240 336 243 336 l 238 336 l 236 338 q 222 335 228 336 q 211 332 215 333 l 206 329 l 200 326 l 194 324 q 183 315 190 319 q 172 308 176 311 q 171 289 172 297 q 168 221 168 244 l 168 214 l 168 207 q 169 201 168 203 l 169 196 l 169 188 l 168 179 l 167 161 l 168 144 l 168 138 q 172 122 168 131 l 175 117 q 168 58 176 104 q 163 28 164 29 l 158 18 q 146 15 158 15 l 143 8 l 139 1 q 117 7 133 3 q 93 15 101 11 z "},"l":{"ha":322,"x_min":71,"x_max":301,"o":"m 301 71 q 297 47 301 60 q 295 41 296 43 q 293 38 294 39 q 292 33 294 36 l 289 32 l 290 31 l 286 28 l 283 25 q 285 24 283 24 l 285 24 l 279 17 q 204 -1 242 -1 q 124 32 156 -1 l 121 33 q 114 43 117 38 q 111 53 111 49 q 107 60 110 53 l 103 68 l 103 69 l 100 90 q 94 122 97 108 q 90 146 92 136 l 90 154 q 89 178 90 172 l 83 217 l 79 261 q 71 351 71 314 l 71 413 l 71 461 l 72 472 q 71 482 71 476 q 72 496 71 490 l 74 501 l 74 518 q 73 524 72 521 q 72 531 74 528 l 72 536 q 74 543 72 542 l 74 547 l 76 572 l 76 601 l 75 601 l 75 601 l 76 617 q 80 659 78 628 q 85 739 82 690 q 86 776 85 763 l 89 800 l 90 821 l 89 825 q 90 828 90 826 q 92 832 90 831 q 92 834 93 833 q 92 836 92 835 q 97 873 93 851 q 103 904 101 894 q 105 919 104 910 q 107 933 106 928 l 118 963 l 119 965 l 119 967 l 121 967 l 121 968 q 124 971 121 971 l 125 971 q 130 972 128 972 q 132 974 132 972 l 132 974 l 133 976 q 146 975 139 976 q 156 972 153 974 l 167 967 q 169 967 169 967 l 171 965 l 172 964 l 174 961 q 193 949 179 960 q 194 942 196 946 q 194 903 196 929 q 189 850 193 876 q 182 782 185 818 l 181 758 q 175 626 181 632 q 174 619 174 625 l 174 611 q 175 603 174 606 l 175 597 l 174 385 q 175 350 175 376 q 174 301 175 314 q 174 285 174 288 q 175 276 175 283 q 178 265 178 272 l 181 261 q 185 221 185 232 q 183 211 185 213 q 183 200 181 207 l 188 196 q 189 174 188 183 q 192 162 190 168 q 192 153 193 156 l 190 142 q 188 142 189 143 q 199 114 197 132 q 208 67 200 90 l 210 63 l 210 60 q 211 58 210 58 l 213 56 l 211 49 l 208 39 q 208 37 207 38 q 208 35 208 36 l 210 33 l 213 33 q 224 47 221 33 q 228 57 226 56 l 236 72 l 240 79 l 243 85 q 254 82 243 86 l 257 86 q 258 90 257 88 q 261 92 260 93 l 276 88 q 301 71 296 81 z "},"m":{"ha":868,"x_min":69,"x_max":799,"o":"m 108 25 l 103 32 l 101 35 l 101 38 l 100 38 l 100 39 l 100 42 l 99 42 l 97 42 l 97 44 l 97 46 q 81 156 86 71 l 78 158 l 78 165 l 78 171 l 76 183 q 76 190 75 185 l 78 196 l 78 213 q 79 225 78 222 q 76 233 76 231 q 74 310 71 261 q 72 325 74 321 l 74 347 q 72 369 74 365 l 72 375 q 71 379 71 376 q 72 383 71 382 l 74 388 l 72 399 l 71 401 l 72 404 q 74 406 74 404 l 74 428 l 72 428 l 71 428 l 74 435 q 71 506 75 446 l 71 518 l 71 528 l 69 529 q 71 533 69 532 l 71 536 q 74 578 71 544 l 75 589 l 75 600 l 78 622 q 79 629 78 628 l 79 631 l 79 633 l 81 633 q 82 636 82 633 l 81 638 l 82 639 q 86 641 85 639 q 88 644 88 643 q 90 646 88 646 l 90 647 l 92 649 q 104 651 97 650 q 115 651 111 653 l 121 650 l 129 646 l 131 646 l 133 646 l 135 644 l 136 642 q 146 636 139 639 q 156 631 149 635 q 163 622 163 626 q 168 579 167 601 l 168 571 l 171 575 l 181 586 l 190 596 q 270 638 224 621 q 349 656 317 656 q 429 601 393 656 l 438 590 l 444 582 l 447 576 q 478 614 458 593 q 517 647 497 635 l 529 651 l 539 657 l 542 657 q 581 660 564 660 q 660 650 619 660 q 721 625 700 640 l 740 607 l 754 589 q 758 579 756 588 l 763 571 l 769 551 l 774 544 l 779 536 l 782 532 q 794 492 790 513 l 794 481 q 793 469 793 478 l 796 464 l 799 413 l 797 399 q 794 401 796 403 q 794 399 793 400 q 797 379 797 394 q 796 354 797 364 q 789 257 790 292 l 789 247 q 788 236 788 243 l 788 231 l 788 222 q 786 210 788 214 l 783 197 q 779 150 779 175 l 779 139 l 779 131 q 782 119 779 128 l 783 111 q 774 38 783 90 l 768 1 q 765 -6 767 -1 q 761 -11 764 -10 q 751 -12 758 -12 l 749 -19 l 744 -28 l 729 -25 q 697 -15 711 -24 q 690 3 692 -10 l 686 15 q 685 19 685 15 l 686 24 l 685 24 q 685 28 683 26 l 685 32 q 683 33 685 33 l 683 38 l 683 42 q 696 275 682 83 l 694 279 q 696 293 694 288 l 696 308 l 696 319 l 696 331 l 697 344 q 699 358 699 350 q 700 418 700 374 l 699 446 q 665 554 693 494 q 635 599 651 579 l 629 603 q 625 604 626 603 q 613 613 617 613 q 592 621 601 619 l 589 622 l 586 622 l 581 622 q 558 617 572 622 l 558 615 l 551 611 q 508 510 528 576 q 497 465 508 510 l 499 460 q 497 453 499 456 l 494 446 l 486 397 l 478 357 q 476 350 478 353 l 479 269 l 479 258 l 478 247 q 481 231 481 239 q 479 217 481 222 l 478 204 l 476 178 l 478 154 l 478 146 q 482 125 478 136 l 483 118 q 479 60 486 97 q 474 42 475 43 l 471 38 l 457 36 l 454 36 l 454 35 q 450 33 453 33 q 436 30 444 32 q 422 28 428 28 l 404 28 l 394 39 l 390 43 l 390 44 l 390 49 l 389 49 l 389 50 l 389 54 l 388 54 l 388 56 l 388 60 q 382 154 382 89 l 382 218 l 382 281 l 381 286 q 381 303 379 293 q 379 318 381 314 l 378 346 q 378 363 376 353 l 378 378 l 374 450 l 371 482 q 350 550 365 511 q 343 569 347 558 q 335 589 339 581 q 307 611 328 614 q 294 606 306 610 l 283 600 q 267 585 272 592 l 264 583 l 261 581 l 239 553 l 232 544 q 189 436 206 501 q 181 399 181 406 l 182 394 l 178 383 l 175 339 l 172 294 l 175 289 l 178 283 q 179 264 181 274 q 178 258 179 260 q 176 253 175 256 l 178 250 l 178 240 l 178 226 l 176 219 l 172 219 q 176 200 179 215 l 176 188 q 178 156 176 167 l 178 151 q 179 147 178 149 l 181 142 l 181 136 l 179 131 q 182 108 179 122 q 185 100 182 103 l 189 96 q 190 92 190 94 q 192 78 192 89 q 190 54 192 64 q 186 35 188 36 q 183 28 183 32 q 169 25 183 28 l 167 19 l 164 15 l 140 15 q 117 18 119 15 l 108 25 z "},"n":{"ha":568,"x_min":69,"x_max":503,"o":"m 114 13 q 106 19 111 14 q 100 28 101 25 q 99 31 99 28 l 99 32 l 97 32 l 97 33 q 96 36 97 36 l 94 36 l 94 39 l 94 40 q 75 154 83 69 l 74 157 q 74 164 71 160 q 72 171 74 169 l 72 178 q 71 183 71 179 l 72 192 l 72 197 q 74 215 72 208 l 74 231 l 75 239 l 75 247 q 74 271 75 261 l 72 290 l 69 332 q 71 358 69 347 l 71 381 l 71 385 q 69 389 69 386 q 71 394 69 393 l 72 399 l 72 406 l 72 411 l 71 413 l 72 415 l 72 418 q 74 442 74 428 l 72 442 l 75 449 q 76 522 76 458 q 78 535 76 529 l 78 546 l 76 549 q 78 553 76 551 l 78 554 q 85 597 81 582 q 88 621 85 610 q 89 625 89 622 q 90 631 89 628 q 92 643 90 639 l 94 649 l 94 651 l 94 654 l 96 654 q 97 656 97 654 q 97 658 96 657 q 99 658 97 658 l 100 660 q 106 667 101 665 l 108 667 l 108 668 q 121 670 114 669 q 132 669 128 671 l 138 667 q 144 663 142 665 q 146 663 144 661 q 150 660 147 663 l 151 657 l 161 650 q 175 635 175 640 q 176 592 176 628 q 175 565 176 576 l 172 539 l 172 526 l 172 514 l 172 504 l 182 519 q 207 556 201 550 q 310 639 258 615 l 321 642 l 326 643 q 331 644 328 644 q 404 631 364 649 q 458 586 444 613 q 472 543 469 561 q 475 524 474 536 q 478 501 476 511 q 485 483 478 493 l 488 478 q 494 435 493 454 q 493 422 494 425 q 493 408 492 418 l 494 404 l 496 382 q 497 347 497 369 l 497 332 q 492 335 494 338 l 493 332 q 497 301 497 324 l 497 261 q 497 228 497 247 q 497 185 496 210 l 497 176 l 497 167 q 499 161 497 163 l 499 153 q 497 142 499 146 l 496 131 l 494 110 l 496 90 q 497 83 496 86 q 501 68 497 76 l 503 61 l 503 51 q 497 18 503 35 q 492 7 494 7 q 490 10 492 8 q 488 10 489 11 q 481 8 483 10 l 475 6 q 474 -1 474 4 l 474 -8 l 475 -11 l 458 -15 q 444 -19 450 -18 q 428 -18 438 -19 q 415 -3 422 -17 l 410 10 q 408 11 408 10 l 410 13 l 408 13 l 408 13 q 408 14 407 13 l 408 17 l 407 17 q 406 17 406 15 l 406 18 l 406 19 q 400 92 400 42 l 400 144 l 400 196 l 399 200 l 399 215 l 399 229 l 399 242 q 397 254 397 246 l 399 268 l 399 283 q 397 353 399 319 l 399 371 q 397 388 399 386 q 368 533 392 447 l 356 578 l 356 581 q 354 583 354 581 l 356 586 l 356 589 l 354 597 l 353 600 l 353 601 q 340 604 350 607 l 335 603 q 260 508 303 576 q 242 478 243 482 l 240 474 q 235 465 235 468 l 206 404 q 199 388 201 397 q 194 372 196 378 q 192 366 193 369 q 189 357 190 363 l 185 339 q 181 329 182 331 l 181 326 q 179 322 179 325 q 178 322 178 324 l 178 319 q 175 314 178 317 l 174 314 q 172 310 172 313 q 171 307 172 308 q 168 304 171 307 l 168 299 q 169 292 168 299 l 172 288 q 175 267 175 276 q 174 261 175 263 q 171 256 171 258 l 172 253 l 174 242 q 172 228 174 232 l 171 221 l 167 221 q 171 200 174 217 l 171 188 q 172 156 171 167 q 174 151 174 154 l 174 147 l 175 144 l 175 140 l 175 135 q 174 129 175 131 q 178 107 174 118 l 181 97 q 183 93 181 96 q 186 89 186 90 q 189 75 189 83 l 186 53 l 183 32 l 181 25 q 167 21 178 22 l 164 17 l 161 11 l 139 11 l 128 11 q 114 13 115 11 z "},"o":{"ha":500,"x_min":57,"x_max":446,"o":"m 307 604 l 303 608 q 289 617 300 608 l 274 624 q 247 631 264 631 q 217 617 226 631 q 183 551 197 589 q 164 475 169 513 q 153 308 150 385 q 152 306 153 308 q 153 300 151 303 q 156 289 156 289 l 158 269 q 210 86 178 157 q 250 47 228 53 q 267 53 257 47 q 288 74 282 65 l 294 81 q 299 86 299 85 l 300 90 q 318 133 317 128 l 322 147 l 325 142 l 325 146 q 328 160 325 149 q 336 190 332 172 q 350 308 350 265 l 351 319 l 351 333 l 351 342 q 350 353 350 346 l 351 367 l 350 383 q 343 442 347 424 l 338 465 l 333 478 q 331 483 332 481 q 328 486 329 485 q 314 546 317 524 l 311 560 q 307 580 308 572 q 306 589 306 588 l 307 597 q 308 601 306 599 l 307 604 m 343 636 q 367 625 350 636 l 374 619 l 376 615 q 381 611 379 610 l 382 613 l 385 608 q 388 604 388 604 l 389 604 l 393 594 q 432 463 418 546 q 444 288 446 381 l 446 282 q 441 246 444 271 q 435 207 438 221 q 422 168 428 189 q 383 89 414 133 q 357 58 374 74 q 297 19 331 32 q 228 7 263 7 q 176 15 200 7 q 97 97 136 31 q 82 135 90 111 l 79 144 q 72 167 78 154 l 68 181 q 68 189 67 185 q 67 194 68 193 q 58 263 58 253 l 57 263 l 57 283 q 81 507 61 433 l 104 567 l 106 572 q 117 586 108 578 l 142 613 q 166 637 154 626 q 194 656 178 647 q 250 669 221 669 q 289 665 268 669 q 325 654 318 660 q 331 650 325 651 q 338 646 336 646 l 336 644 l 336 644 l 340 639 l 343 636 z "},"p":{"ha":522,"x_min":69,"x_max":483,"o":"m 104 -308 q 97 -296 100 -306 q 92 -282 93 -286 l 92 -278 l 92 -275 l 90 -275 l 90 -272 l 90 -268 q 89 -268 90 -267 q 89 -264 88 -267 l 89 -260 q 79 -81 81 -215 l 76 -76 q 78 -65 76 -69 l 78 -54 q 75 -35 75 -46 q 76 -25 75 -29 q 78 -14 78 -21 q 79 14 78 3 l 79 38 l 81 50 q 82 63 82 56 q 81 101 82 83 l 78 129 l 74 194 l 74 232 l 74 268 l 74 276 q 72 283 72 278 l 74 292 l 74 297 l 74 308 l 74 315 q 72 319 72 317 q 74 324 72 322 l 74 326 l 74 364 l 72 364 l 74 375 q 71 492 75 394 l 71 513 l 71 528 l 69 532 q 71 539 69 536 l 71 543 q 74 613 71 554 l 74 631 q 75 649 74 644 q 76 667 75 658 q 78 686 76 681 q 79 697 78 696 q 81 700 81 697 q 79 704 79 701 l 81 704 l 82 704 l 82 708 q 83 714 81 711 q 85 715 85 714 q 86 721 86 717 l 90 726 q 92 728 92 726 l 92 729 q 114 733 104 733 q 117 732 115 733 q 121 729 118 731 q 129 721 128 728 l 131 722 l 133 722 l 136 714 q 146 704 136 714 q 163 681 163 690 q 167 611 164 667 l 167 604 l 182 618 q 282 665 218 646 q 333 675 317 675 q 383 661 360 675 q 422 626 406 649 l 428 615 l 432 610 l 435 604 q 481 400 471 517 q 476 286 483 364 l 479 263 l 481 257 q 475 207 481 231 q 471 194 474 197 q 465 182 467 185 l 467 175 q 456 141 460 153 q 449 122 451 129 l 440 110 q 439 114 440 113 l 438 111 q 418 74 438 93 q 344 31 383 43 q 340 29 343 29 l 335 29 l 329 28 q 318 25 326 25 q 297 24 311 24 q 253 29 269 26 l 243 32 q 235 35 235 35 l 224 38 q 215 39 217 38 q 178 54 203 43 l 178 53 q 178 29 179 39 l 176 19 l 172 19 q 176 -3 176 14 q 176 -42 176 -15 q 176 -87 175 -68 l 176 -94 q 176 -103 175 -101 q 178 -107 176 -106 l 178 -112 q 175 -132 178 -124 q 176 -168 175 -156 q 178 -175 178 -169 q 182 -192 178 -183 q 185 -199 185 -199 q 181 -260 188 -215 q 174 -293 174 -293 q 171 -304 171 -301 q 157 -307 168 -307 l 154 -314 l 153 -317 l 150 -321 q 128 -316 144 -319 q 104 -308 113 -312 m 169 436 q 171 386 169 396 l 171 382 l 171 375 q 174 364 171 367 q 176 217 176 294 l 174 144 l 175 142 l 176 142 l 178 140 q 181 138 181 138 l 183 136 l 186 132 q 333 72 288 67 l 335 75 l 342 86 l 346 99 l 350 106 l 353 114 q 367 155 361 135 q 375 186 374 175 q 382 282 382 228 q 379 363 382 301 q 369 464 375 431 l 367 474 l 364 482 q 363 493 363 485 l 363 500 l 356 525 q 356 529 354 528 q 354 533 356 532 q 344 568 350 556 l 343 568 l 342 578 q 339 588 340 582 q 336 603 338 594 l 331 625 q 325 633 329 629 q 319 635 324 635 q 289 626 310 635 l 286 624 q 281 622 285 622 l 275 619 q 224 574 240 594 q 210 553 218 568 q 197 522 203 538 q 193 510 194 515 q 190 504 192 506 l 190 501 q 189 499 190 499 l 188 499 l 188 496 l 188 493 q 186 492 188 492 l 183 490 q 182 485 182 489 l 178 481 l 178 479 l 176 478 q 169 476 175 476 l 169 436 z "},"q":{"ha":515,"x_min":42,"x_max":447,"o":"m 376 -371 q 365 -365 371 -371 l 360 -362 q 358 -360 358 -362 l 358 -357 l 358 -357 l 357 -358 q 356 -356 356 -358 q 354 -354 356 -354 l 353 -354 l 351 -353 l 351 -350 q 324 -197 335 -318 l 322 -193 l 322 -182 q 321 -169 322 -174 l 321 -160 q 319 -150 319 -156 l 321 -136 l 321 -125 q 322 -94 321 -107 l 322 -62 q 324 -47 322 -54 q 325 -32 325 -40 q 324 14 325 -7 q 322 54 322 33 l 322 57 q 281 22 294 32 l 276 21 q 256 13 268 17 q 235 10 243 10 q 213 8 221 7 q 156 18 176 8 q 129 38 140 25 q 43 257 53 111 q 42 307 42 274 q 51 435 42 372 l 57 465 l 61 476 l 64 488 l 67 493 q 74 511 67 494 l 78 525 q 85 539 79 531 l 88 543 q 119 596 104 572 l 131 608 q 257 683 201 669 q 294 688 261 686 l 297 689 q 308 688 304 689 q 361 672 336 683 l 365 685 l 365 686 l 365 689 l 367 689 l 368 689 l 368 690 l 368 693 l 369 693 l 372 693 q 378 699 376 699 q 379 700 379 699 l 379 700 l 392 700 l 403 700 q 408 697 403 699 q 415 693 413 696 l 417 693 l 419 693 l 421 692 q 422 689 421 689 l 431 683 q 446 668 444 675 q 446 631 447 654 q 442 581 444 607 l 438 542 q 436 521 436 538 l 436 500 l 433 446 l 431 385 l 431 378 l 429 371 q 431 363 429 365 l 431 357 q 429 306 431 328 q 432 274 435 294 l 431 260 l 429 254 l 428 247 l 429 247 l 428 242 q 426 239 428 239 l 426 235 l 428 235 q 426 231 428 232 l 426 231 l 425 167 q 421 97 425 131 l 418 71 l 421 51 l 422 46 q 424 4 425 25 q 422 -7 424 -6 q 419 -18 419 -12 l 421 -24 l 421 -44 l 421 -72 l 419 -85 q 415 -85 418 -83 q 419 -110 419 -92 q 422 -200 419 -172 l 422 -207 l 422 -214 q 424 -219 422 -218 q 425 -225 425 -221 l 425 -233 q 425 -242 424 -240 q 429 -271 425 -257 l 432 -282 l 436 -287 q 439 -292 439 -290 q 442 -310 442 -300 l 440 -326 q 438 -339 438 -339 l 435 -343 q 424 -349 435 -344 l 421 -353 l 418 -356 l 407 -361 q 376 -371 388 -371 m 340 558 q 329 571 332 565 q 325 584 326 576 q 322 596 324 592 q 318 611 321 608 q 303 640 313 631 q 281 649 293 649 q 260 643 274 649 q 224 617 243 635 q 193 579 206 599 l 188 568 q 182 556 183 558 q 156 451 167 513 q 144 336 144 389 q 158 171 144 251 l 161 165 q 163 162 163 164 q 164 158 163 160 l 168 150 l 169 147 q 183 114 174 140 l 185 106 q 186 97 183 103 l 188 96 q 199 71 189 90 q 200 67 199 68 l 201 64 l 200 61 l 208 57 q 217 51 214 51 q 263 68 240 47 q 271 76 268 72 l 274 81 l 276 85 q 288 99 286 94 q 307 132 301 117 q 314 149 314 149 l 317 167 l 324 190 l 324 196 l 326 239 l 326 249 q 325 258 325 253 q 326 271 325 267 q 329 292 329 288 l 329 301 l 328 307 q 329 313 328 311 l 331 315 q 333 363 335 369 l 332 363 l 333 376 q 342 514 338 404 q 343 535 342 525 l 344 551 l 343 554 l 340 558 z "},"r":{"ha":411,"x_min":69,"x_max":383,"o":"m 90 21 l 85 31 l 86 32 l 78 39 q 74 46 74 43 l 72 90 l 75 119 l 75 124 q 74 153 74 133 l 72 156 l 72 161 l 72 169 l 72 176 q 71 181 71 176 l 72 189 l 72 194 l 75 228 l 76 233 q 75 249 76 247 l 75 251 l 75 256 l 75 260 l 74 265 l 74 282 l 74 285 l 72 303 l 71 328 l 71 353 l 71 375 l 71 379 q 69 383 69 381 q 71 390 69 388 l 72 393 l 72 399 q 71 406 71 400 l 71 408 q 71 411 69 410 l 72 411 l 72 435 l 71 435 l 72 442 q 74 515 74 451 l 75 526 q 74 538 75 536 l 72 539 q 74 544 72 543 l 75 547 q 81 588 75 567 q 83 610 81 601 q 85 613 85 611 q 86 618 85 615 q 88 630 86 625 q 90 638 90 635 q 92 639 92 638 l 92 642 l 93 640 l 93 643 l 93 646 l 94 646 l 97 647 q 100 650 97 647 q 103 651 100 651 q 104 653 104 651 q 106 654 104 654 l 117 656 q 129 654 128 656 q 133 651 129 654 q 138 649 136 650 q 140 647 139 647 l 142 647 l 144 647 l 146 646 l 147 643 l 157 635 q 165 630 158 633 q 171 622 171 626 q 172 582 172 617 q 171 557 172 568 q 169 550 171 551 l 181 560 l 199 578 q 207 588 200 581 q 208 589 208 588 q 210 592 208 590 q 214 594 211 593 q 222 600 217 596 q 226 604 226 603 q 253 624 243 615 l 264 631 l 269 633 q 278 640 272 635 q 335 647 301 647 q 364 644 358 647 l 367 643 l 372 640 q 372 632 375 640 q 376 629 372 632 l 378 628 q 382 626 381 628 l 383 625 l 378 618 q 363 606 374 614 q 353 606 361 604 l 344 607 l 342 608 l 340 608 l 340 608 l 338 608 l 336 610 l 336 608 l 333 608 l 332 610 q 243 535 297 600 l 243 532 l 239 526 q 232 515 233 518 q 225 503 231 510 l 221 499 l 206 468 l 203 463 l 199 454 q 189 413 196 447 l 183 372 l 176 325 q 178 321 176 321 l 178 315 l 176 307 l 175 304 l 175 299 l 175 293 l 176 290 l 175 288 l 174 285 l 175 283 q 176 263 176 278 q 175 256 176 257 q 172 249 172 253 l 174 249 l 174 236 l 174 222 l 172 214 l 171 214 l 171 211 q 172 194 174 201 q 171 190 172 192 q 172 172 172 183 l 172 157 q 171 144 171 151 l 174 142 q 171 136 174 139 l 172 136 l 172 132 l 172 126 q 171 119 171 124 l 169 108 l 171 97 q 172 93 172 96 q 176 83 172 88 q 178 79 178 82 l 178 72 q 174 40 178 61 q 167 21 167 21 l 163 14 q 150 13 163 13 l 147 8 q 142 4 143 4 q 136 6 142 6 l 136 6 l 131 6 q 114 7 114 6 l 110 10 q 97 13 101 13 l 90 21 z "},"s":{"ha":408,"x_min":22,"x_max":376,"o":"m 86 157 q 97 144 90 156 l 103 133 l 103 131 l 104 126 l 106 126 q 108 124 107 126 q 108 119 108 121 l 110 121 q 111 117 111 121 l 111 114 q 160 63 132 82 q 221 43 189 43 q 251 49 236 43 l 254 51 q 267 67 263 60 q 274 85 271 75 l 279 100 q 285 140 282 128 l 285 163 q 226 281 276 224 q 181 318 213 294 l 172 324 q 156 340 156 340 q 150 346 150 344 l 135 358 q 124 367 128 363 l 121 372 l 117 376 q 79 425 88 413 l 78 424 l 69 440 q 64 496 64 464 q 74 571 64 536 q 100 624 83 606 q 142 651 110 633 l 146 656 l 161 660 q 244 672 204 672 q 285 663 269 671 q 321 639 301 656 q 339 614 339 618 q 346 604 339 611 l 344 604 l 343 604 l 347 599 q 350 593 349 593 q 349 589 350 590 l 349 586 q 350 574 349 576 l 350 569 l 349 567 q 349 564 347 565 q 347 561 349 561 q 337 554 346 558 q 326 553 328 550 l 321 557 l 311 565 l 310 565 l 308 565 q 306 568 307 565 q 303 572 306 569 l 288 582 q 272 592 274 589 q 217 636 247 636 q 165 610 192 636 q 147 576 151 600 q 142 532 142 546 q 147 489 142 517 l 150 479 q 151 475 151 478 q 154 468 151 472 q 207 397 174 436 q 261 344 240 358 q 326 283 299 318 q 332 275 326 279 l 342 265 l 344 263 q 368 218 361 243 l 369 204 l 371 190 l 375 185 l 376 158 q 374 125 376 144 q 369 110 374 121 l 367 114 q 365 110 365 114 q 360 86 367 100 q 347 65 354 72 q 263 4 303 24 l 242 -1 q 215 -10 224 -8 q 186 -11 207 -11 q 140 -6 165 -11 l 119 3 l 107 7 l 97 8 q 36 79 53 39 q 25 126 22 107 l 25 142 q 33 147 25 147 l 38 147 l 39 158 l 42 168 q 64 165 49 168 q 86 157 79 161 z "},"t":{"ha":407,"x_min":-4,"x_max":379,"o":"m 379 42 q 371 19 379 32 q 367 14 369 17 q 360 11 364 11 l 357 8 l 357 7 l 351 4 l 349 3 l 340 -1 q 292 -6 315 -6 q 201 13 239 -6 l 199 13 l 193 19 l 188 22 q 183 26 188 25 l 178 31 l 169 44 q 156 75 158 64 l 151 93 q 144 115 149 100 q 138 142 139 129 q 129 187 131 172 q 128 228 128 201 q 128 268 128 256 q 126 276 128 274 q 125 283 125 279 q 126 293 125 289 l 128 299 l 128 311 l 128 319 l 126 325 q 128 329 126 328 q 129 332 129 329 l 131 375 l 129 375 l 131 389 q 138 553 138 472 l 140 582 l 142 608 l 139 614 q 140 624 140 617 l 139 624 l 139 622 l 136 624 q 115 625 133 625 q 70 624 76 625 q 63 624 64 624 l 57 624 l 56 624 l 54 624 l 53 624 l 32 628 l 28 628 q 22 629 24 628 q 17 631 18 629 q 10 632 11 631 l 8 632 l 7 632 l 6 632 l 6 632 q 4 633 6 633 q 3 635 3 633 l 0 638 l -1 638 l -1 639 l -1 644 q -1 647 -4 644 l 0 650 q 3 653 3 653 l 3 654 l 4 656 l 6 656 l 15 667 l 49 665 q 61 664 54 664 l 67 664 l 103 665 l 119 665 q 135 664 126 664 l 136 664 l 138 664 l 140 664 l 142 664 l 144 664 l 151 751 q 154 783 151 750 q 157 819 157 821 q 160 851 157 818 l 163 889 q 165 911 165 911 q 167 918 167 913 l 167 925 l 168 925 l 168 932 q 169 940 168 939 q 171 944 169 943 l 172 947 l 175 964 q 179 969 175 965 l 179 972 l 181 976 q 193 982 183 979 q 204 982 203 985 l 210 974 q 217 958 214 969 q 218 958 217 957 q 219 957 219 958 q 222 950 221 957 q 224 942 222 943 q 233 919 224 943 q 246 872 246 893 q 240 663 249 789 l 240 663 l 247 663 l 251 661 l 250 660 q 261 661 251 661 q 283 660 268 660 l 286 660 l 289 660 l 290 660 l 292 660 l 296 660 l 297 660 q 308 660 303 658 l 311 660 l 314 661 l 318 663 l 322 663 l 336 660 l 346 658 l 349 656 q 350 650 350 656 l 351 649 l 353 647 l 351 642 q 350 629 351 632 l 346 626 l 342 625 l 342 625 l 339 624 l 338 624 l 338 622 l 336 622 l 335 622 q 281 621 328 621 l 279 619 l 276 619 l 272 619 l 271 619 l 267 619 l 264 619 l 260 619 q 253 621 258 621 l 244 621 q 240 622 243 622 l 236 622 q 235 599 235 611 l 235 564 q 233 535 233 550 q 229 435 229 468 q 228 400 228 419 l 228 393 l 228 385 l 228 378 l 228 372 q 229 321 229 360 l 229 261 q 231 221 229 231 q 232 190 232 214 q 232 164 231 168 l 233 161 l 236 156 q 239 153 239 153 l 243 135 q 243 129 244 131 q 242 124 240 126 l 244 122 q 249 104 244 117 l 249 101 q 247 100 249 100 l 244 99 q 251 88 250 97 q 258 64 254 72 l 260 61 l 260 60 q 261 58 260 58 l 263 58 l 264 51 q 274 43 268 44 l 279 40 q 283 40 282 39 q 285 39 285 40 q 319 36 318 31 l 325 47 l 329 56 l 338 63 q 346 60 340 65 l 353 65 q 356 68 353 65 l 360 71 q 368 61 361 68 q 379 42 378 53 z "}}}
